%TF.GenerationSoftware,Altium Limited,Altium Designer,22.5.1 (42)*%
G04 Layer_Color=65535*
%FSLAX45Y45*%
%MOMM*%
%TF.SameCoordinates,F63A7803-94E7-494B-9888-F8709FA5C5B4*%
%TF.FilePolarity,Positive*%
%TF.FileFunction,Legend,Top*%
%TF.Part,Single*%
G01*
G75*
%TA.AperFunction,NonConductor*%
%ADD39C,0.20000*%
%ADD45C,0.25400*%
%ADD46C,0.30000*%
%ADD47C,0.10000*%
%ADD48C,0.15240*%
%ADD49C,0.40000*%
%ADD50C,0.12700*%
%ADD51C,0.20320*%
%ADD52C,0.15001*%
G36*
X3047001Y181301D02*
X3032592Y165341D01*
X2999619Y137734D01*
X2963130Y114977D01*
X2923832Y97512D01*
X2882489Y85676D01*
X2839902Y79701D01*
X2796898D01*
X2754312Y85676D01*
X2712969Y97512D01*
X2673671Y114977D01*
X2637182Y137734D01*
X2604209Y165341D01*
X2589800Y181301D01*
Y181301D01*
X3047001D01*
Y181301D01*
D02*
G37*
G36*
X241340Y3027300D02*
X255749Y3043260D01*
X288722Y3070866D01*
X325211Y3093623D01*
X364508Y3111089D01*
X405851Y3122924D01*
X448438Y3128900D01*
X491442D01*
X534029Y3122924D01*
X575372Y3111089D01*
X614669Y3093623D01*
X651158Y3070866D01*
X684131Y3043260D01*
X698540Y3027300D01*
X698541Y3027300D01*
X241341D01*
X241340Y3027300D01*
D02*
G37*
G36*
X913640Y3015300D02*
X928048Y3031260D01*
X961021Y3058866D01*
X997511Y3081623D01*
X1036808Y3099089D01*
X1078151Y3110924D01*
X1120738Y3116900D01*
X1163742D01*
X1206329Y3110924D01*
X1247672Y3099089D01*
X1286969Y3081623D01*
X1323458Y3058866D01*
X1356431Y3031260D01*
X1370840Y3015300D01*
X1370840Y3015300D01*
X913641D01*
X913640Y3015300D01*
D02*
G37*
G36*
X3501225Y278671D02*
X3516714D01*
Y268671D01*
X3501225D01*
Y253233D01*
X3491225D01*
Y268671D01*
X3476714D01*
Y278671D01*
X3491225D01*
Y293233D01*
X3501225D01*
Y278671D01*
D02*
G37*
G36*
X4923676Y2428912D02*
X4938187D01*
Y2418912D01*
X4923676D01*
Y2404351D01*
X4913676D01*
Y2418912D01*
X4898187D01*
Y2428912D01*
X4913676D01*
Y2444350D01*
X4923676D01*
Y2428912D01*
D02*
G37*
D39*
X3521401Y2500901D02*
G03*
X3521401Y2500901I-10000J0D01*
G01*
X3676501Y2981501D02*
G03*
X3676501Y2981501I-10000J0D01*
G01*
X4203000Y1791301D02*
G03*
X4203000Y1791301I-15000J0D01*
G01*
X6182301Y1707701D02*
G03*
X6182301Y1707701I-10000J0D01*
G01*
Y2609401D02*
G03*
X6182301Y2609401I-10000J0D01*
G01*
X6879300Y1827701D02*
G03*
X6879300Y1827701I-10000J0D01*
G01*
X6904700Y2729401D02*
G03*
X6904700Y2729401I-10000J0D01*
G01*
X6182301Y818701D02*
G03*
X6182301Y818701I-10000J0D01*
G01*
X6905501Y925601D02*
G03*
X6905501Y925601I-10000J0D01*
G01*
X3289301Y2590401D02*
Y2890401D01*
X3539301Y2590400D02*
Y2890401D01*
X3888601Y2892001D02*
X3888601Y2592000D01*
X3638601Y2592001D02*
Y2892001D01*
X3786200Y256800D02*
Y356768D01*
X3836184D01*
X3852845Y340106D01*
Y306784D01*
X3836184Y290122D01*
X3786200D01*
X3952813Y356768D02*
X3886168D01*
Y256800D01*
X3952813D01*
X3886168Y306784D02*
X3919490D01*
X3986136Y356768D02*
X4052781D01*
X4019458D01*
Y256800D01*
X4086103D02*
Y323445D01*
X4119426Y356768D01*
X4152748Y323445D01*
Y256800D01*
Y306784D01*
X4086103D01*
X4352684Y340106D02*
X4336023Y356768D01*
X4302700D01*
X4286039Y340106D01*
Y273461D01*
X4302700Y256800D01*
X4336023D01*
X4352684Y273461D01*
X4402668Y256800D02*
X4435991D01*
X4452652Y273461D01*
Y306784D01*
X4435991Y323445D01*
X4402668D01*
X4386007Y306784D01*
Y273461D01*
X4402668Y256800D01*
X4485975D02*
Y323445D01*
X4502636D01*
X4519297Y306784D01*
Y256800D01*
Y306784D01*
X4535958Y323445D01*
X4552620Y306784D01*
Y256800D01*
X4752555Y340106D02*
X4735894Y356768D01*
X4702571D01*
X4685910Y340106D01*
Y273461D01*
X4702571Y256800D01*
X4735894D01*
X4752555Y273461D01*
X4802539Y256800D02*
X4835862D01*
X4852523Y273461D01*
Y306784D01*
X4835862Y323445D01*
X4802539D01*
X4785878Y306784D01*
Y273461D01*
X4802539Y256800D01*
X4885846D02*
Y323445D01*
X4935830D01*
X4952491Y306784D01*
Y256800D01*
X5002475Y340106D02*
Y323445D01*
X4985813D01*
X5019136D01*
X5002475D01*
Y273461D01*
X5019136Y256800D01*
X5069120Y323445D02*
Y256800D01*
Y290122D01*
X5085781Y306784D01*
X5102442Y323445D01*
X5119104D01*
X5185749Y256800D02*
X5219072D01*
X5235733Y273461D01*
Y306784D01*
X5219072Y323445D01*
X5185749D01*
X5169088Y306784D01*
Y273461D01*
X5185749Y256800D01*
X5269056D02*
X5302378D01*
X5285717D01*
Y356768D01*
X5269056D01*
X5352362Y256800D02*
X5385684D01*
X5369023D01*
Y356768D01*
X5352362D01*
X5485652Y256800D02*
X5452330D01*
X5435668Y273461D01*
Y306784D01*
X5452330Y323445D01*
X5485652D01*
X5502313Y306784D01*
Y290122D01*
X5435668D01*
X5535636Y323445D02*
Y256800D01*
Y290122D01*
X5552298Y306784D01*
X5568959Y323445D01*
X5585620D01*
D45*
X3048098Y2612082D02*
G03*
X3079081Y2581099I30983J0D01*
G01*
X3159078D02*
G03*
X3190063Y2612082I3J30983D01*
G01*
X3079665Y2860652D02*
G03*
X3048679Y2829669I-3J-30983D01*
G01*
X3190645Y2829668D02*
G03*
X3159662Y2860651I-30983J0D01*
G01*
X4155709Y906998D02*
G03*
X4186692Y937981I0J30983D01*
G01*
Y1017978D02*
G03*
X4155709Y1048963I-30983J3D01*
G01*
X3907139Y938565D02*
G03*
X3938122Y907579I30983J-3D01*
G01*
X3938122Y1049545D02*
G03*
X3907139Y1018562I0J-30983D01*
G01*
X5441982Y2037204D02*
G03*
X5410999Y2006221I0J-30983D01*
G01*
X5410999Y1926224D02*
G03*
X5441982Y1895239I30983J-3D01*
G01*
X5690551Y2005637D02*
G03*
X5659568Y2036623I-30983J3D01*
G01*
Y1894656D02*
G03*
X5690551Y1925639I0J30983D01*
G01*
X4545529Y2429480D02*
G03*
X4514546Y2460462I-30983J0D01*
G01*
X4434549Y2460462D02*
G03*
X4403563Y2429479I-3J-30983D01*
G01*
X4513963Y2180910D02*
G03*
X4544948Y2211892I3J30983D01*
G01*
X4402982D02*
G03*
X4433965Y2180910I30983J0D01*
G01*
X3589114Y1428767D02*
G03*
X3545297Y1428767I-21908J-21908D01*
G01*
X3488731Y1372200D02*
G03*
X3488729Y1328381I21906J-21910D01*
G01*
X3742558Y1230680D02*
G03*
X3742560Y1274498I-21906J21910D01*
G01*
X3642175Y1174113D02*
G03*
X3685991Y1174113I21908J21908D01*
G01*
X5316204Y988509D02*
G03*
X5285221Y1019492I-30983J0D01*
G01*
X5205224D02*
G03*
X5174238Y988509I-3J-30983D01*
G01*
X5284637Y739940D02*
G03*
X5315622Y770923I3J30983D01*
G01*
X5173656Y770923D02*
G03*
X5204639Y739940I30983J0D01*
G01*
X3489735Y1717514D02*
G03*
X3489735Y1673698I21908J-21908D01*
G01*
X3546302Y1617131D02*
G03*
X3590120Y1617129I21910J21906D01*
G01*
X3687821Y1870958D02*
G03*
X3644003Y1870960I-21910J-21906D01*
G01*
X3744388Y1770575D02*
G03*
X3744388Y1814391I-21908J21908D01*
G01*
X3133361Y397201D02*
G03*
X3133361Y397201I-314960J0D01*
G01*
X3035719Y775798D02*
G03*
X3066702Y806781I0J30983D01*
G01*
Y886778D02*
G03*
X3035719Y917764I-30983J3D01*
G01*
X2787150Y807365D02*
G03*
X2818133Y776379I30983J-3D01*
G01*
Y918345D02*
G03*
X2787150Y887362I0J-30983D01*
G01*
X2879082Y1499104D02*
G03*
X2848099Y1468121I0J-30983D01*
G01*
Y1388124D02*
G03*
X2879082Y1357138I30983J-3D01*
G01*
X3127651Y1467537D02*
G03*
X3096668Y1498522I-30983J3D01*
G01*
X3096668Y1356557D02*
G03*
X3127651Y1387540I0J30983D01*
G01*
X1457200Y2799400D02*
G03*
X1457200Y2799400I-314960J0D01*
G01*
X784900Y2811400D02*
G03*
X784900Y2811400I-314960J0D01*
G01*
X4584801Y2652001D02*
X5344449D01*
X4584801D02*
Y2906001D01*
X5600801D01*
Y2652001D02*
Y2906001D01*
X5344449Y2652001D02*
X5600801D01*
X5344449D02*
Y2906001D01*
X3048685Y2749664D02*
Y2829664D01*
X3079665Y2860647D02*
X3159662Y2860647D01*
X3190645Y2749664D02*
Y2829664D01*
X3048098Y2612077D02*
Y2692074D01*
X3190063Y2612077D02*
Y2692074D01*
X3079076Y2581099D02*
X3159078D01*
X3938127Y907585D02*
X4018127D01*
X3907144Y1018563D02*
X3907145Y938565D01*
X3938127Y1049545D02*
X4018127D01*
X4075716Y906998D02*
X4155714Y906998D01*
X4075717Y1048963D02*
X4155714Y1048963D01*
X4186691Y937976D02*
X4186692Y1017978D01*
X312024Y2468491D02*
Y2485255D01*
Y2205347D02*
Y2222111D01*
X772018Y2468491D02*
Y2485255D01*
Y2205347D02*
Y2222111D01*
X312024Y2205347D02*
X772018D01*
X628508D02*
Y2485255D01*
X312024D02*
X772018D01*
X5579563Y2036617D02*
X5659563Y2036617D01*
X5690547Y1925640D02*
Y2005637D01*
X5579563Y1894656D02*
X5659563Y1894657D01*
X5441977Y2037204D02*
X5521974Y2037204D01*
X5441977Y1895238D02*
X5521974D01*
X5410999Y1926224D02*
X5410999Y2006226D01*
X4433960Y2180910D02*
X4513962D01*
X4544947Y2211887D02*
X4544948Y2291885D01*
X4402982D02*
X4402982Y2211887D01*
X4545529Y2429474D02*
X4545529Y2349474D01*
X4434549Y2460457D02*
X4514546Y2460457D01*
X4403569Y2349474D02*
Y2429474D01*
X3685987Y1174110D02*
X3742557Y1230680D01*
X3685996Y1331061D02*
X3742563Y1274495D01*
X3585611Y1230676D02*
X3642178Y1174110D01*
X3589117Y1428763D02*
X3645686Y1372194D01*
X3488734Y1372196D02*
X3545301Y1428763D01*
X3488736Y1328382D02*
X3545305Y1271813D01*
X5315617Y770928D02*
Y850927D01*
X5204640Y739945D02*
X5284637Y739944D01*
X5173656Y770928D02*
Y850927D01*
X5316204Y908517D02*
Y988514D01*
X5174238Y908517D02*
Y988514D01*
X5205224Y1019492D02*
X5285226Y1019492D01*
X3687821Y1870958D02*
X3744391Y1814388D01*
X3587440Y1814397D02*
X3644007Y1870963D01*
X3687825Y1714012D02*
X3744392Y1770578D01*
X3489739Y1717518D02*
X3546307Y1774086D01*
X3489739Y1673701D02*
X3546305Y1617134D01*
X3590120Y1617136D02*
X3646688Y1673705D01*
X880990Y1048100D02*
Y2046104D01*
X257839Y1048100D02*
Y2042711D01*
X261233Y2046104D01*
X124291Y1048100D02*
Y2046104D01*
X121480Y1974781D02*
X124289D01*
X2099Y1855401D02*
X121480Y1974781D01*
X2100Y1756341D02*
X2369D01*
X124289Y1634421D01*
Y1487370D02*
Y1499801D01*
X2099Y1365181D02*
X124289Y1487370D01*
X2100Y1240721D02*
X11934D01*
X124289Y1128367D01*
X762101Y1048100D02*
Y2046104D01*
X-1901Y2057102D02*
X1008100D01*
X-1901Y1037099D02*
Y2057102D01*
Y1037099D02*
X1008100D01*
Y2057102D01*
X828100Y2117102D02*
X854516Y2057102D01*
X828100Y2117102D02*
X928100D01*
X897528Y2057103D02*
X928100Y2117102D01*
X108101Y2117100D02*
X134517Y2057105D01*
X108101Y2117100D02*
X208101D01*
X177530Y2057105D02*
X208101Y2117100D01*
X2970801Y473401D02*
X2970801Y575001D01*
X2920001Y524201D02*
X3021600Y524201D01*
X2818138Y776384D02*
X2898137Y776385D01*
X2787155Y807365D02*
Y887362D01*
X2818138Y918345D02*
X2898137Y918345D01*
X2955727Y775798D02*
X3035724Y775798D01*
X2955727Y917763D02*
X3035724D01*
X3066702Y806776D02*
Y886778D01*
X2325295Y989314D02*
Y1311201D01*
Y81201D02*
Y403087D01*
X1095295Y81201D02*
Y403087D01*
Y989314D02*
Y1311201D01*
Y81201D02*
X2325295Y81201D01*
X1095295Y1311201D02*
X2325295Y1311201D01*
X3016664Y1498517D02*
X3096663Y1498517D01*
X3127646Y1387540D02*
X3127647Y1467537D01*
X3016664Y1356556D02*
X3096663Y1356557D01*
X2879077Y1499104D02*
X2959074D01*
X2879077Y1357138D02*
X2959074D01*
X2848099Y1388124D02*
X2848099Y1468126D01*
X369924Y781291D02*
Y798055D01*
Y518147D02*
Y534911D01*
X829918Y781291D02*
Y798055D01*
Y518147D02*
Y534911D01*
X369924Y518147D02*
X829918D01*
X686408D02*
Y798055D01*
X369924D02*
X829918D01*
X989840Y2621601D02*
X989840Y2723200D01*
X939040Y2672400D02*
X1040640Y2672401D01*
X317541Y2633601D02*
Y2735200D01*
X266741Y2684401D02*
X368340D01*
X7526502Y61201D02*
Y3105203D01*
X8330965Y29705D02*
Y61201D01*
X8316233Y15227D02*
X8330965Y29705D01*
X8316233Y5321D02*
Y15227D01*
Y5321D02*
X8396243D01*
Y25133D01*
X8386340Y35199D02*
X8396243Y25133D01*
X8386337Y61201D02*
X8386340Y35199D01*
X8386337Y61201D02*
X8386500Y55199D01*
X7526502Y61201D02*
X8546502D01*
X7701127Y29705D02*
Y61201D01*
X7686395Y15227D02*
X7701127Y29705D01*
X7686395Y5321D02*
Y15227D01*
Y5321D02*
X7766405D01*
Y25133D01*
X7756501Y35199D02*
X7766405Y25133D01*
X7756499Y61201D02*
X7756501Y35199D01*
X7756499Y61201D02*
X7756501Y65199D01*
X8423807Y3109201D02*
X8423807Y61201D01*
X8484958Y3109201D02*
X8484958Y61201D01*
X7754949D02*
X7755889Y3109201D01*
X8546502D02*
X8546502Y61201D01*
X7526502Y3109201D02*
X8546502D01*
D46*
X3817316Y1827689D02*
G03*
X3817137Y1827509I-10697J10517D01*
G01*
D47*
X2833213Y1291600D02*
G03*
X2833213Y1291600I-12700J0D01*
G01*
X2882903Y1281506D02*
X2882903Y1266912D01*
X2882903Y1176081D02*
X2882903Y1171914D01*
X2882903Y1076920D02*
X2882903Y1081085D01*
Y971505D02*
Y986089D01*
X3062905Y1266912D02*
X3062905Y1281507D01*
Y1076920D02*
Y1176084D01*
X3062905Y986092D02*
X3062905Y971505D01*
X2882903Y971505D02*
X3062905Y971505D01*
X2882903Y1281506D02*
X3062905Y1281507D01*
D48*
X1509940Y2597881D02*
G03*
X1525180Y2582641I15240J0D01*
G01*
X1675421Y2582641D02*
G03*
X1690661Y2597881I0J15240D01*
G01*
X1525180Y2975361D02*
G03*
X1509940Y2960121I0J-15240D01*
G01*
X1690661Y2960121D02*
G03*
X1675421Y2975361I-15240J0D01*
G01*
X4774340Y2346422D02*
Y2418225D01*
X4874061D01*
Y2346422D02*
Y2418225D01*
X4774340Y2229376D02*
Y2301180D01*
Y2229376D02*
X4874061D01*
Y2301180D01*
X3625461Y270358D02*
Y342161D01*
X3525740Y270358D02*
X3625461D01*
X3525740D02*
Y342161D01*
X3625461Y387404D02*
Y459207D01*
X3525740D02*
X3625461D01*
X3525740Y387404D02*
Y459207D01*
X2852840Y2586093D02*
Y2681980D01*
Y2586093D02*
X2984961D01*
Y2681980D01*
X2852840Y2767223D02*
Y2863110D01*
X2984961D01*
Y2767223D02*
Y2863110D01*
X4069161Y2757149D02*
Y2853036D01*
X3937040D02*
X4069161D01*
X3937040Y2757149D02*
Y2853036D01*
X4069161Y2576019D02*
Y2671907D01*
X3937040Y2576019D02*
X4069161D01*
X3937040D02*
Y2671907D01*
X7216221Y2352041D02*
X7312109D01*
Y2484161D01*
X7216221D02*
X7312109D01*
X7035092Y2352041D02*
X7130979D01*
X7035092D02*
Y2484161D01*
X7130979D01*
X7035692Y2621961D02*
X7131580D01*
X7035692Y2489841D02*
Y2621961D01*
Y2489841D02*
X7131580D01*
X7216822Y2621961D02*
X7312710D01*
Y2489841D02*
Y2621961D01*
X7216822Y2489841D02*
X7312710D01*
X6100922Y1449940D02*
X6196810D01*
Y1582061D01*
X6100922D02*
X6196810D01*
X5919792Y1449940D02*
X6015680D01*
X5919792D02*
Y1582061D01*
X6015680D01*
X6100922Y1582340D02*
X6196809D01*
Y1714461D01*
X6100922D02*
X6196809D01*
X5919792Y1582340D02*
X6015679D01*
X5919792D02*
Y1714461D01*
X6015679D01*
X5920692Y2238361D02*
X6016579D01*
X5920692Y2106240D02*
Y2238361D01*
Y2106240D02*
X6016579D01*
X6101822Y2238361D02*
X6197709D01*
Y2106240D02*
Y2238361D01*
X6101822Y2106240D02*
X6197709D01*
X6099422Y2324140D02*
X6195309D01*
Y2456261D01*
X6099422D02*
X6195309D01*
X5918292Y2324140D02*
X6014179D01*
X5918292D02*
Y2456261D01*
X6014179D01*
X6097922Y2487040D02*
X6193809D01*
Y2619161D01*
X6097922D02*
X6193809D01*
X5916792Y2487040D02*
X6012679D01*
X5916792D02*
Y2619161D01*
X6012679D01*
X7021792Y1584261D02*
X7117679D01*
X7021792Y1452140D02*
Y1584261D01*
Y1452140D02*
X7117679D01*
X7202921Y1584261D02*
X7298809D01*
Y1452140D02*
Y1584261D01*
X7202921Y1452140D02*
X7298809D01*
X7024592Y1729061D02*
X7120479D01*
X7024592Y1596940D02*
Y1729061D01*
Y1596940D02*
X7120479D01*
X7205722Y1729061D02*
X7301609D01*
Y1596940D02*
Y1729061D01*
X7205722Y1596940D02*
X7301609D01*
X7036216Y2286261D02*
X7132103D01*
X7036216Y2154140D02*
Y2286261D01*
Y2154140D02*
X7132103D01*
X7217346Y2286261D02*
X7313233D01*
Y2154140D02*
Y2286261D01*
X7217346Y2154140D02*
X7313233D01*
X6099021Y326540D02*
X6194909D01*
Y458661D01*
X6099021D02*
X6194909D01*
X5917892Y326540D02*
X6013779D01*
X5917892D02*
Y458661D01*
X6013779D01*
X6100721Y555840D02*
X6196609D01*
Y687961D01*
X6100721D02*
X6196609D01*
X5919592Y555840D02*
X6015479D01*
X5919592D02*
Y687961D01*
X6015479D01*
X6100722Y688840D02*
X6196609D01*
Y820961D01*
X6100722D02*
X6196609D01*
X5919592Y688840D02*
X6015479D01*
X5919592D02*
Y820961D01*
X6015479D01*
X6099421Y1207141D02*
X6195309D01*
Y1339261D01*
X6099421D02*
X6195309D01*
X5918292Y1207141D02*
X6014179D01*
X5918292D02*
Y1339261D01*
X6014179D01*
X7214521Y316840D02*
X7310409D01*
Y448961D01*
X7214521D02*
X7310409D01*
X7033392Y316840D02*
X7129279D01*
X7033392D02*
Y448961D01*
X7129279D01*
X7036392Y839961D02*
X7132280D01*
X7036392Y707841D02*
Y839961D01*
Y707841D02*
X7132280D01*
X7217522Y839961D02*
X7313410D01*
Y707841D02*
Y839961D01*
X7217522Y707841D02*
X7313410D01*
X7035092Y696361D02*
X7130979D01*
X7035092Y564240D02*
Y696361D01*
Y564240D02*
X7130979D01*
X7216222Y696361D02*
X7312109D01*
Y564240D02*
Y696361D01*
X7216222Y564240D02*
X7312109D01*
X7204621Y1219940D02*
X7300509D01*
Y1352061D01*
X7204621D02*
X7300509D01*
X7023492Y1219940D02*
X7119379D01*
X7023492D02*
Y1352061D01*
X7119379D01*
X1690661Y2597881D02*
Y2738881D01*
X1509940Y2597881D02*
X1509940Y2738882D01*
X1525180Y2582641D02*
X1675421Y2582641D01*
X1690661Y2819120D02*
Y2960121D01*
X1509940Y2960121D02*
X1509940Y2819120D01*
X1525180Y2975361D02*
X1675421D01*
X1601014Y1455582D02*
Y2486822D01*
D49*
X1265407Y2428402D02*
G03*
X1265407Y2428402I-19990J0D01*
G01*
D50*
X5109001Y1856301D02*
X5148001D01*
Y1817301D02*
Y1856301D01*
Y1136301D02*
Y1175301D01*
X5109001Y1136301D02*
X5148001D01*
X4428001D02*
X4467000D01*
X4428001D02*
Y1175301D01*
Y1817301D02*
Y1856301D01*
X4467000D01*
X3964000Y1086801D02*
X4124001D01*
X3964000Y1224801D02*
X4124001D01*
X581010Y2345301D02*
Y2383401D01*
X504810D02*
X581010Y2345301D01*
X504810D02*
Y2383401D01*
X581010Y2307201D02*
Y2345301D01*
X504810Y2307201D02*
X581010Y2345301D01*
X504810Y2307201D02*
Y2345301D01*
X479410D02*
X606411D01*
X5471000Y1732100D02*
X5631001D01*
X5471000Y1870100D02*
X5631001Y1870101D01*
X6416800Y1206201D02*
X6816801D01*
X6416800Y1710201D02*
X6816801D01*
X6416800Y2107901D02*
X6816801D01*
X6416800Y2611901D02*
X6816801D01*
X6501801Y2023201D02*
X6731801D01*
X6501801Y1782201D02*
X6731801D01*
X6527201Y2683901D02*
X6757201D01*
X6527201Y2924901D02*
X6757201D01*
X4235901Y2249200D02*
Y2409201D01*
X4373901D02*
X4373901Y2249200D01*
X5486300Y805701D02*
X5486300Y965701D01*
X5348300Y805701D02*
Y965701D01*
X6416800Y317201D02*
X6816801D01*
X6416800Y821201D02*
X6816801D01*
X6528001Y1121101D02*
X6758001D01*
X6528001Y880101D02*
X6758001D01*
X638910Y658101D02*
Y696201D01*
X562710D02*
X638910Y658101D01*
X562710D02*
Y696201D01*
X638910Y620001D02*
Y658101D01*
X562710Y620001D02*
X638910Y658101D01*
X562710Y620001D02*
Y658101D01*
X537310D02*
X664311D01*
X4734189Y2234998D02*
X4664211D01*
Y2269986D01*
X4675874Y2281649D01*
X4699200D01*
X4710863Y2269986D01*
Y2234998D01*
Y2258323D02*
X4734189Y2281649D01*
Y2351627D02*
Y2304975D01*
X4687537Y2351627D01*
X4675874D01*
X4664211Y2339964D01*
Y2316638D01*
X4675874Y2304975D01*
X4734189Y2421604D02*
Y2374953D01*
X4687537Y2421604D01*
X4675874D01*
X4664211Y2409941D01*
Y2386615D01*
X4675874Y2374953D01*
X5100689Y2426304D02*
X5030712D01*
Y2379652D01*
X5100689Y2309675D02*
Y2356327D01*
X5030712D01*
Y2309675D01*
X5065701Y2356327D02*
Y2333001D01*
X5100689Y2286349D02*
X5030712D01*
Y2251360D01*
X5042375Y2239697D01*
X5089026D01*
X5100689Y2251360D01*
Y2286349D01*
X3610489Y521342D02*
X3540512D01*
Y556331D01*
X3552175Y567994D01*
X3575500D01*
X3587163Y556331D01*
Y521342D01*
Y544668D02*
X3610489Y567994D01*
Y637971D02*
Y591319D01*
X3563837Y637971D01*
X3552175D01*
X3540512Y626308D01*
Y602982D01*
X3552175Y591319D01*
X3610489Y661297D02*
Y684623D01*
Y672960D01*
X3540512D01*
X3552175Y661297D01*
X3486189Y538598D02*
X3416211D01*
Y573587D01*
X3427874Y585250D01*
X3451200D01*
X3462863Y573587D01*
Y538598D01*
X3416211Y608575D02*
X3486189D01*
X3462863Y631901D01*
X3486189Y655227D01*
X3416211D01*
X3486189Y678553D02*
X3416211D01*
Y713542D01*
X3427874Y725205D01*
X3451200D01*
X3462863Y713542D01*
Y678553D01*
Y701879D02*
X3486189Y725205D01*
X4473301Y2806489D02*
X4449975D01*
X4461638D01*
Y2748175D01*
X4449975Y2736512D01*
X4438312D01*
X4426649Y2748175D01*
X4496627Y2736512D02*
X4519952D01*
X4508289D01*
Y2806489D01*
X4496627Y2794827D01*
X4022854Y1796629D02*
X4006360Y1714160D01*
X4055842Y1763641D02*
X3973373Y1747147D01*
X4022854Y1697666D02*
X4039348Y1681172D01*
X4031101Y1689419D01*
X4080583Y1738901D01*
X4064089D01*
X6863286Y1188390D02*
Y1130075D01*
X6874949Y1118412D01*
X6898275D01*
X6909938Y1130075D01*
Y1188390D01*
X6968252Y1118412D02*
Y1188390D01*
X6933264Y1153401D01*
X6979915D01*
X6812486Y2077390D02*
Y2019075D01*
X6824149Y2007412D01*
X6847475D01*
X6859138Y2019075D01*
Y2077390D01*
X6882464Y2065727D02*
X6894126Y2077390D01*
X6917452D01*
X6929115Y2065727D01*
Y2054064D01*
X6917452Y2042401D01*
X6905789D01*
X6917452D01*
X6929115Y2030738D01*
Y2019075D01*
X6917452Y2007412D01*
X6894126D01*
X6882464Y2019075D01*
X6592085Y3046289D02*
Y2987974D01*
X6603748Y2976311D01*
X6627074D01*
X6638737Y2987974D01*
Y3046289D01*
X6708715Y2976311D02*
X6662063D01*
X6708715Y3022963D01*
Y3034626D01*
X6697052Y3046289D01*
X6673726D01*
X6662063Y3034626D01*
X2493160Y2644089D02*
Y2597438D01*
X2516486Y2574112D01*
X2539812Y2597438D01*
Y2644089D01*
X2563138Y2574112D02*
Y2644089D01*
X2598126D01*
X2609789Y2632427D01*
Y2609101D01*
X2598126Y2597438D01*
X2563138D01*
X2586463D02*
X2609789Y2574112D01*
X2633115D02*
X2656441D01*
X2644778D01*
Y2644089D01*
X2633115Y2632427D01*
X5286Y985190D02*
Y926875D01*
X16949Y915212D01*
X40275D01*
X51938Y926875D01*
Y985190D01*
X121915D02*
X75264D01*
Y950201D01*
X98589Y961864D01*
X110252D01*
X121915Y950201D01*
Y926875D01*
X110252Y915212D01*
X86926D01*
X75264Y926875D01*
X3178829Y1165790D02*
Y1107475D01*
X3190492Y1095812D01*
X3213818D01*
X3225481Y1107475D01*
Y1165790D01*
X3248807D02*
X3295458D01*
Y1154127D01*
X3248807Y1107475D01*
Y1095812D01*
X4207949Y1924990D02*
Y1866675D01*
X4219612Y1855012D01*
X4242938D01*
X4254601Y1866675D01*
Y1924990D01*
X4277926Y1855012D02*
X4301252D01*
X4289589D01*
Y1924990D01*
X4277926Y1913327D01*
X6290038Y2617412D02*
X6313364D01*
X6301701D01*
Y2687390D01*
X6290038Y2675727D01*
X3403238Y3052326D02*
X3391575Y3063989D01*
X3368249D01*
X3356586Y3052326D01*
Y3040663D01*
X3368249Y3029001D01*
X3391575D01*
X3403238Y3017338D01*
Y3005675D01*
X3391575Y2994012D01*
X3368249D01*
X3356586Y3005675D01*
X3473215Y2994012D02*
X3426563D01*
X3473215Y3040663D01*
Y3052326D01*
X3461552Y3063989D01*
X3438226D01*
X3426563Y3052326D01*
X3753401D02*
X3741738Y3063989D01*
X3718412D01*
X3706749Y3052326D01*
Y3040663D01*
X3718412Y3029001D01*
X3741738D01*
X3753401Y3017338D01*
Y3005675D01*
X3741738Y2994012D01*
X3718412D01*
X3706749Y3005675D01*
X3776727Y2994012D02*
X3800052D01*
X3788389D01*
Y3063989D01*
X3776727Y3052326D01*
X7336118Y738912D02*
Y808890D01*
X7371107D01*
X7382770Y797227D01*
Y773901D01*
X7371107Y762238D01*
X7336118D01*
X7359444D02*
X7382770Y738912D01*
X7452748D02*
X7406096D01*
X7452748Y785564D01*
Y797227D01*
X7441085Y808890D01*
X7417759D01*
X7406096Y797227D01*
X7476073D02*
X7487736Y808890D01*
X7511062D01*
X7522725Y797227D01*
Y750575D01*
X7511062Y738912D01*
X7487736D01*
X7476073Y750575D01*
Y797227D01*
X7335651Y595312D02*
Y665290D01*
X7370640D01*
X7382303Y653627D01*
Y630301D01*
X7370640Y618638D01*
X7335651D01*
X7358977D02*
X7382303Y595312D01*
X7405629D02*
X7428955D01*
X7417292D01*
Y665290D01*
X7405629Y653627D01*
X7463943Y606975D02*
X7475606Y595312D01*
X7498932D01*
X7510595Y606975D01*
Y653627D01*
X7498932Y665290D01*
X7475606D01*
X7463943Y653627D01*
Y641964D01*
X7475606Y630301D01*
X7510595D01*
X7339305Y347912D02*
Y417889D01*
X7374294D01*
X7385957Y406227D01*
Y382901D01*
X7374294Y371238D01*
X7339305D01*
X7362631D02*
X7385957Y347912D01*
X7409282D02*
X7432608D01*
X7420945D01*
Y417889D01*
X7409282Y406227D01*
X7467597D02*
X7479260Y417889D01*
X7502586D01*
X7514249Y406227D01*
Y394564D01*
X7502586Y382901D01*
X7514249Y371238D01*
Y359575D01*
X7502586Y347912D01*
X7479260D01*
X7467597Y359575D01*
Y371238D01*
X7479260Y382901D01*
X7467597Y394564D01*
Y406227D01*
X7479260Y382901D02*
X7502586D01*
X5667329Y590612D02*
Y660589D01*
X5702318D01*
X5713980Y648927D01*
Y625601D01*
X5702318Y613938D01*
X5667329D01*
X5690655D02*
X5713980Y590612D01*
X5737306D02*
X5760632D01*
X5748969D01*
Y660589D01*
X5737306Y648927D01*
X5795621Y660589D02*
X5842273D01*
Y648927D01*
X5795621Y602275D01*
Y590612D01*
X5666529Y347512D02*
Y417489D01*
X5701517D01*
X5713180Y405826D01*
Y382501D01*
X5701517Y370838D01*
X5666529D01*
X5689855D02*
X5713180Y347512D01*
X5736506D02*
X5759832D01*
X5748169D01*
Y417489D01*
X5736506Y405826D01*
X5841472Y417489D02*
X5818147Y405826D01*
X5794821Y382501D01*
Y359175D01*
X5806484Y347512D01*
X5829810D01*
X5841472Y359175D01*
Y370838D01*
X5829810Y382501D01*
X5794821D01*
X5671929Y722712D02*
Y792690D01*
X5706918D01*
X5718581Y781027D01*
Y757701D01*
X5706918Y746038D01*
X5671929D01*
X5695255D02*
X5718581Y722712D01*
X5741906D02*
X5765232D01*
X5753569D01*
Y792690D01*
X5741906Y781027D01*
X5846873Y792690D02*
X5800221D01*
Y757701D01*
X5823547Y769364D01*
X5835210D01*
X5846873Y757701D01*
Y734375D01*
X5835210Y722712D01*
X5811884D01*
X5800221Y734375D01*
X7325151Y1630062D02*
Y1700040D01*
X7360140D01*
X7371803Y1688377D01*
Y1665051D01*
X7360140Y1653388D01*
X7325151D01*
X7348477D02*
X7371803Y1630062D01*
X7395129D02*
X7418455D01*
X7406792D01*
Y1700040D01*
X7395129Y1688377D01*
X7488432Y1630062D02*
Y1700040D01*
X7453443Y1665051D01*
X7500095D01*
X7322351Y1485262D02*
Y1555240D01*
X7357340D01*
X7369003Y1543577D01*
Y1520251D01*
X7357340Y1508588D01*
X7322351D01*
X7345677D02*
X7369003Y1485262D01*
X7392328D02*
X7415654D01*
X7403991D01*
Y1555240D01*
X7392328Y1543577D01*
X7450643D02*
X7462306Y1555240D01*
X7485632D01*
X7497295Y1543577D01*
Y1531914D01*
X7485632Y1520251D01*
X7473969D01*
X7485632D01*
X7497295Y1508588D01*
Y1496925D01*
X7485632Y1485262D01*
X7462306D01*
X7450643Y1496925D01*
X7329405Y1238312D02*
Y1308289D01*
X7364394D01*
X7376057Y1296627D01*
Y1273301D01*
X7364394Y1261638D01*
X7329405D01*
X7352731D02*
X7376057Y1238312D01*
X7399382D02*
X7422708D01*
X7411045D01*
Y1308289D01*
X7399382Y1296627D01*
X7504349Y1238312D02*
X7457697D01*
X7504349Y1284964D01*
Y1296627D01*
X7492686Y1308289D01*
X7469360D01*
X7457697Y1296627D01*
X5714392Y1468612D02*
Y1538590D01*
X5749380D01*
X5761043Y1526927D01*
Y1503601D01*
X5749380Y1491938D01*
X5714392D01*
X5737718D02*
X5761043Y1468612D01*
X5784369D02*
X5807695D01*
X5796032D01*
Y1538590D01*
X5784369Y1526927D01*
X5842684Y1468612D02*
X5866010D01*
X5854347D01*
Y1538590D01*
X5842684Y1526927D01*
X5715029Y1227212D02*
Y1297189D01*
X5750017D01*
X5761680Y1285527D01*
Y1262201D01*
X5750017Y1250538D01*
X5715029D01*
X5738355D02*
X5761680Y1227212D01*
X5785006D02*
X5808332D01*
X5796669D01*
Y1297189D01*
X5785006Y1285527D01*
X5843321D02*
X5854984Y1297189D01*
X5878310D01*
X5889972Y1285527D01*
Y1238875D01*
X5878310Y1227212D01*
X5854984D01*
X5843321Y1238875D01*
Y1285527D01*
X5749380Y1609512D02*
Y1679490D01*
X5784369D01*
X5796032Y1667827D01*
Y1644501D01*
X5784369Y1632838D01*
X5749380D01*
X5772706D02*
X5796032Y1609512D01*
X5819358Y1621175D02*
X5831021Y1609512D01*
X5854347D01*
X5866010Y1621175D01*
Y1667827D01*
X5854347Y1679490D01*
X5831021D01*
X5819358Y1667827D01*
Y1656164D01*
X5831021Y1644501D01*
X5866010D01*
X7340417Y2520912D02*
Y2590890D01*
X7375406D01*
X7387069Y2579227D01*
Y2555901D01*
X7375406Y2544238D01*
X7340417D01*
X7363743D02*
X7387069Y2520912D01*
X7410394Y2579227D02*
X7422057Y2590890D01*
X7445383D01*
X7457046Y2579227D01*
Y2567564D01*
X7445383Y2555901D01*
X7457046Y2544238D01*
Y2532575D01*
X7445383Y2520912D01*
X7422057D01*
X7410394Y2532575D01*
Y2544238D01*
X7422057Y2555901D01*
X7410394Y2567564D01*
Y2579227D01*
X7422057Y2555901D02*
X7445383D01*
X7344762Y2370412D02*
Y2440390D01*
X7379751D01*
X7391414Y2428727D01*
Y2405401D01*
X7379751Y2393738D01*
X7344762D01*
X7368088D02*
X7391414Y2370412D01*
X7414740Y2440390D02*
X7461391D01*
Y2428727D01*
X7414740Y2382075D01*
Y2370412D01*
X7345887Y2185212D02*
Y2255190D01*
X7380875D01*
X7392538Y2243527D01*
Y2220201D01*
X7380875Y2208538D01*
X7345887D01*
X7369212D02*
X7392538Y2185212D01*
X7462516Y2255190D02*
X7439190Y2243527D01*
X7415864Y2220201D01*
Y2196875D01*
X7427527Y2185212D01*
X7450853D01*
X7462516Y2196875D01*
Y2208538D01*
X7450853Y2220201D01*
X7415864D01*
X5742386Y2342612D02*
Y2412590D01*
X5777375D01*
X5789038Y2400927D01*
Y2377601D01*
X5777375Y2365938D01*
X5742386D01*
X5765712D02*
X5789038Y2342612D01*
X5859015Y2412590D02*
X5812364D01*
Y2377601D01*
X5835689Y2389264D01*
X5847352D01*
X5859015Y2377601D01*
Y2354275D01*
X5847352Y2342612D01*
X5824026D01*
X5812364Y2354275D01*
X5749380Y2137612D02*
Y2207589D01*
X5784369D01*
X5796032Y2195927D01*
Y2172601D01*
X5784369Y2160938D01*
X5749380D01*
X5772706D02*
X5796032Y2137612D01*
X5854347D02*
Y2207589D01*
X5819358Y2172601D01*
X5866010D01*
X5738986Y2516412D02*
Y2586390D01*
X5773975D01*
X5785638Y2574727D01*
Y2551401D01*
X5773975Y2539738D01*
X5738986D01*
X5762312D02*
X5785638Y2516412D01*
X5808963Y2574727D02*
X5820626Y2586390D01*
X5843952D01*
X5855615Y2574727D01*
Y2563064D01*
X5843952Y2551401D01*
X5832289D01*
X5843952D01*
X5855615Y2539738D01*
Y2528075D01*
X5843952Y2516412D01*
X5820626D01*
X5808963Y2528075D01*
X2869586Y2910039D02*
Y2980016D01*
X2904575D01*
X2916238Y2968353D01*
Y2945028D01*
X2904575Y2933365D01*
X2869586D01*
X2892912D02*
X2916238Y2910039D01*
X2986215D02*
X2939564D01*
X2986215Y2956691D01*
Y2968353D01*
X2974552Y2980016D01*
X2951227D01*
X2939564Y2968353D01*
X3967249Y2910039D02*
Y2980016D01*
X4002238D01*
X4013901Y2968353D01*
Y2945028D01*
X4002238Y2933365D01*
X3967249D01*
X3990575D02*
X4013901Y2910039D01*
X4037226D02*
X4060552D01*
X4048889D01*
Y2980016D01*
X4037226Y2968353D01*
X939743Y172390D02*
Y102412D01*
X986395D01*
X1009721D02*
X1033047D01*
X1021384D01*
Y172390D01*
X1009721Y160727D01*
X144986Y680390D02*
Y610412D01*
X179975D01*
X191638Y622075D01*
Y668727D01*
X179975Y680390D01*
X144986D01*
X261615Y610412D02*
X214964D01*
X261615Y657064D01*
Y668727D01*
X249952Y680390D01*
X226626D01*
X214964Y668727D01*
X124549Y2374089D02*
Y2304112D01*
X159538D01*
X171201Y2315775D01*
Y2362427D01*
X159538Y2374089D01*
X124549D01*
X194526Y2304112D02*
X217852D01*
X206189D01*
Y2374089D01*
X194526Y2362427D01*
X7356712Y3107327D02*
X7345049Y3118989D01*
X7321723D01*
X7310060Y3107327D01*
Y3060675D01*
X7321723Y3049012D01*
X7345049D01*
X7356712Y3060675D01*
X7380038Y3049012D02*
Y3118989D01*
X7426689Y3049012D01*
Y3118989D01*
X7450015Y3049012D02*
X7473341D01*
X7461678D01*
Y3118989D01*
X7450015Y3107327D01*
X3117581Y1595627D02*
X3105918Y1607290D01*
X3082592D01*
X3070929Y1595627D01*
Y1548975D01*
X3082592Y1537312D01*
X3105918D01*
X3117581Y1548975D01*
X3140906Y1537312D02*
X3164232D01*
X3152569D01*
Y1607290D01*
X3140906Y1595627D01*
X3199221Y1607290D02*
X3245873D01*
Y1595627D01*
X3199221Y1548975D01*
Y1537312D01*
X3167580Y869426D02*
X3155917Y881089D01*
X3132591D01*
X3120928Y869426D01*
Y822774D01*
X3132591Y811111D01*
X3155917D01*
X3167580Y822774D01*
X3190906Y811111D02*
X3214232D01*
X3202569D01*
Y881089D01*
X3190906Y869426D01*
X3295872Y881089D02*
X3272546Y869426D01*
X3249220Y846100D01*
Y822774D01*
X3260883Y811111D01*
X3284209D01*
X3295872Y822774D01*
Y834437D01*
X3284209Y846100D01*
X3249220D01*
X1559480Y3069027D02*
X1547818Y3080690D01*
X1524492D01*
X1512829Y3069027D01*
Y3022375D01*
X1524492Y3010712D01*
X1547818D01*
X1559480Y3022375D01*
X1582806Y3010712D02*
X1606132D01*
X1594469D01*
Y3080690D01*
X1582806Y3069027D01*
X1687773Y3080690D02*
X1641121D01*
Y3045701D01*
X1664447Y3057364D01*
X1676110D01*
X1687773Y3045701D01*
Y3022375D01*
X1676110Y3010712D01*
X1652784D01*
X1641121Y3022375D01*
X81780Y3124227D02*
X70117Y3135890D01*
X46792D01*
X35129Y3124227D01*
Y3077575D01*
X46792Y3065912D01*
X70117D01*
X81780Y3077575D01*
X105106Y3065912D02*
X128432D01*
X116769D01*
Y3135890D01*
X105106Y3124227D01*
X198410Y3065912D02*
Y3135890D01*
X163421Y3100901D01*
X210072D01*
X770181Y3117927D02*
X758518Y3129590D01*
X735192D01*
X723529Y3117927D01*
Y3071275D01*
X735192Y3059612D01*
X758518D01*
X770181Y3071275D01*
X793506Y3059612D02*
X816832D01*
X805169D01*
Y3129590D01*
X793506Y3117927D01*
X851821D02*
X863484Y3129590D01*
X886810D01*
X898473Y3117927D01*
Y3106264D01*
X886810Y3094601D01*
X875147D01*
X886810D01*
X898473Y3082938D01*
Y3071275D01*
X886810Y3059612D01*
X863484D01*
X851821Y3071275D01*
X3086780Y90527D02*
X3075118Y102190D01*
X3051792D01*
X3040129Y90527D01*
Y43875D01*
X3051792Y32212D01*
X3075118D01*
X3086780Y43875D01*
X3110106Y32212D02*
X3133432D01*
X3121769D01*
Y102190D01*
X3110106Y90527D01*
X3215073Y32212D02*
X3168421D01*
X3215073Y78864D01*
Y90527D01*
X3203410Y102190D01*
X3180084D01*
X3168421Y90527D01*
X5446627Y619158D02*
X5458290Y630821D01*
Y654147D01*
X5446627Y665809D01*
X5399975D01*
X5388312Y654147D01*
Y630821D01*
X5399975Y619158D01*
X5388312Y595832D02*
Y572506D01*
Y584169D01*
X5458290D01*
X5446627Y595832D01*
X5388312Y537517D02*
Y514192D01*
Y525854D01*
X5458290D01*
X5446627Y537517D01*
X5267227Y623021D02*
X5278890Y634684D01*
Y658009D01*
X5267227Y669672D01*
X5220575D01*
X5208912Y658009D01*
Y634684D01*
X5220575Y623021D01*
X5208912Y599695D02*
Y576369D01*
Y588032D01*
X5278890D01*
X5267227Y599695D01*
Y541380D02*
X5278890Y529717D01*
Y506391D01*
X5267227Y494728D01*
X5220575D01*
X5208912Y506391D01*
Y529717D01*
X5220575Y541380D01*
X5267227D01*
X5777932Y1833427D02*
X5766269Y1845090D01*
X5742943D01*
X5731280Y1833427D01*
Y1786775D01*
X5742943Y1775112D01*
X5766269D01*
X5777932Y1786775D01*
X5801258D02*
X5812921Y1775112D01*
X5836247D01*
X5847910Y1786775D01*
Y1833427D01*
X5836247Y1845090D01*
X5812921D01*
X5801258Y1833427D01*
Y1821764D01*
X5812921Y1810101D01*
X5847910D01*
X5777932Y1986727D02*
X5766269Y1998389D01*
X5742943D01*
X5731280Y1986727D01*
Y1940075D01*
X5742943Y1928412D01*
X5766269D01*
X5777932Y1940075D01*
X5801258Y1986727D02*
X5812921Y1998389D01*
X5836247D01*
X5847910Y1986727D01*
Y1975064D01*
X5836247Y1963401D01*
X5847910Y1951738D01*
Y1940075D01*
X5836247Y1928412D01*
X5812921D01*
X5801258Y1940075D01*
Y1951738D01*
X5812921Y1963401D01*
X5801258Y1975064D01*
Y1986727D01*
X5812921Y1963401D02*
X5836247D01*
X3803438Y1175927D02*
X3791775Y1187589D01*
X3768449D01*
X3756786Y1175927D01*
Y1129275D01*
X3768449Y1117612D01*
X3791775D01*
X3803438Y1129275D01*
X3826763Y1187589D02*
X3873415D01*
Y1175927D01*
X3826763Y1129275D01*
Y1117612D01*
X3800638Y1002127D02*
X3788975Y1013789D01*
X3765649D01*
X3753986Y1002127D01*
Y955475D01*
X3765649Y943812D01*
X3788975D01*
X3800638Y955475D01*
X3870615Y1013789D02*
X3847289Y1002127D01*
X3823963Y978801D01*
Y955475D01*
X3835626Y943812D01*
X3858952D01*
X3870615Y955475D01*
Y967138D01*
X3858952Y978801D01*
X3823963D01*
X4291038Y2582427D02*
X4279375Y2594090D01*
X4256049D01*
X4244386Y2582427D01*
Y2535775D01*
X4256049Y2524112D01*
X4279375D01*
X4291038Y2535775D01*
X4361015Y2594090D02*
X4314364D01*
Y2559101D01*
X4337690Y2570764D01*
X4349352D01*
X4361015Y2559101D01*
Y2535775D01*
X4349352Y2524112D01*
X4326027D01*
X4314364Y2535775D01*
X4461138Y2587227D02*
X4449475Y2598890D01*
X4426149D01*
X4414486Y2587227D01*
Y2540575D01*
X4426149Y2528912D01*
X4449475D01*
X4461138Y2540575D01*
X4519452Y2528912D02*
Y2598890D01*
X4484464Y2563901D01*
X4531115D01*
X3509753Y1173160D02*
Y1156666D01*
X3526247Y1140172D01*
X3542741D01*
X3575729Y1173160D01*
Y1189654D01*
X3559235Y1206148D01*
X3542741D01*
X3493259Y1189654D02*
X3476765D01*
X3460272Y1206148D01*
Y1222642D01*
X3468519Y1230889D01*
X3485012D01*
X3493259Y1222642D01*
X3485012Y1230889D01*
Y1247383D01*
X3493259Y1255629D01*
X3509753D01*
X3526247Y1239136D01*
Y1222642D01*
X3561660Y1931148D02*
X3545166D01*
X3528672Y1914654D01*
Y1898160D01*
X3561660Y1865173D01*
X3578153D01*
X3594647Y1881667D01*
Y1898160D01*
X3652376Y1939395D02*
X3619388Y1906407D01*
Y1972383D01*
X3611141Y1980630D01*
X3594647D01*
X3578153Y1964136D01*
Y1947642D01*
X3134201Y2968353D02*
X3122538Y2980016D01*
X3099212D01*
X3087549Y2968353D01*
Y2921702D01*
X3099212Y2910039D01*
X3122538D01*
X3134201Y2921702D01*
X3157527Y2910039D02*
X3180853D01*
X3169190D01*
Y2980016D01*
X3157527Y2968353D01*
X6263275Y910027D02*
X6274938Y921690D01*
X6298264D01*
X6309926Y910027D01*
Y898364D01*
X6298264Y886701D01*
X6286601D01*
X6298264D01*
X6309926Y875038D01*
Y863375D01*
X6298264Y851712D01*
X6274938D01*
X6263275Y863375D01*
X6360726Y1740712D02*
X6314075D01*
X6360726Y1787364D01*
Y1799027D01*
X6349064Y1810690D01*
X6325738D01*
X6314075Y1799027D01*
D51*
X3856197Y1817103D02*
X4096613Y1576687D01*
X3799629Y1279703D02*
X4096613Y1576687D01*
X3559213Y1520119D02*
X3799629Y1279703D01*
X3559213Y1520119D02*
X3856197Y1817103D01*
D52*
X1601014Y2486822D02*
X1647941D01*
X1601014Y1455582D02*
X1647941D01*
X1638030D02*
X1816917D01*
X1635561Y2486822D02*
X1816917D01*
%TF.MD5,8ef58e1c471710477dd097fe0c88fbac*%
M02*
