%TF.GenerationSoftware,Altium Limited,Altium Designer,22.5.1 (42)*%
G04 Layer_Color=8388736*
%FSLAX45Y45*%
%MOMM*%
%TF.SameCoordinates,F63A7803-94E7-494B-9888-F8709FA5C5B4*%
%TF.FilePolarity,Negative*%
%TF.FileFunction,Soldermask,Top*%
%TF.Part,Single*%
G01*
G75*
%TA.AperFunction,ComponentPad*%
%ADD40R,1.80160X1.80160*%
%ADD41C,1.80160*%
%ADD42C,2.60320*%
%ADD43C,1.80320*%
%ADD44C,2.40002*%
%TA.AperFunction,SMDPad,CuDef*%
%ADD53R,0.64160X0.66726*%
G04:AMPARAMS|DCode=54|XSize=1.9032mm|YSize=1.0032mm|CornerRadius=0.3016mm|HoleSize=0mm|Usage=FLASHONLY|Rotation=0.000|XOffset=0mm|YOffset=0mm|HoleType=Round|Shape=RoundedRectangle|*
%AMROUNDEDRECTD54*
21,1,1.90320,0.40000,0,0,0.0*
21,1,1.30000,1.00320,0,0,0.0*
1,1,0.60320,0.65000,-0.20000*
1,1,0.60320,-0.65000,-0.20000*
1,1,0.60320,-0.65000,0.20000*
1,1,0.60320,0.65000,0.20000*
%
%ADD54ROUNDEDRECTD54*%
G04:AMPARAMS|DCode=55|XSize=0.4832mm|YSize=1.7632mm|CornerRadius=0.1716mm|HoleSize=0mm|Usage=FLASHONLY|Rotation=0.000|XOffset=0mm|YOffset=0mm|HoleType=Round|Shape=RoundedRectangle|*
%AMROUNDEDRECTD55*
21,1,0.48320,1.42000,0,0,0.0*
21,1,0.14000,1.76320,0,0,0.0*
1,1,0.34320,0.07000,-0.71000*
1,1,0.34320,-0.07000,-0.71000*
1,1,0.34320,-0.07000,0.71000*
1,1,0.34320,0.07000,0.71000*
%
%ADD55ROUNDEDRECTD55*%
G04:AMPARAMS|DCode=56|XSize=0.4832mm|YSize=1.7632mm|CornerRadius=0.1716mm|HoleSize=0mm|Usage=FLASHONLY|Rotation=90.000|XOffset=0mm|YOffset=0mm|HoleType=Round|Shape=RoundedRectangle|*
%AMROUNDEDRECTD56*
21,1,0.48320,1.42000,0,0,90.0*
21,1,0.14000,1.76320,0,0,90.0*
1,1,0.34320,0.71000,0.07000*
1,1,0.34320,0.71000,-0.07000*
1,1,0.34320,-0.71000,-0.07000*
1,1,0.34320,-0.71000,0.07000*
%
%ADD56ROUNDEDRECTD56*%
%ADD57R,1.00160X0.90160*%
%ADD58R,0.96561X0.90808*%
G04:AMPARAMS|DCode=59|XSize=1.1432mm|YSize=1.2232mm|CornerRadius=0.1956mm|HoleSize=0mm|Usage=FLASHONLY|Rotation=0.000|XOffset=0mm|YOffset=0mm|HoleType=Round|Shape=RoundedRectangle|*
%AMROUNDEDRECTD59*
21,1,1.14320,0.83200,0,0,0.0*
21,1,0.75200,1.22320,0,0,0.0*
1,1,0.39120,0.37600,-0.41600*
1,1,0.39120,-0.37600,-0.41600*
1,1,0.39120,-0.37600,0.41600*
1,1,0.39120,0.37600,0.41600*
%
%ADD59ROUNDEDRECTD59*%
%ADD60R,0.90160X1.00160*%
%ADD61R,1.90089X2.09901*%
%ADD62R,0.90808X0.96561*%
G04:AMPARAMS|DCode=63|XSize=2.1732mm|YSize=0.7932mm|CornerRadius=0.17535mm|HoleSize=0mm|Usage=FLASHONLY|Rotation=0.000|XOffset=0mm|YOffset=0mm|HoleType=Round|Shape=RoundedRectangle|*
%AMROUNDEDRECTD63*
21,1,2.17320,0.44250,0,0,0.0*
21,1,1.82250,0.79320,0,0,0.0*
1,1,0.35070,0.91125,-0.22125*
1,1,0.35070,-0.91125,-0.22125*
1,1,0.35070,-0.91125,0.22125*
1,1,0.35070,0.91125,0.22125*
%
%ADD63ROUNDEDRECTD63*%
G04:AMPARAMS|DCode=64|XSize=1.3232mm|YSize=0.4732mm|CornerRadius=0.13535mm|HoleSize=0mm|Usage=FLASHONLY|Rotation=180.000|XOffset=0mm|YOffset=0mm|HoleType=Round|Shape=RoundedRectangle|*
%AMROUNDEDRECTD64*
21,1,1.32320,0.20250,0,0,180.0*
21,1,1.05250,0.47320,0,0,180.0*
1,1,0.27070,-0.52625,0.10125*
1,1,0.27070,0.52625,0.10125*
1,1,0.27070,0.52625,-0.10125*
1,1,0.27070,-0.52625,-0.10125*
%
%ADD64ROUNDEDRECTD64*%
G04:AMPARAMS|DCode=65|XSize=1.1432mm|YSize=1.2232mm|CornerRadius=0.1956mm|HoleSize=0mm|Usage=FLASHONLY|Rotation=270.000|XOffset=0mm|YOffset=0mm|HoleType=Round|Shape=RoundedRectangle|*
%AMROUNDEDRECTD65*
21,1,1.14320,0.83200,0,0,270.0*
21,1,0.75200,1.22320,0,0,270.0*
1,1,0.39120,-0.41600,-0.37600*
1,1,0.39120,-0.41600,0.37600*
1,1,0.39120,0.41600,0.37600*
1,1,0.39120,0.41600,-0.37600*
%
%ADD65ROUNDEDRECTD65*%
G04:AMPARAMS|DCode=66|XSize=1.5016mm|YSize=1.3016mm|CornerRadius=0mm|HoleSize=0mm|Usage=FLASHONLY|Rotation=225.000|XOffset=0mm|YOffset=0mm|HoleType=Round|Shape=Rectangle|*
%AMROTATEDRECTD66*
4,1,4,0.07071,0.99108,0.99108,0.07071,-0.07071,-0.99108,-0.99108,-0.07071,0.07071,0.99108,0.0*
%
%ADD66ROTATEDRECTD66*%

G04:AMPARAMS|DCode=67|XSize=0.9016mm|YSize=1.0016mm|CornerRadius=0mm|HoleSize=0mm|Usage=FLASHONLY|Rotation=315.000|XOffset=0mm|YOffset=0mm|HoleType=Round|Shape=Rectangle|*
%AMROTATEDRECTD67*
4,1,4,-0.67288,-0.03535,0.03535,0.67288,0.67288,0.03535,-0.03535,-0.67288,-0.67288,-0.03535,0.0*
%
%ADD67ROTATEDRECTD67*%

G04:AMPARAMS|DCode=68|XSize=0.9016mm|YSize=1.0016mm|CornerRadius=0mm|HoleSize=0mm|Usage=FLASHONLY|Rotation=45.000|XOffset=0mm|YOffset=0mm|HoleType=Round|Shape=Rectangle|*
%AMROTATEDRECTD68*
4,1,4,0.03535,-0.67288,-0.67288,0.03535,-0.03535,0.67288,0.67288,-0.03535,0.03535,-0.67288,0.0*
%
%ADD68ROTATEDRECTD68*%

%ADD69R,1.30320X0.80320*%
%ADD70R,3.10319X5.60319*%
%ADD71R,1.45161X1.51160*%
%ADD72R,8.70318X11.20318*%
%ADD73R,3.28602X1.22319*%
D40*
X5473801Y2779001D02*
D03*
D41*
X5219801D02*
D03*
X4965801D02*
D03*
X4711801D02*
D03*
D42*
X508101Y1293101D02*
D03*
Y1801101D02*
D03*
D43*
X2818401Y270201D02*
D03*
Y524201D02*
D03*
X1142240Y2926400D02*
D03*
X1142241Y2672400D02*
D03*
X469940Y2938401D02*
D03*
X469941Y2684400D02*
D03*
D44*
X8026501Y315201D02*
D03*
Y823201D02*
D03*
Y1331201D02*
D03*
Y1839201D02*
D03*
Y2347201D02*
D03*
Y2855201D02*
D03*
D53*
X4963401Y2290219D02*
D03*
Y2376782D02*
D03*
X4824201Y2280519D02*
D03*
Y2367082D02*
D03*
X3575601Y408064D02*
D03*
Y321501D02*
D03*
X3451501Y407364D02*
D03*
Y320801D02*
D03*
D54*
X3414301Y2910401D02*
D03*
Y2570401D02*
D03*
X3763601Y2572001D02*
D03*
Y2912001D02*
D03*
D55*
X4513001Y1914301D02*
D03*
X4563001D02*
D03*
X4613001D02*
D03*
X4663001D02*
D03*
X4713000D02*
D03*
X4763001D02*
D03*
X4813001D02*
D03*
X4863001D02*
D03*
X4913001D02*
D03*
X4963000D02*
D03*
X5013001D02*
D03*
X5063001D02*
D03*
Y1078301D02*
D03*
X5013001D02*
D03*
X4963000D02*
D03*
X4913001D02*
D03*
X4863001D02*
D03*
X4813001D02*
D03*
X4763001D02*
D03*
X4713000D02*
D03*
X4663001D02*
D03*
X4613001D02*
D03*
X4563001D02*
D03*
X4513001D02*
D03*
D56*
X5206001Y1771301D02*
D03*
Y1721301D02*
D03*
Y1671301D02*
D03*
Y1621301D02*
D03*
Y1571301D02*
D03*
Y1521301D02*
D03*
Y1471301D02*
D03*
Y1421301D02*
D03*
Y1371301D02*
D03*
Y1321301D02*
D03*
Y1271301D02*
D03*
Y1221301D02*
D03*
X4370001D02*
D03*
Y1271301D02*
D03*
Y1321301D02*
D03*
Y1371301D02*
D03*
Y1421301D02*
D03*
Y1471301D02*
D03*
Y1521301D02*
D03*
Y1571301D02*
D03*
Y1621301D02*
D03*
Y1671301D02*
D03*
Y1721301D02*
D03*
Y1771301D02*
D03*
D57*
X3119101Y2790090D02*
D03*
Y2650111D02*
D03*
X4473985Y2249922D02*
D03*
X4473985Y2389901D02*
D03*
X5245201Y810501D02*
D03*
Y950480D02*
D03*
D58*
X2918901Y2799925D02*
D03*
Y2649277D02*
D03*
X4003101Y2639204D02*
D03*
Y2789851D02*
D03*
D59*
X3965000Y1155801D02*
D03*
X4123001Y1155801D02*
D03*
X5630001Y1801101D02*
D03*
X5472000D02*
D03*
D60*
X3977700Y978001D02*
D03*
X4117680Y978001D02*
D03*
X5619990Y1966201D02*
D03*
X5480011D02*
D03*
X2857711Y846801D02*
D03*
X2997690D02*
D03*
X3057090Y1428101D02*
D03*
X2917110D02*
D03*
D61*
X326248Y2345301D02*
D03*
X751952D02*
D03*
X384148Y658101D02*
D03*
X809852D02*
D03*
D62*
X7248924Y2418101D02*
D03*
X7098277D02*
D03*
X7249524Y2555901D02*
D03*
X7098877D02*
D03*
X6133625Y1516001D02*
D03*
X5982977D02*
D03*
X6133625Y1648401D02*
D03*
X5982977D02*
D03*
X5983877Y2172301D02*
D03*
X6134524D02*
D03*
X6132125Y2390201D02*
D03*
X5981477D02*
D03*
X6130625Y2553101D02*
D03*
X5979977D02*
D03*
X7084977Y1518201D02*
D03*
X7235624D02*
D03*
X7238424Y1663001D02*
D03*
X7087777D02*
D03*
X7099401Y2220201D02*
D03*
X7250048D02*
D03*
X6131724Y392601D02*
D03*
X5981077D02*
D03*
X6133424Y621901D02*
D03*
X5982777D02*
D03*
X6133425Y754901D02*
D03*
X5982777D02*
D03*
X6132124Y1273201D02*
D03*
X5981477D02*
D03*
X7247224Y382901D02*
D03*
X7096577D02*
D03*
X7250225Y773901D02*
D03*
X7099577D02*
D03*
X7098277Y630301D02*
D03*
X7248925D02*
D03*
X7237324Y1286001D02*
D03*
X7086677D02*
D03*
D63*
X6864300Y1521701D02*
D03*
Y1394701D02*
D03*
X6369301Y1267701D02*
D03*
Y1394701D02*
D03*
Y1521701D02*
D03*
Y1648701D02*
D03*
X6864300D02*
D03*
Y1267701D02*
D03*
Y2423401D02*
D03*
Y2296401D02*
D03*
X6369301Y2169401D02*
D03*
Y2296401D02*
D03*
Y2423401D02*
D03*
Y2550401D02*
D03*
X6864300D02*
D03*
Y2169401D02*
D03*
Y632701D02*
D03*
Y505701D02*
D03*
X6369301Y378701D02*
D03*
Y505701D02*
D03*
Y632701D02*
D03*
Y759701D02*
D03*
X6864300D02*
D03*
Y378701D02*
D03*
D64*
X6476300Y1827701D02*
D03*
Y1927701D02*
D03*
Y1977701D02*
D03*
X6757301D02*
D03*
Y1927701D02*
D03*
Y1827701D02*
D03*
X6476300Y1877701D02*
D03*
X6757301D02*
D03*
X6782701Y2779401D02*
D03*
X6501700D02*
D03*
X6782701Y2729401D02*
D03*
Y2829401D02*
D03*
Y2879401D02*
D03*
X6501700D02*
D03*
Y2829401D02*
D03*
Y2729401D02*
D03*
X6502501Y925601D02*
D03*
Y1025601D02*
D03*
Y1075601D02*
D03*
X6783501D02*
D03*
Y1025601D02*
D03*
Y925601D02*
D03*
X6502501Y975601D02*
D03*
X6783501D02*
D03*
D65*
X4304901Y2408201D02*
D03*
Y2250201D02*
D03*
X5417300Y806701D02*
D03*
Y964701D02*
D03*
D66*
X3690008Y1530719D02*
D03*
X3965792Y1566083D02*
D03*
X3845577Y1686287D02*
D03*
X3810218Y1410509D02*
D03*
D67*
X3665491Y1251211D02*
D03*
X3566510Y1350191D02*
D03*
D68*
X3667291Y1793891D02*
D03*
X3568310Y1694911D02*
D03*
D69*
X3102910Y1221496D02*
D03*
X3102910Y1031505D02*
D03*
X2842890D02*
D03*
Y1126501D02*
D03*
Y1221497D02*
D03*
D70*
X2235301Y696201D02*
D03*
X1185290D02*
D03*
D71*
X1600301Y2678998D02*
D03*
Y2879003D02*
D03*
D72*
X2267101Y1971202D02*
D03*
D73*
X1235120Y1631202D02*
D03*
X1235119Y1801202D02*
D03*
X1235120Y1971202D02*
D03*
X1235119Y2141202D02*
D03*
X1235120Y2311201D02*
D03*
%TF.MD5,16bf54d6cb9ed2397b1522e475c47f11*%
M02*
