%TF.GenerationSoftware,Altium Limited,Altium Designer,22.5.1 (42)*%
G04 Layer_Physical_Order=2*
G04 Layer_Color=16040612*
%FSLAX45Y45*%
%MOMM*%
%TF.SameCoordinates,F63A7803-94E7-494B-9888-F8709FA5C5B4*%
%TF.FilePolarity,Positive*%
%TF.FileFunction,Copper,L2,Inr,Signal*%
%TF.Part,Single*%
G01*
G75*
%TA.AperFunction,ComponentPad*%
%ADD33R,1.70000X1.70000*%
%ADD34C,1.70000*%
%ADD35C,2.40000*%
%ADD36C,1.60000*%
%ADD37C,2.30000*%
%TA.AperFunction,ViaPad*%
%ADD38C,0.60000*%
G36*
X8560000Y0D02*
X6780000D01*
Y50000D01*
X6080000D01*
Y0D01*
X5980000D01*
X5980000Y179999D01*
X5992616Y180203D01*
X6514001Y180204D01*
X6523912Y182175D01*
X6532313Y187789D01*
X7174012Y829487D01*
X7179625Y837889D01*
X7181597Y847799D01*
Y895562D01*
X7194297Y901845D01*
X7210580Y895100D01*
X7232620D01*
X7252981Y903534D01*
X7265009Y915562D01*
X7266734Y915218D01*
X7282318Y899634D01*
X7300729Y892008D01*
X7303911Y884318D01*
X7304953Y878500D01*
X7293735Y867282D01*
X7285301Y846921D01*
Y824881D01*
X7293735Y804519D01*
X7309319Y788935D01*
X7329681Y780501D01*
X7351720D01*
X7372082Y788935D01*
X7387666Y804519D01*
X7396101Y824881D01*
Y846921D01*
X7387666Y867282D01*
X7372082Y882867D01*
X7353672Y890493D01*
X7350489Y898183D01*
X7349448Y904001D01*
X7360666Y915219D01*
X7369100Y935580D01*
Y957620D01*
X7360666Y977982D01*
X7345081Y993566D01*
X7324720Y1002000D01*
X7302680D01*
X7282318Y993566D01*
X7270291Y981539D01*
X7268566Y981882D01*
X7252981Y997466D01*
X7232620Y1005900D01*
X7210580D01*
X7194297Y999155D01*
X7181597Y1005438D01*
Y1031362D01*
X7194297Y1039051D01*
X7208180Y1033300D01*
X7230220D01*
X7250581Y1041734D01*
X7254476Y1045629D01*
X7272118Y1045310D01*
X7279493Y1037934D01*
X7299855Y1029500D01*
X7321894D01*
X7342256Y1037934D01*
X7357841Y1053519D01*
X7366275Y1073880D01*
Y1095920D01*
X7357841Y1116281D01*
X7342256Y1131866D01*
X7321894Y1140300D01*
X7299855D01*
X7279493Y1131866D01*
X7275598Y1127971D01*
X7257957Y1128290D01*
X7250581Y1135666D01*
X7230220Y1144100D01*
X7208180D01*
X7194297Y1138349D01*
X7181597Y1146038D01*
X7181598Y1879602D01*
X7194298Y1884862D01*
X7203193Y1875966D01*
X7223555Y1867532D01*
X7245595D01*
X7265956Y1875966D01*
X7279025Y1889035D01*
X7292093Y1875966D01*
X7312455Y1867532D01*
X7334495D01*
X7354856Y1875966D01*
X7370441Y1891551D01*
X7378875Y1911912D01*
Y1933952D01*
X7370441Y1954314D01*
X7357372Y1967382D01*
X7370441Y1980451D01*
X7378875Y2000812D01*
Y2022852D01*
X7370441Y2043214D01*
X7354856Y2058798D01*
X7334495Y2067232D01*
X7312455D01*
X7292093Y2058798D01*
X7279025Y2045730D01*
X7265957Y2058798D01*
X7245595Y2067232D01*
X7223555D01*
X7203194Y2058798D01*
X7194298Y2049902D01*
X7181598Y2055163D01*
Y2062008D01*
X7181285Y2063581D01*
X7181402Y2065182D01*
X7180307Y2068496D01*
X7179626Y2071919D01*
X7178735Y2073253D01*
X7178231Y2074776D01*
X7175951Y2077419D01*
X7174012Y2080320D01*
X7172678Y2081212D01*
X7171630Y2082427D01*
X7168512Y2083996D01*
X7165611Y2085934D01*
X7164037Y2086247D01*
X7162603Y2086969D01*
X7151888Y2089932D01*
X7151801Y2089939D01*
Y2103663D01*
X7151887Y2103669D01*
X7162603Y2106633D01*
X7164036Y2107354D01*
X7165611Y2107667D01*
X7168513Y2109606D01*
X7171629Y2111174D01*
X7172678Y2112389D01*
X7174012Y2113281D01*
X7175952Y2116183D01*
X7178231Y2118824D01*
X7178734Y2120348D01*
X7179626Y2121683D01*
X7180307Y2125105D01*
X7181402Y2128418D01*
X7181284Y2130019D01*
X7181598Y2131593D01*
X7181598Y2814901D01*
X7179627Y2824811D01*
X7174013Y2833213D01*
X7165611Y2838827D01*
X7155700Y2840798D01*
X6937840D01*
X6931806Y2839598D01*
X6925550Y2851303D01*
X6925867Y2851619D01*
X6934301Y2871981D01*
Y2894021D01*
X6925867Y2914382D01*
X6918998Y2921251D01*
X6926666Y2928918D01*
X6935100Y2949280D01*
Y2971320D01*
X6926666Y2991681D01*
X6911081Y3007266D01*
X6890720Y3015700D01*
X6868680D01*
X6848319Y3007266D01*
X6832734Y2991681D01*
X6824300Y2971320D01*
Y2949280D01*
X6832734Y2928918D01*
X6839603Y2922050D01*
X6831935Y2914382D01*
X6823501Y2894021D01*
Y2871981D01*
X6831156Y2853498D01*
X6828179Y2845928D01*
X6824795Y2840798D01*
X6685146D01*
X6682289Y2852025D01*
X6682246Y2853498D01*
X6697566Y2868818D01*
X6706000Y2889180D01*
Y2911220D01*
X6697566Y2931581D01*
X6685747Y2943400D01*
X6690766Y2948419D01*
X6699200Y2968780D01*
Y2990820D01*
X6690766Y3011181D01*
X6675181Y3026766D01*
X6654820Y3035200D01*
X6632780D01*
X6612419Y3026766D01*
X6596834Y3011181D01*
X6588400Y2990820D01*
Y2968780D01*
X6596834Y2948419D01*
X6608653Y2936600D01*
X6603634Y2931581D01*
X6595200Y2911220D01*
Y2889180D01*
X6603634Y2868818D01*
X6618954Y2853498D01*
X6618911Y2852025D01*
X6616054Y2840798D01*
X6065900D01*
X6055990Y2838827D01*
X6047588Y2833213D01*
X5807572Y2593197D01*
X5801958Y2584795D01*
X5799987Y2574885D01*
X5799987Y1383175D01*
X5798100Y1378620D01*
Y1356580D01*
X5799987Y1352025D01*
Y1186012D01*
X5418492Y804517D01*
X5417075Y802396D01*
X5415271Y800593D01*
X5414295Y798236D01*
X5412878Y796115D01*
X5412381Y793613D01*
X5411404Y791257D01*
Y788706D01*
X5410907Y786205D01*
X5398619Y782912D01*
X5393005Y791313D01*
X5384603Y796927D01*
X5374693Y798898D01*
X5290307D01*
X5280396Y796927D01*
X5271995Y791313D01*
X5266381Y782912D01*
X5262997Y774744D01*
X5255620Y777800D01*
X5233580D01*
X5226202Y774744D01*
X5222819Y782912D01*
X5217205Y791313D01*
X5208803Y796927D01*
X5198893Y798898D01*
X3131839D01*
X3126979Y810632D01*
X3127166Y810819D01*
X3135600Y831180D01*
Y853220D01*
X3127166Y873581D01*
X3111582Y889166D01*
X3091220Y897600D01*
X3069180D01*
X3048819Y889166D01*
X3033234Y873581D01*
X3024800Y853220D01*
Y831180D01*
X3033234Y810819D01*
X3033421Y810632D01*
X3028561Y798898D01*
X2414500D01*
X2404589Y796927D01*
X2396187Y791313D01*
X2390573Y782911D01*
X2388602Y773001D01*
X2388603Y206100D01*
X2390575Y196189D01*
X2396189Y187788D01*
X2404590Y182174D01*
X2414501Y180202D01*
X2721004D01*
X2724326Y180863D01*
X2727707Y181085D01*
X2729239Y181840D01*
X2730914Y182174D01*
X2733731Y184056D01*
X2736769Y185554D01*
X2742305Y187627D01*
X2750502Y187187D01*
X2753433Y186111D01*
X2753683Y185860D01*
X2777718Y171984D01*
X2804524Y164801D01*
X2832277D01*
X2859083Y171984D01*
X2883118Y185860D01*
X2883368Y186111D01*
X2886301Y187188D01*
X2894493Y187627D01*
X2900032Y185554D01*
X2903071Y184056D01*
X2905887Y182174D01*
X2907562Y181841D01*
X2909095Y181085D01*
X2912475Y180863D01*
X2915797Y180203D01*
X4217384Y180203D01*
X4230000Y167503D01*
Y0D01*
X2480000D01*
Y50000D01*
X1780000D01*
Y0D01*
X0D01*
Y3160000D01*
X1780000D01*
Y3109999D01*
X2480000D01*
Y3160000D01*
X4230000D01*
Y2980000D01*
X4480000D01*
Y3160000D01*
X4580000D01*
Y2980000D01*
X5630000D01*
Y3160000D01*
X5730000D01*
Y2980000D01*
X5980000D01*
Y3160000D01*
X6080000D01*
Y3109999D01*
X6780000D01*
Y3160000D01*
X8560000D01*
Y0D01*
D02*
G37*
G36*
X7155700Y2131593D02*
X7144984Y2128630D01*
X7143000Y2128549D01*
X7127782Y2143767D01*
X7107420Y2152201D01*
X7085381D01*
X7065019Y2143767D01*
X7049435Y2128182D01*
X7041001Y2107821D01*
Y2085781D01*
X7049435Y2065419D01*
X7065019Y2049835D01*
X7085381Y2041401D01*
X7107420D01*
X7127782Y2049835D01*
X7143000Y2065053D01*
X7144984Y2064972D01*
X7155700Y2062008D01*
X7155699Y847799D01*
X6514001Y206101D01*
X2915797Y206100D01*
X2909447Y217099D01*
X2916617Y229518D01*
X2923800Y256325D01*
Y284077D01*
X2916617Y310884D01*
X2902741Y334918D01*
X2883118Y354542D01*
X2859083Y368418D01*
X2832277Y375601D01*
X2804524D01*
X2777718Y368418D01*
X2753683Y354542D01*
X2734060Y334918D01*
X2720184Y310884D01*
X2713001Y284077D01*
Y256325D01*
X2720184Y229518D01*
X2727354Y217099D01*
X2721004Y206100D01*
X2414501D01*
X2414500Y773001D01*
X5198893D01*
X5204153Y760301D01*
X5197634Y753781D01*
X5189200Y733420D01*
Y711380D01*
X5197634Y691018D01*
X5213218Y675434D01*
X5233580Y667000D01*
X5255620D01*
X5275981Y675434D01*
X5291566Y691018D01*
X5300000Y711380D01*
Y733420D01*
X5291566Y753781D01*
X5285046Y760301D01*
X5290307Y773001D01*
X5374693D01*
X5379953Y760301D01*
X5371234Y751581D01*
X5362800Y731220D01*
Y709180D01*
X5371234Y688819D01*
X5386819Y673234D01*
X5407180Y664800D01*
X5429220D01*
X5449581Y673234D01*
X5465166Y688819D01*
X5473600Y709180D01*
Y731220D01*
X5465166Y751581D01*
X5449581Y767166D01*
X5439784Y771224D01*
X5436804Y786205D01*
X5825884Y1175285D01*
X5825884Y2574885D01*
X6065900Y2814901D01*
X6836360D01*
X6841220Y2803168D01*
X6840134Y2802082D01*
X6831700Y2781720D01*
Y2759680D01*
X6840134Y2739319D01*
X6855719Y2723734D01*
X6876080Y2715300D01*
X6898120D01*
X6918481Y2723734D01*
X6934066Y2739319D01*
X6942500Y2759680D01*
Y2781720D01*
X6934066Y2802082D01*
X6932980Y2803168D01*
X6937840Y2814901D01*
X7155700D01*
X7155700Y2131593D01*
D02*
G37*
%LPC*%
G36*
X7333795Y3017932D02*
X7311755D01*
X7291393Y3009498D01*
X7278325Y2996429D01*
X7265256Y3009498D01*
X7244895Y3017932D01*
X7222855D01*
X7202494Y3009498D01*
X7186909Y2993913D01*
X7178475Y2973552D01*
Y2951512D01*
X7186909Y2931151D01*
X7199977Y2918082D01*
X7186909Y2905013D01*
X7178475Y2884652D01*
Y2862612D01*
X7186909Y2842251D01*
X7202493Y2826666D01*
X7222855Y2818232D01*
X7244895D01*
X7265256Y2826666D01*
X7278325Y2839735D01*
X7291393Y2826666D01*
X7311755Y2818232D01*
X7333795D01*
X7354156Y2826666D01*
X7369741Y2842251D01*
X7378175Y2862612D01*
Y2884652D01*
X7369741Y2905013D01*
X7356672Y2918082D01*
X7369741Y2931151D01*
X7378175Y2951512D01*
Y2973552D01*
X7369741Y2993913D01*
X7354156Y3009498D01*
X7333795Y3017932D01*
D02*
G37*
G36*
X1936794Y2985332D02*
X1914755D01*
X1894393Y2976898D01*
X1881325Y2963829D01*
X1868256Y2976898D01*
X1847895Y2985332D01*
X1825855D01*
X1805493Y2976898D01*
X1789909Y2961314D01*
X1781475Y2940952D01*
Y2918912D01*
X1789909Y2898551D01*
X1802977Y2885482D01*
X1789909Y2872414D01*
X1781475Y2852052D01*
Y2830012D01*
X1789909Y2809651D01*
X1805493Y2794066D01*
X1825855Y2785632D01*
X1847894D01*
X1868256Y2794066D01*
X1881325Y2807135D01*
X1894393Y2794066D01*
X1914755Y2785632D01*
X1936794D01*
X1957156Y2794066D01*
X1972741Y2809651D01*
X1981175Y2830012D01*
Y2852052D01*
X1972741Y2872414D01*
X1959672Y2885482D01*
X1972741Y2898551D01*
X1981175Y2918912D01*
Y2940952D01*
X1972741Y2961314D01*
X1957156Y2976898D01*
X1936794Y2985332D01*
D02*
G37*
G36*
X483817Y3043800D02*
X456064D01*
X429257Y3036617D01*
X405223Y3022741D01*
X385599Y3003118D01*
X371723Y2979083D01*
X364541Y2952277D01*
Y2924524D01*
X371723Y2897718D01*
X385599Y2873683D01*
X405223Y2854060D01*
X429257Y2840184D01*
X456064Y2833001D01*
X483817D01*
X510623Y2840184D01*
X534658Y2854060D01*
X554281Y2873683D01*
X568157Y2897718D01*
X575340Y2924524D01*
Y2952277D01*
X568157Y2979083D01*
X554281Y3003118D01*
X534658Y3022741D01*
X510623Y3036617D01*
X483817Y3043800D01*
D02*
G37*
G36*
X1156116Y3031800D02*
X1128364D01*
X1101557Y3024617D01*
X1077523Y3010741D01*
X1057899Y2991117D01*
X1044023Y2967083D01*
X1036840Y2940277D01*
Y2912524D01*
X1044023Y2885717D01*
X1057899Y2861683D01*
X1077523Y2842059D01*
X1101557Y2828183D01*
X1128364Y2821000D01*
X1156116D01*
X1182923Y2828183D01*
X1206957Y2842059D01*
X1226581Y2861683D01*
X1240457Y2885717D01*
X1247640Y2912524D01*
Y2940277D01*
X1240457Y2967083D01*
X1226581Y2991117D01*
X1206957Y3010741D01*
X1182923Y3024617D01*
X1156116Y3031800D01*
D02*
G37*
G36*
X3130720Y2929501D02*
X3108681D01*
X3088319Y2921067D01*
X3072735Y2905482D01*
X3064301Y2885120D01*
Y2863081D01*
X3072735Y2842719D01*
X3088319Y2827135D01*
X3108681Y2818701D01*
X3130720D01*
X3151082Y2827135D01*
X3166667Y2842719D01*
X3175101Y2863081D01*
Y2885120D01*
X3166667Y2905482D01*
X3151082Y2921067D01*
X3130720Y2929501D01*
D02*
G37*
G36*
X3421720Y2892800D02*
X3399680D01*
X3379319Y2884366D01*
X3363734Y2868782D01*
X3355300Y2848420D01*
Y2826380D01*
X3363734Y2806019D01*
X3379319Y2790434D01*
X3399680Y2782000D01*
X3421720D01*
X3442082Y2790434D01*
X3457666Y2806019D01*
X3466100Y2826380D01*
Y2848420D01*
X3457666Y2868782D01*
X3442082Y2884366D01*
X3421720Y2892800D01*
D02*
G37*
G36*
X8044985Y2995601D02*
X8008016D01*
X7972308Y2986033D01*
X7940293Y2967549D01*
X7914153Y2941408D01*
X7895669Y2909393D01*
X7886101Y2873685D01*
Y2836717D01*
X7895669Y2801008D01*
X7914153Y2768993D01*
X7940293Y2742853D01*
X7972308Y2724369D01*
X8008016Y2714801D01*
X8044985D01*
X8080693Y2724369D01*
X8112708Y2742853D01*
X8138848Y2768993D01*
X8157332Y2801008D01*
X8166900Y2836717D01*
Y2873685D01*
X8157332Y2909393D01*
X8138848Y2941408D01*
X8112708Y2967549D01*
X8080693Y2986033D01*
X8044985Y2995601D01*
D02*
G37*
G36*
X5234335Y2889401D02*
X5205266D01*
X5177188Y2881877D01*
X5152013Y2867343D01*
X5131459Y2846788D01*
X5116924Y2821614D01*
X5109401Y2793535D01*
Y2764466D01*
X5116924Y2736388D01*
X5131459Y2711214D01*
X5152013Y2690659D01*
X5177188Y2676124D01*
X5205266Y2668601D01*
X5234335D01*
X5262413Y2676124D01*
X5287588Y2690659D01*
X5308143Y2711214D01*
X5322677Y2736388D01*
X5330200Y2764466D01*
Y2793535D01*
X5322677Y2821614D01*
X5308143Y2846788D01*
X5287588Y2867343D01*
X5262413Y2881877D01*
X5234335Y2889401D01*
D02*
G37*
G36*
X4980335D02*
X4951266D01*
X4923188Y2881877D01*
X4898013Y2867343D01*
X4877459Y2846788D01*
X4862924Y2821614D01*
X4855401Y2793535D01*
Y2764466D01*
X4862924Y2736388D01*
X4877459Y2711214D01*
X4898013Y2690659D01*
X4923188Y2676124D01*
X4951266Y2668601D01*
X4980335D01*
X5008413Y2676124D01*
X5033588Y2690659D01*
X5054143Y2711214D01*
X5068677Y2736388D01*
X5076200Y2764466D01*
Y2793535D01*
X5068677Y2821614D01*
X5054143Y2846788D01*
X5033588Y2867343D01*
X5008413Y2881877D01*
X4980335Y2889401D01*
D02*
G37*
G36*
X4726335D02*
X4697266D01*
X4669188Y2881877D01*
X4644013Y2867343D01*
X4623459Y2846788D01*
X4608924Y2821614D01*
X4601401Y2793535D01*
Y2764466D01*
X4608924Y2736388D01*
X4623459Y2711214D01*
X4644013Y2690659D01*
X4669188Y2676124D01*
X4697266Y2668601D01*
X4726335D01*
X4754413Y2676124D01*
X4779588Y2690659D01*
X4800143Y2711214D01*
X4814677Y2736388D01*
X4822200Y2764466D01*
Y2793535D01*
X4814677Y2821614D01*
X4800143Y2846788D01*
X4779588Y2867343D01*
X4754413Y2881877D01*
X4726335Y2889401D01*
D02*
G37*
G36*
X483817Y2789800D02*
X456064D01*
X429258Y2782617D01*
X405223Y2768741D01*
X385600Y2749117D01*
X371724Y2725083D01*
X364541Y2698277D01*
Y2670524D01*
X371724Y2643717D01*
X385600Y2619683D01*
X405223Y2600059D01*
X429258Y2586183D01*
X456064Y2579000D01*
X483817D01*
X510624Y2586183D01*
X534658Y2600059D01*
X554282Y2619683D01*
X568158Y2643717D01*
X575340Y2670524D01*
Y2698277D01*
X568158Y2725083D01*
X554282Y2749117D01*
X534658Y2768741D01*
X510624Y2782617D01*
X483817Y2789800D01*
D02*
G37*
G36*
X1156117Y2777800D02*
X1128364D01*
X1101558Y2770617D01*
X1077523Y2756741D01*
X1057900Y2737117D01*
X1044024Y2713083D01*
X1036841Y2686277D01*
Y2658524D01*
X1044024Y2631717D01*
X1057900Y2607683D01*
X1077523Y2588059D01*
X1101558Y2574183D01*
X1128364Y2567000D01*
X1156117D01*
X1182923Y2574183D01*
X1206958Y2588059D01*
X1226581Y2607683D01*
X1240458Y2631717D01*
X1247640Y2658524D01*
Y2686277D01*
X1240458Y2713083D01*
X1226581Y2737117D01*
X1206958Y2756741D01*
X1182923Y2770617D01*
X1156117Y2777800D01*
D02*
G37*
G36*
X7348020Y2766800D02*
X7325980D01*
X7305619Y2758366D01*
X7290034Y2742781D01*
X7281600Y2722420D01*
Y2700380D01*
X7290034Y2680019D01*
X7305618Y2664434D01*
X7306207Y2661477D01*
X7293712Y2648982D01*
X7285278Y2628621D01*
Y2606581D01*
X7293712Y2586219D01*
X7309296Y2570635D01*
X7329658Y2562201D01*
X7351697D01*
X7372059Y2570635D01*
X7387643Y2586219D01*
X7396077Y2606581D01*
Y2628621D01*
X7387643Y2648982D01*
X7372059Y2664566D01*
X7371471Y2667523D01*
X7383966Y2680019D01*
X7392400Y2700380D01*
Y2722420D01*
X7383966Y2742781D01*
X7368382Y2758366D01*
X7348020Y2766800D01*
D02*
G37*
G36*
X4013420Y2617200D02*
X3991380D01*
X3971018Y2608766D01*
X3955434Y2593182D01*
X3947000Y2572820D01*
Y2550780D01*
X3955434Y2530419D01*
X3971018Y2514834D01*
X3991380Y2506400D01*
X4013420D01*
X4033781Y2514834D01*
X4049366Y2530419D01*
X4057800Y2550780D01*
Y2572820D01*
X4049366Y2593182D01*
X4033781Y2608766D01*
X4013420Y2617200D01*
D02*
G37*
G36*
X4316120Y2547000D02*
X4294080D01*
X4273719Y2538566D01*
X4258134Y2522981D01*
X4249700Y2502620D01*
Y2480580D01*
X4258134Y2460219D01*
X4273719Y2444634D01*
X4294080Y2436200D01*
X4316120D01*
X4336482Y2444634D01*
X4352066Y2460219D01*
X4360500Y2480580D01*
Y2502620D01*
X4352066Y2522981D01*
X4336482Y2538566D01*
X4316120Y2547000D01*
D02*
G37*
G36*
X4487720Y2537400D02*
X4465680D01*
X4445319Y2528966D01*
X4429734Y2513382D01*
X4421300Y2493020D01*
Y2470980D01*
X4429734Y2450619D01*
X4445319Y2435034D01*
X4465680Y2426600D01*
X4487720D01*
X4508081Y2435034D01*
X4523666Y2450619D01*
X4532100Y2470980D01*
Y2493020D01*
X4523666Y2513382D01*
X4508081Y2528966D01*
X4487720Y2537400D01*
D02*
G37*
G36*
X5518395Y2427432D02*
X5496355D01*
X5475993Y2418998D01*
X5462925Y2405930D01*
X5449857Y2418998D01*
X5429495Y2427432D01*
X5407455D01*
X5387094Y2418998D01*
X5371509Y2403414D01*
X5363075Y2383052D01*
Y2361012D01*
X5371509Y2340651D01*
X5384577Y2327582D01*
X5371509Y2314514D01*
X5363075Y2294152D01*
Y2272112D01*
X5371509Y2251751D01*
X5387093Y2236166D01*
X5407455Y2227732D01*
X5429495D01*
X5449856Y2236166D01*
X5462925Y2249235D01*
X5475993Y2236166D01*
X5496355Y2227732D01*
X5518395D01*
X5538756Y2236166D01*
X5554341Y2251751D01*
X5562775Y2272112D01*
Y2294152D01*
X5554341Y2314514D01*
X5541272Y2327582D01*
X5554341Y2340651D01*
X5562775Y2361012D01*
Y2383052D01*
X5554341Y2403414D01*
X5538756Y2418998D01*
X5518395Y2427432D01*
D02*
G37*
G36*
X8044985Y2487601D02*
X8008016D01*
X7972308Y2478033D01*
X7940293Y2459549D01*
X7914153Y2433408D01*
X7895669Y2401393D01*
X7886101Y2365685D01*
Y2328717D01*
X7895669Y2293008D01*
X7914153Y2260993D01*
X7940293Y2234853D01*
X7972308Y2216369D01*
X8008016Y2206801D01*
X8044985D01*
X8080693Y2216369D01*
X8112708Y2234853D01*
X8138848Y2260993D01*
X8157332Y2293008D01*
X8166900Y2328717D01*
Y2365685D01*
X8157332Y2401393D01*
X8138848Y2433408D01*
X8112708Y2459549D01*
X8080693Y2478033D01*
X8044985Y2487601D01*
D02*
G37*
G36*
X4836720Y2274400D02*
X4814680D01*
X4794319Y2265966D01*
X4778734Y2250381D01*
X4770300Y2230020D01*
Y2207980D01*
X4778734Y2187618D01*
X4794319Y2172034D01*
X4814680Y2163600D01*
X4836720D01*
X4857081Y2172034D01*
X4872666Y2187618D01*
X4881100Y2207980D01*
Y2230020D01*
X4872666Y2250381D01*
X4857081Y2265966D01*
X4836720Y2274400D01*
D02*
G37*
G36*
X2982920Y2233267D02*
X2960881D01*
X2940519Y2224833D01*
X2924935Y2209249D01*
X2916501Y2188887D01*
Y2166847D01*
X2924935Y2146486D01*
X2940519Y2130901D01*
X2960881Y2122467D01*
X2982920D01*
X3003282Y2130901D01*
X3018866Y2146486D01*
X3027301Y2166847D01*
Y2188887D01*
X3018866Y2209249D01*
X3003282Y2224833D01*
X2982920Y2233267D01*
D02*
G37*
G36*
X2767020D02*
X2744981D01*
X2724619Y2224833D01*
X2709035Y2209249D01*
X2700601Y2188887D01*
Y2166847D01*
X2709035Y2146486D01*
X2724619Y2130901D01*
X2744981Y2122467D01*
X2767020D01*
X2787382Y2130901D01*
X2802966Y2146486D01*
X2811401Y2166847D01*
Y2188887D01*
X2802966Y2209249D01*
X2787382Y2224833D01*
X2767020Y2233267D01*
D02*
G37*
G36*
X4607620Y2120300D02*
X4585580D01*
X4565218Y2111866D01*
X4549634Y2096282D01*
X4541200Y2075920D01*
Y2053880D01*
X4549634Y2033519D01*
X4565218Y2017934D01*
X4585580Y2009500D01*
X4607620D01*
X4627981Y2017934D01*
X4643566Y2033519D01*
X4652000Y2053880D01*
Y2075920D01*
X4643566Y2096282D01*
X4627981Y2111866D01*
X4607620Y2120300D01*
D02*
G37*
G36*
X5709720Y2077100D02*
X5687680D01*
X5667319Y2068666D01*
X5651734Y2053081D01*
X5643300Y2032720D01*
Y2010680D01*
X5651734Y1990319D01*
X5667319Y1974734D01*
X5687680Y1966300D01*
X5709720D01*
X5730082Y1974734D01*
X5745666Y1990319D01*
X5754100Y2010680D01*
Y2032720D01*
X5745666Y2053081D01*
X5730082Y2068666D01*
X5709720Y2077100D01*
D02*
G37*
G36*
X2982920Y2051234D02*
X2960881D01*
X2940519Y2042800D01*
X2924935Y2027215D01*
X2916501Y2006854D01*
Y1984814D01*
X2924935Y1964453D01*
X2940519Y1948868D01*
X2960881Y1940434D01*
X2982920D01*
X3003282Y1948868D01*
X3018866Y1964453D01*
X3027301Y1984814D01*
Y2006854D01*
X3018866Y2027215D01*
X3003282Y2042800D01*
X2982920Y2051234D01*
D02*
G37*
G36*
X2767020D02*
X2744981D01*
X2724619Y2042800D01*
X2709035Y2027215D01*
X2700601Y2006854D01*
Y1984814D01*
X2709035Y1964453D01*
X2724619Y1948868D01*
X2744981Y1940434D01*
X2767020D01*
X2787382Y1948868D01*
X2802966Y1964453D01*
X2811401Y1984814D01*
Y2006854D01*
X2802966Y2027215D01*
X2787382Y2042800D01*
X2767020Y2051234D01*
D02*
G37*
G36*
X1454820Y2120201D02*
X1432781D01*
X1412419Y2111767D01*
X1396835Y2096182D01*
X1388401Y2075821D01*
Y2053781D01*
X1396835Y2033419D01*
X1403257Y2026997D01*
X1408419Y2015567D01*
X1403257Y2010404D01*
X1392835Y1999982D01*
X1384401Y1979621D01*
Y1957581D01*
X1392835Y1937219D01*
X1408419Y1921635D01*
X1428781Y1913201D01*
X1450820D01*
X1471182Y1921635D01*
X1486766Y1937219D01*
X1495200Y1957581D01*
Y1979621D01*
X1486766Y1999982D01*
X1480345Y2006404D01*
X1475182Y2017835D01*
X1480345Y2022997D01*
X1490766Y2033419D01*
X1499200Y2053781D01*
Y2075821D01*
X1490766Y2096182D01*
X1475182Y2111767D01*
X1454820Y2120201D01*
D02*
G37*
G36*
X1581820D02*
X1559781D01*
X1539419Y2111767D01*
X1523835Y2096182D01*
X1515401Y2075821D01*
Y2053781D01*
X1523835Y2033419D01*
X1530257Y2026997D01*
X1535419Y2015567D01*
X1530257Y2010404D01*
X1519835Y1999982D01*
X1511401Y1979621D01*
Y1957581D01*
X1519835Y1937219D01*
X1535419Y1921635D01*
X1555781Y1913201D01*
X1577820D01*
X1598182Y1921635D01*
X1613766Y1937219D01*
X1618739Y1949226D01*
X1632486D01*
X1638109Y1935651D01*
X1653693Y1920066D01*
X1674055Y1911632D01*
X1696095D01*
X1716456Y1920066D01*
X1729525Y1933135D01*
X1742593Y1920066D01*
X1762955Y1911632D01*
X1784995D01*
X1805356Y1920066D01*
X1820941Y1935651D01*
X1829375Y1956012D01*
Y1978052D01*
X1820941Y1998414D01*
X1807872Y2011482D01*
X1820941Y2024551D01*
X1829375Y2044912D01*
Y2066952D01*
X1820941Y2087314D01*
X1805356Y2102898D01*
X1784995Y2111332D01*
X1762955D01*
X1742593Y2102898D01*
X1729525Y2089830D01*
X1716457Y2102898D01*
X1696095Y2111332D01*
X1674055D01*
X1653694Y2102898D01*
X1638109Y2087314D01*
X1636648Y2083786D01*
X1622901D01*
X1617766Y2096182D01*
X1602182Y2111767D01*
X1581820Y2120201D01*
D02*
G37*
G36*
X2982920Y1869201D02*
X2960881D01*
X2940519Y1860767D01*
X2924935Y1845182D01*
X2916501Y1824821D01*
Y1802781D01*
X2924935Y1782419D01*
X2940519Y1766835D01*
X2960881Y1758401D01*
X2982920D01*
X3003282Y1766835D01*
X3018866Y1782419D01*
X3027301Y1802781D01*
Y1824821D01*
X3018866Y1845182D01*
X3003282Y1860767D01*
X2982920Y1869201D01*
D02*
G37*
G36*
X2767020D02*
X2744981D01*
X2724619Y1860767D01*
X2709035Y1845182D01*
X2700601Y1824821D01*
Y1802781D01*
X2709035Y1782419D01*
X2724619Y1766835D01*
X2744981Y1758401D01*
X2767020D01*
X2787382Y1766835D01*
X2802966Y1782419D01*
X2811401Y1802781D01*
Y1824821D01*
X2802966Y1845182D01*
X2787382Y1860767D01*
X2767020Y1869201D01*
D02*
G37*
G36*
X5715820Y1867600D02*
X5693780D01*
X5673418Y1859166D01*
X5657834Y1843582D01*
X5649400Y1823220D01*
Y1801180D01*
X5657834Y1780819D01*
X5673418Y1765234D01*
X5693780Y1756800D01*
X5715820D01*
X5736181Y1765234D01*
X5751766Y1780819D01*
X5760200Y1801180D01*
Y1823220D01*
X5751766Y1843582D01*
X5736181Y1859166D01*
X5715820Y1867600D01*
D02*
G37*
G36*
X8044985Y1979601D02*
X8008016D01*
X7972308Y1970033D01*
X7940293Y1951549D01*
X7914153Y1925408D01*
X7895669Y1893393D01*
X7886101Y1857685D01*
Y1820717D01*
X7895669Y1785008D01*
X7914153Y1752993D01*
X7940293Y1726853D01*
X7972308Y1708369D01*
X8008016Y1698801D01*
X8044985D01*
X8080693Y1708369D01*
X8112708Y1726853D01*
X8138848Y1752993D01*
X8157332Y1785008D01*
X8166900Y1820717D01*
Y1857685D01*
X8157332Y1893393D01*
X8138848Y1925408D01*
X8112708Y1951549D01*
X8080693Y1970033D01*
X8044985Y1979601D01*
D02*
G37*
G36*
X527243Y1946501D02*
X488958D01*
X451978Y1936592D01*
X418823Y1917450D01*
X391752Y1890378D01*
X372609Y1857223D01*
X362701Y1820243D01*
Y1781959D01*
X372609Y1744978D01*
X391752Y1711823D01*
X418823Y1684752D01*
X451978Y1665610D01*
X488958Y1655701D01*
X527243D01*
X564223Y1665610D01*
X597378Y1684752D01*
X624449Y1711823D01*
X643592Y1744978D01*
X653500Y1781959D01*
Y1820243D01*
X643592Y1857223D01*
X624449Y1890378D01*
X597378Y1917450D01*
X564223Y1936592D01*
X527243Y1946501D01*
D02*
G37*
G36*
X5362120Y1740000D02*
X5340080D01*
X5319719Y1731566D01*
X5304134Y1715981D01*
X5295700Y1695620D01*
Y1673580D01*
X5304134Y1653218D01*
X5319719Y1637634D01*
X5340080Y1629200D01*
X5362120D01*
X5382481Y1637634D01*
X5398066Y1653218D01*
X5406500Y1673580D01*
Y1695620D01*
X5398066Y1715981D01*
X5382481Y1731566D01*
X5362120Y1740000D01*
D02*
G37*
G36*
X7335020Y1720501D02*
X7312981D01*
X7292619Y1712067D01*
X7277035Y1696482D01*
X7268601Y1676121D01*
Y1654081D01*
X7277035Y1633719D01*
X7292619Y1618135D01*
X7312981Y1609701D01*
X7335020D01*
X7355382Y1618135D01*
X7370966Y1633719D01*
X7379401Y1654081D01*
Y1676121D01*
X7370966Y1696482D01*
X7355382Y1712067D01*
X7335020Y1720501D01*
D02*
G37*
G36*
X4163720Y1717300D02*
X4141680D01*
X4121319Y1708866D01*
X4105734Y1693281D01*
X4097300Y1672920D01*
Y1650880D01*
X4105734Y1630518D01*
X4121319Y1614934D01*
X4141680Y1606500D01*
X4163720D01*
X4184082Y1614934D01*
X4199666Y1630518D01*
X4208100Y1650880D01*
Y1672920D01*
X4199666Y1693281D01*
X4184082Y1708866D01*
X4163720Y1717300D01*
D02*
G37*
G36*
X5040320Y1602501D02*
X5018281D01*
X4997919Y1594067D01*
X4986250Y1582397D01*
X4977081Y1591566D01*
X4956720Y1600000D01*
X4934680D01*
X4914319Y1591566D01*
X4898734Y1575981D01*
X4895635Y1568499D01*
X4881888D01*
X4881841Y1568614D01*
X4866256Y1584198D01*
X4845895Y1592632D01*
X4823855D01*
X4803493Y1584198D01*
X4790425Y1571130D01*
X4777356Y1584198D01*
X4756995Y1592632D01*
X4734955D01*
X4714594Y1584198D01*
X4699009Y1568614D01*
X4690575Y1548252D01*
Y1526212D01*
X4699009Y1505851D01*
X4712077Y1492782D01*
X4699009Y1479714D01*
X4690575Y1459352D01*
Y1437312D01*
X4699009Y1416951D01*
X4714593Y1401366D01*
X4725385Y1396896D01*
Y1383150D01*
X4714318Y1378566D01*
X4707470Y1371717D01*
X4689610Y1371616D01*
X4685148Y1376078D01*
X4664787Y1384512D01*
X4642747D01*
X4622385Y1376078D01*
X4606801Y1360494D01*
X4598367Y1340132D01*
Y1318092D01*
X4606801Y1297731D01*
X4622385Y1282146D01*
X4642747Y1273712D01*
X4664787D01*
X4685148Y1282146D01*
X4691997Y1288995D01*
X4709856Y1289096D01*
X4714318Y1284634D01*
X4734680Y1276200D01*
X4756720D01*
X4777081Y1284634D01*
X4792666Y1300219D01*
X4801100Y1320580D01*
Y1342620D01*
X4792666Y1362982D01*
X4777081Y1378566D01*
X4766290Y1383036D01*
Y1396782D01*
X4777356Y1401366D01*
X4790425Y1414435D01*
X4803493Y1401366D01*
X4823855Y1392932D01*
X4845895D01*
X4866256Y1401366D01*
X4881841Y1416951D01*
X4882538Y1418634D01*
X4896284D01*
X4898734Y1412719D01*
X4914319Y1397135D01*
X4934680Y1388701D01*
X4956720D01*
X4977081Y1397135D01*
X4988200Y1408254D01*
X4997919Y1398535D01*
X5018281Y1390101D01*
X5040320D01*
X5060682Y1398535D01*
X5076266Y1414119D01*
X5084701Y1434481D01*
Y1456521D01*
X5076266Y1476882D01*
X5064980Y1488169D01*
X5062059Y1496301D01*
X5064980Y1504433D01*
X5076266Y1515719D01*
X5084701Y1536081D01*
Y1558121D01*
X5076266Y1578482D01*
X5060682Y1594067D01*
X5040320Y1602501D01*
D02*
G37*
G36*
X3521120Y1689900D02*
X3499080D01*
X3478718Y1681466D01*
X3463134Y1665881D01*
X3454700Y1645520D01*
Y1623480D01*
X3463134Y1603118D01*
X3478718Y1587534D01*
X3499080Y1579100D01*
X3521120D01*
X3541481Y1587534D01*
X3557066Y1603118D01*
X3565500Y1623480D01*
Y1645520D01*
X3557066Y1665881D01*
X3541481Y1681466D01*
X3521120Y1689900D01*
D02*
G37*
G36*
X2982920Y1687168D02*
X2960881D01*
X2940519Y1678733D01*
X2924935Y1663149D01*
X2916501Y1642787D01*
Y1620748D01*
X2924935Y1600386D01*
X2940519Y1584802D01*
X2960881Y1576368D01*
X2982920D01*
X3003282Y1584802D01*
X3018866Y1600386D01*
X3027301Y1620748D01*
Y1642787D01*
X3018866Y1663149D01*
X3003282Y1678733D01*
X2982920Y1687168D01*
D02*
G37*
G36*
X2767020D02*
X2744981D01*
X2724619Y1678733D01*
X2709035Y1663149D01*
X2700601Y1642787D01*
Y1620748D01*
X2709035Y1600386D01*
X2724619Y1584802D01*
X2744981Y1576368D01*
X2767020D01*
X2787382Y1584802D01*
X2802966Y1600386D01*
X2811401Y1620748D01*
Y1642787D01*
X2802966Y1663149D01*
X2787382Y1678733D01*
X2767020Y1687168D01*
D02*
G37*
G36*
X5522720Y1650901D02*
X5500681D01*
X5480319Y1642467D01*
X5464735Y1626882D01*
X5456301Y1606521D01*
Y1584481D01*
X5464735Y1564119D01*
X5480319Y1548535D01*
X5500681Y1540101D01*
X5522720D01*
X5543082Y1548535D01*
X5558667Y1564119D01*
X5567101Y1584481D01*
Y1606521D01*
X5558667Y1626882D01*
X5543082Y1642467D01*
X5522720Y1650901D01*
D02*
G37*
G36*
X3834020Y1602800D02*
X3811980D01*
X3791619Y1594366D01*
X3776034Y1578781D01*
X3767600Y1558420D01*
Y1536380D01*
X3776034Y1516019D01*
X3791619Y1500434D01*
X3811980Y1492000D01*
X3834020D01*
X3854381Y1500434D01*
X3869966Y1516019D01*
X3878400Y1536380D01*
Y1558420D01*
X3869966Y1578781D01*
X3854381Y1594366D01*
X3834020Y1602800D01*
D02*
G37*
G36*
X1303139Y1588500D02*
X1281099D01*
X1260738Y1580066D01*
X1245153Y1564482D01*
X1236719Y1544120D01*
Y1522080D01*
X1245153Y1501719D01*
X1260738Y1486134D01*
X1281099Y1477700D01*
X1303139D01*
X1323501Y1486134D01*
X1339085Y1501719D01*
X1347519Y1522080D01*
Y1544120D01*
X1339085Y1564482D01*
X1323501Y1580066D01*
X1303139Y1588500D01*
D02*
G37*
G36*
X1170920D02*
X1148880D01*
X1128518Y1580066D01*
X1112934Y1564482D01*
X1104500Y1544120D01*
Y1522080D01*
X1112934Y1501719D01*
X1128518Y1486134D01*
X1148880Y1477700D01*
X1170920D01*
X1191281Y1486134D01*
X1206866Y1501719D01*
X1215300Y1522080D01*
Y1544120D01*
X1206866Y1564482D01*
X1191281Y1580066D01*
X1170920Y1588500D01*
D02*
G37*
G36*
X3567820Y1574700D02*
X3545780D01*
X3525419Y1566266D01*
X3509834Y1550681D01*
X3501400Y1530320D01*
Y1508280D01*
X3509834Y1487919D01*
X3525419Y1472334D01*
X3545780Y1463900D01*
X3567820D01*
X3588182Y1472334D01*
X3603766Y1487919D01*
X3612200Y1508280D01*
Y1530320D01*
X3603766Y1550681D01*
X3588182Y1566266D01*
X3567820Y1574700D01*
D02*
G37*
G36*
X1296420Y1460101D02*
X1274381D01*
X1254019Y1451667D01*
X1238435Y1436082D01*
X1235124Y1428089D01*
X1221377D01*
X1218066Y1436082D01*
X1202482Y1451667D01*
X1182120Y1460101D01*
X1160081D01*
X1139719Y1451667D01*
X1124135Y1436082D01*
X1115701Y1415721D01*
Y1393681D01*
X1124135Y1373320D01*
X1133230Y1364224D01*
X1135478Y1352219D01*
X1132506Y1348354D01*
X1120035Y1335882D01*
X1111601Y1315521D01*
Y1293481D01*
X1120035Y1273119D01*
X1135619Y1257535D01*
X1155981Y1249101D01*
X1178020D01*
X1198382Y1257535D01*
X1213966Y1273119D01*
X1218768Y1284711D01*
X1232514D01*
X1238434Y1270419D01*
X1254019Y1254834D01*
X1274380Y1246400D01*
X1296420D01*
X1316781Y1254834D01*
X1332366Y1270419D01*
X1340800Y1290780D01*
Y1312820D01*
X1332366Y1333181D01*
X1320160Y1345388D01*
X1318009Y1353251D01*
X1320160Y1361113D01*
X1332366Y1373320D01*
X1340800Y1393681D01*
Y1415721D01*
X1332366Y1436082D01*
X1316782Y1451667D01*
X1296420Y1460101D01*
D02*
G37*
G36*
X2849420Y1481600D02*
X2827380D01*
X2807019Y1473166D01*
X2791434Y1457582D01*
X2783000Y1437220D01*
Y1415180D01*
X2791434Y1394819D01*
X2807019Y1379234D01*
X2827380Y1370800D01*
X2849420D01*
X2869781Y1379234D01*
X2885366Y1394819D01*
X2893800Y1415180D01*
Y1437220D01*
X2885366Y1457582D01*
X2869781Y1473166D01*
X2849420Y1481600D01*
D02*
G37*
G36*
X4541720Y1590800D02*
X4519680D01*
X4499319Y1582366D01*
X4483734Y1566781D01*
X4475300Y1546420D01*
Y1524380D01*
X4483734Y1504019D01*
X4499319Y1488434D01*
X4499983Y1488159D01*
Y1474412D01*
X4494319Y1472066D01*
X4478734Y1456481D01*
X4470300Y1436120D01*
Y1414080D01*
X4478734Y1393719D01*
X4494319Y1378134D01*
X4514680Y1369700D01*
X4536720D01*
X4557082Y1378134D01*
X4572666Y1393719D01*
X4581100Y1414080D01*
Y1436120D01*
X4572666Y1456481D01*
X4557082Y1472066D01*
X4556417Y1472341D01*
Y1486088D01*
X4562082Y1488434D01*
X4577666Y1504019D01*
X4586100Y1524380D01*
Y1546420D01*
X4577666Y1566781D01*
X4562082Y1582366D01*
X4541720Y1590800D01*
D02*
G37*
G36*
X3522620Y1456600D02*
X3500580D01*
X3480219Y1448166D01*
X3464634Y1432581D01*
X3456200Y1412220D01*
Y1390180D01*
X3464634Y1369818D01*
X3480219Y1354234D01*
X3500580Y1345800D01*
X3522620D01*
X3542981Y1354234D01*
X3558566Y1369818D01*
X3567000Y1390180D01*
Y1412220D01*
X3558566Y1432581D01*
X3542981Y1448166D01*
X3522620Y1456600D01*
D02*
G37*
G36*
X3932920Y1396200D02*
X3910880D01*
X3890519Y1387766D01*
X3874934Y1372181D01*
X3866500Y1351820D01*
Y1329780D01*
X3874934Y1309419D01*
X3890519Y1293834D01*
X3910880Y1285400D01*
X3932920D01*
X3953281Y1293834D01*
X3968866Y1309419D01*
X3977300Y1329780D01*
Y1351820D01*
X3968866Y1372181D01*
X3953281Y1387766D01*
X3932920Y1396200D01*
D02*
G37*
G36*
X8044985Y1471601D02*
X8008016D01*
X7972308Y1462033D01*
X7940293Y1443549D01*
X7914153Y1417409D01*
X7895669Y1385393D01*
X7886101Y1349685D01*
Y1312717D01*
X7895669Y1277009D01*
X7914153Y1244993D01*
X7940293Y1218853D01*
X7972308Y1200369D01*
X8008016Y1190801D01*
X8044985D01*
X8080693Y1200369D01*
X8112708Y1218853D01*
X8138848Y1244993D01*
X8157332Y1277009D01*
X8166900Y1312717D01*
Y1349685D01*
X8157332Y1385393D01*
X8138848Y1417409D01*
X8112708Y1443549D01*
X8080693Y1462033D01*
X8044985Y1471601D01*
D02*
G37*
G36*
X4520970Y1341950D02*
X4498930D01*
X4478568Y1333515D01*
X4462984Y1317931D01*
X4454550Y1297569D01*
Y1275530D01*
X4462984Y1255168D01*
X4478568Y1239584D01*
X4498930Y1231150D01*
X4520970D01*
X4540775Y1239353D01*
X4542829Y1238386D01*
X4551311Y1231603D01*
X4545279Y1217042D01*
Y1195002D01*
X4553714Y1174640D01*
X4569298Y1159056D01*
X4589660Y1150622D01*
X4611699D01*
X4632061Y1159056D01*
X4647645Y1174640D01*
X4656079Y1195002D01*
Y1217042D01*
X4647645Y1237403D01*
X4632061Y1252988D01*
X4611699Y1261422D01*
X4589660D01*
X4569854Y1253218D01*
X4567801Y1254185D01*
X4559318Y1260969D01*
X4565350Y1275530D01*
Y1297569D01*
X4556916Y1317931D01*
X4541331Y1333515D01*
X4520970Y1341950D01*
D02*
G37*
G36*
X527243Y1438501D02*
X488958D01*
X451978Y1428592D01*
X418823Y1409450D01*
X391752Y1382378D01*
X372609Y1349223D01*
X362701Y1312243D01*
Y1273959D01*
X372609Y1236978D01*
X391752Y1203823D01*
X418823Y1176752D01*
X451978Y1157610D01*
X488958Y1147701D01*
X527243D01*
X564223Y1157610D01*
X597378Y1176752D01*
X624449Y1203823D01*
X643592Y1236978D01*
X653500Y1273959D01*
Y1312243D01*
X643592Y1349223D01*
X624449Y1382378D01*
X597378Y1409450D01*
X564223Y1428592D01*
X527243Y1438501D01*
D02*
G37*
G36*
X3719620Y1138701D02*
X3697581D01*
X3677219Y1130267D01*
X3661635Y1114682D01*
X3658324Y1106689D01*
X3644577D01*
X3641267Y1114682D01*
X3625682Y1130267D01*
X3605320Y1138701D01*
X3583281D01*
X3562919Y1130267D01*
X3547335Y1114682D01*
X3538901Y1094321D01*
Y1072281D01*
X3547335Y1051919D01*
X3556431Y1042824D01*
X3558678Y1030819D01*
X3555707Y1026954D01*
X3543235Y1014482D01*
X3534801Y994120D01*
Y972081D01*
X3543235Y951719D01*
X3558819Y936135D01*
X3579181Y927701D01*
X3601220D01*
X3621582Y936135D01*
X3637166Y951719D01*
X3641968Y963310D01*
X3655714D01*
X3661634Y949018D01*
X3677219Y933434D01*
X3697580Y925000D01*
X3719620D01*
X3739982Y933434D01*
X3755566Y949018D01*
X3764000Y969380D01*
Y991420D01*
X3755566Y1011781D01*
X3743360Y1023988D01*
X3741209Y1031851D01*
X3743360Y1039713D01*
X3755567Y1051919D01*
X3764001Y1072281D01*
Y1094321D01*
X3755567Y1114682D01*
X3739982Y1130267D01*
X3719620Y1138701D01*
D02*
G37*
G36*
X2947720Y1180400D02*
X2925680D01*
X2905319Y1171966D01*
X2889734Y1156381D01*
X2881300Y1136020D01*
Y1113980D01*
X2889734Y1093619D01*
X2905319Y1078034D01*
X2925680Y1069600D01*
X2947720D01*
X2968081Y1078034D01*
X2983666Y1093619D01*
X2992100Y1113980D01*
Y1136020D01*
X2983666Y1156381D01*
X2968081Y1171966D01*
X2947720Y1180400D01*
D02*
G37*
G36*
X453420Y1030201D02*
X431381D01*
X411019Y1021767D01*
X395435Y1006182D01*
X392124Y998189D01*
X378377D01*
X375067Y1006182D01*
X359482Y1021767D01*
X339120Y1030201D01*
X317081D01*
X296719Y1021767D01*
X281135Y1006182D01*
X272701Y985821D01*
Y963781D01*
X281135Y943419D01*
X290231Y934324D01*
X292478Y922319D01*
X289507Y918454D01*
X277035Y905982D01*
X268601Y885621D01*
Y863581D01*
X277035Y843219D01*
X292619Y827635D01*
X312981Y819201D01*
X335020D01*
X355382Y827635D01*
X370966Y843219D01*
X375768Y854811D01*
X389514D01*
X395434Y840519D01*
X411019Y824934D01*
X431380Y816500D01*
X453420D01*
X473782Y824934D01*
X489366Y840519D01*
X497800Y860880D01*
Y882920D01*
X489366Y903281D01*
X477160Y915488D01*
X475009Y923351D01*
X477160Y931213D01*
X489367Y943419D01*
X497801Y963781D01*
Y985821D01*
X489367Y1006182D01*
X473782Y1021767D01*
X453420Y1030201D01*
D02*
G37*
G36*
X5040320Y992901D02*
X5018281D01*
X4997919Y984467D01*
X4982335Y968882D01*
X4973901Y948521D01*
Y926481D01*
X4982335Y906119D01*
X4997919Y890535D01*
X5018281Y882101D01*
X5040320D01*
X5060682Y890535D01*
X5076266Y906119D01*
X5084701Y926481D01*
Y948521D01*
X5076266Y968882D01*
X5060682Y984467D01*
X5040320Y992901D01*
D02*
G37*
G36*
X8044985Y963601D02*
X8008016D01*
X7972308Y954033D01*
X7940293Y935549D01*
X7914153Y909408D01*
X7895669Y877393D01*
X7886101Y841685D01*
Y804717D01*
X7895669Y769008D01*
X7914153Y736993D01*
X7940293Y710853D01*
X7972308Y692369D01*
X8008016Y682801D01*
X8044985D01*
X8080693Y692369D01*
X8112708Y710853D01*
X8138848Y736993D01*
X8157332Y769008D01*
X8166900Y804717D01*
Y841685D01*
X8157332Y877393D01*
X8138848Y909408D01*
X8112708Y935549D01*
X8080693Y954033D01*
X8044985Y963601D01*
D02*
G37*
G36*
X442920Y568001D02*
X420881D01*
X400519Y559567D01*
X384935Y543982D01*
X381624Y535989D01*
X367877D01*
X364566Y543982D01*
X348982Y559567D01*
X328620Y568001D01*
X306581D01*
X286219Y559567D01*
X270635Y543982D01*
X262201Y523621D01*
Y501581D01*
X270635Y481220D01*
X279730Y472124D01*
X281978Y460119D01*
X279007Y456254D01*
X266535Y443782D01*
X258101Y423421D01*
Y401381D01*
X266535Y381019D01*
X282119Y365435D01*
X302481Y357001D01*
X324520D01*
X344882Y365435D01*
X360466Y381019D01*
X365268Y392611D01*
X379014D01*
X384934Y378319D01*
X400519Y362734D01*
X420880Y354300D01*
X442920D01*
X463282Y362734D01*
X478866Y378319D01*
X487300Y398680D01*
Y420720D01*
X478866Y441081D01*
X466660Y453288D01*
X464509Y461151D01*
X466660Y469013D01*
X478866Y481220D01*
X487301Y501581D01*
Y523621D01*
X478866Y543982D01*
X463282Y559567D01*
X442920Y568001D01*
D02*
G37*
G36*
X6871020Y357300D02*
X6848980D01*
X6828619Y348866D01*
X6813034Y333282D01*
X6804600Y312920D01*
Y290880D01*
X6813034Y270519D01*
X6828619Y254934D01*
X6848980Y246500D01*
X6871020D01*
X6891381Y254934D01*
X6906966Y270519D01*
X6915400Y290880D01*
Y312920D01*
X6906966Y333282D01*
X6891381Y348866D01*
X6871020Y357300D01*
D02*
G37*
G36*
X7104320Y348801D02*
X7082281D01*
X7061919Y340367D01*
X7046335Y324782D01*
X7037901Y304421D01*
Y282381D01*
X7046335Y262019D01*
X7061919Y246435D01*
X7082281Y238001D01*
X7104320D01*
X7124682Y246435D01*
X7140266Y262019D01*
X7148700Y282381D01*
Y304421D01*
X7140266Y324782D01*
X7124682Y340367D01*
X7104320Y348801D01*
D02*
G37*
G36*
X7040595Y231232D02*
X7018555D01*
X6998193Y222798D01*
X6985125Y209729D01*
X6972056Y222798D01*
X6951695Y231232D01*
X6929655D01*
X6909294Y222798D01*
X6893709Y207213D01*
X6885275Y186852D01*
Y164812D01*
X6893709Y144451D01*
X6906778Y131382D01*
X6893709Y118313D01*
X6885275Y97952D01*
Y75912D01*
X6893709Y55551D01*
X6909293Y39966D01*
X6929655Y31532D01*
X6951695D01*
X6972056Y39966D01*
X6985125Y53035D01*
X6998193Y39966D01*
X7018555Y31532D01*
X7040595D01*
X7060956Y39966D01*
X7076541Y55551D01*
X7084975Y75912D01*
Y97952D01*
X7076541Y118313D01*
X7063472Y131382D01*
X7076541Y144451D01*
X7084975Y164812D01*
Y186852D01*
X7076541Y207213D01*
X7060956Y222798D01*
X7040595Y231232D01*
D02*
G37*
G36*
X8044985Y455600D02*
X8008016D01*
X7972308Y446032D01*
X7940293Y427548D01*
X7914153Y401408D01*
X7895669Y369393D01*
X7886101Y333685D01*
Y296716D01*
X7895669Y261008D01*
X7914153Y228993D01*
X7940293Y202853D01*
X7972308Y184369D01*
X8008016Y174801D01*
X8044985D01*
X8080693Y184369D01*
X8112708Y202853D01*
X8138848Y228993D01*
X8157332Y261008D01*
X8166900Y296716D01*
Y333685D01*
X8157332Y369393D01*
X8138848Y401408D01*
X8112708Y427548D01*
X8080693Y446032D01*
X8044985Y455600D01*
D02*
G37*
G36*
X6226120Y2444801D02*
X6204081D01*
X6183719Y2436367D01*
X6168135Y2420782D01*
X6159701Y2400421D01*
Y2378381D01*
X6168135Y2358019D01*
X6183719Y2342435D01*
X6204081Y2334001D01*
X6226120D01*
X6246482Y2342435D01*
X6262066Y2358019D01*
X6270501Y2378381D01*
Y2400421D01*
X6262066Y2420782D01*
X6246482Y2436367D01*
X6226120Y2444801D01*
D02*
G37*
G36*
X7012820Y2354401D02*
X6990781D01*
X6970419Y2345967D01*
X6954835Y2330382D01*
X6946401Y2310021D01*
Y2287981D01*
X6954835Y2267619D01*
X6970419Y2252035D01*
X6990781Y2243601D01*
X7012820D01*
X7033182Y2252035D01*
X7048766Y2267619D01*
X7057201Y2287981D01*
Y2310021D01*
X7048766Y2330382D01*
X7033182Y2345967D01*
X7012820Y2354401D01*
D02*
G37*
G36*
X6711320Y2226600D02*
X6689280D01*
X6668919Y2218166D01*
X6653334Y2202581D01*
X6644900Y2182220D01*
Y2160180D01*
X6653334Y2139818D01*
X6668919Y2124234D01*
X6689280Y2115800D01*
X6711320D01*
X6731681Y2124234D01*
X6747266Y2139818D01*
X6755700Y2160180D01*
Y2182220D01*
X6747266Y2202581D01*
X6731681Y2218166D01*
X6711320Y2226600D01*
D02*
G37*
G36*
X6462720Y2110501D02*
X6440681D01*
X6420319Y2102067D01*
X6404735Y2086482D01*
X6396301Y2066121D01*
Y2044081D01*
X6404735Y2023719D01*
X6420319Y2008135D01*
X6440681Y1999701D01*
X6462720D01*
X6483082Y2008135D01*
X6498666Y2023719D01*
X6507101Y2044081D01*
Y2066121D01*
X6498666Y2086482D01*
X6483082Y2102067D01*
X6462720Y2110501D01*
D02*
G37*
G36*
X6653420Y2101300D02*
X6631380D01*
X6611019Y2092866D01*
X6595434Y2077281D01*
X6587000Y2056920D01*
Y2034880D01*
X6595434Y2014518D01*
X6611019Y1998934D01*
X6631380Y1990500D01*
X6653420D01*
X6673781Y1998934D01*
X6689366Y2014518D01*
X6697800Y2034880D01*
Y2056920D01*
X6689366Y2077281D01*
X6673781Y2092866D01*
X6653420Y2101300D01*
D02*
G37*
G36*
X6875720Y2030801D02*
X6853681D01*
X6833319Y2022367D01*
X6817735Y2006782D01*
X6809301Y1986420D01*
Y1964381D01*
X6817735Y1944019D01*
X6833207Y1928547D01*
X6833319Y1928435D01*
X6835173Y1913920D01*
X6827834Y1906581D01*
X6819400Y1886220D01*
Y1864180D01*
X6827834Y1843819D01*
X6843419Y1828234D01*
X6863780Y1819800D01*
X6885820D01*
X6906182Y1828234D01*
X6921766Y1843819D01*
X6930200Y1864180D01*
Y1886220D01*
X6921766Y1906581D01*
X6906294Y1922053D01*
X6906182Y1922166D01*
X6904328Y1936680D01*
X6911666Y1944019D01*
X6920100Y1964381D01*
Y1986420D01*
X6911666Y2006782D01*
X6896082Y2022367D01*
X6875720Y2030801D01*
D02*
G37*
G36*
X6239070Y1567350D02*
X6217030D01*
X6196668Y1558916D01*
X6181084Y1543331D01*
X6172650Y1522970D01*
Y1500930D01*
X6181084Y1480569D01*
X6196668Y1464984D01*
X6217030Y1456550D01*
X6239070D01*
X6259431Y1464984D01*
X6275016Y1480569D01*
X6283450Y1500930D01*
Y1522970D01*
X6275016Y1543331D01*
X6259431Y1558916D01*
X6239070Y1567350D01*
D02*
G37*
G36*
X6735720Y1451101D02*
X6713681D01*
X6693319Y1442667D01*
X6677735Y1427082D01*
X6669301Y1406721D01*
Y1384681D01*
X6677735Y1364319D01*
X6693319Y1348735D01*
X6713680Y1340301D01*
X6712958Y1327901D01*
X6692080Y1327900D01*
X6671718Y1319466D01*
X6656134Y1303882D01*
X6647700Y1283520D01*
Y1261480D01*
X6656134Y1241119D01*
X6671718Y1225534D01*
X6692080Y1217100D01*
X6714120D01*
X6734481Y1225534D01*
X6750066Y1241119D01*
X6758500Y1261480D01*
Y1283520D01*
X6750066Y1303882D01*
X6734481Y1319466D01*
X6714120Y1327900D01*
X6714843Y1340300D01*
X6735720Y1340301D01*
X6756082Y1348735D01*
X6771666Y1364319D01*
X6780100Y1384681D01*
Y1406721D01*
X6771666Y1427082D01*
X6756082Y1442667D01*
X6735720Y1451101D01*
D02*
G37*
G36*
X7088420Y1239800D02*
X7066380D01*
X7046018Y1231366D01*
X7030434Y1215781D01*
X7022000Y1195420D01*
Y1173380D01*
X7030434Y1153019D01*
X7046018Y1137434D01*
X7066380Y1129000D01*
X7088420D01*
X7108781Y1137434D01*
X7124366Y1153019D01*
X7132800Y1173380D01*
Y1195420D01*
X7124366Y1215781D01*
X7108781Y1231366D01*
X7088420Y1239800D01*
D02*
G37*
G36*
X6636920Y1149100D02*
X6614880D01*
X6594518Y1140666D01*
X6578934Y1125082D01*
X6570500Y1104720D01*
Y1082680D01*
X6578934Y1062319D01*
X6594518Y1046734D01*
X6614880Y1038300D01*
X6636920D01*
X6657281Y1046734D01*
X6672866Y1062319D01*
X6681300Y1082680D01*
Y1104720D01*
X6672866Y1125082D01*
X6657281Y1140666D01*
X6636920Y1149100D01*
D02*
G37*
G36*
X6939720Y1014800D02*
X6917680D01*
X6897318Y1006366D01*
X6881734Y990781D01*
X6873300Y970420D01*
Y948380D01*
X6881734Y928018D01*
X6897318Y912434D01*
X6917680Y904000D01*
X6939720D01*
X6960081Y912434D01*
X6975666Y928018D01*
X6984100Y948380D01*
Y970420D01*
X6975666Y990781D01*
X6960081Y1006366D01*
X6939720Y1014800D01*
D02*
G37*
G36*
X6031320Y979200D02*
X6009280D01*
X5988919Y970766D01*
X5973334Y955181D01*
X5964900Y934820D01*
Y912780D01*
X5973334Y892418D01*
X5988919Y876834D01*
X6009280Y868400D01*
X6031320D01*
X6051682Y876834D01*
X6067266Y892418D01*
X6075700Y912780D01*
Y934820D01*
X6067266Y955181D01*
X6051682Y970766D01*
X6031320Y979200D01*
D02*
G37*
G36*
X6210220Y977100D02*
X6188180D01*
X6167819Y968666D01*
X6152234Y953081D01*
X6143800Y932720D01*
Y910680D01*
X6152234Y890319D01*
X6167819Y874734D01*
X6188180Y866300D01*
X6210220D01*
X6230582Y874734D01*
X6246166Y890319D01*
X6254600Y910680D01*
Y932720D01*
X6246166Y953081D01*
X6230582Y968666D01*
X6210220Y977100D01*
D02*
G37*
G36*
X5720620Y876100D02*
X5698580D01*
X5678219Y867666D01*
X5662634Y852081D01*
X5654200Y831720D01*
Y809680D01*
X5662634Y789318D01*
X5678219Y773734D01*
X5698580Y765300D01*
X5720620D01*
X5740981Y773734D01*
X5756566Y789318D01*
X5765000Y809680D01*
Y831720D01*
X5756566Y852081D01*
X5740981Y867666D01*
X5720620Y876100D01*
D02*
G37*
G36*
X6704020Y561101D02*
X6681981D01*
X6661619Y552667D01*
X6646035Y537082D01*
X6637601Y516721D01*
Y494681D01*
X6646035Y474319D01*
X6661619Y458735D01*
X6681981Y450301D01*
X6704020D01*
X6724382Y458735D01*
X6739966Y474319D01*
X6748401Y494681D01*
Y516721D01*
X6739966Y537082D01*
X6724382Y552667D01*
X6704020Y561101D01*
D02*
G37*
G36*
X3587421Y522001D02*
X3565381D01*
X3545019Y513567D01*
X3529435Y497982D01*
X3521001Y477621D01*
Y455581D01*
X3529435Y435219D01*
X3545019Y419635D01*
X3565381Y411201D01*
X3587421D01*
X3607782Y419635D01*
X3623367Y435219D01*
X3631801Y455581D01*
Y477621D01*
X3623367Y497982D01*
X3607782Y513567D01*
X3587421Y522001D01*
D02*
G37*
%LPD*%
D33*
X5473801Y2779001D02*
D03*
D34*
X5219801D02*
D03*
X4965801D02*
D03*
X4711801D02*
D03*
D35*
X508101Y1293101D02*
D03*
Y1801101D02*
D03*
D36*
X2818401Y270201D02*
D03*
Y524201D02*
D03*
X1142240Y2926400D02*
D03*
X1142241Y2672400D02*
D03*
X469940Y2938401D02*
D03*
X469941Y2684400D02*
D03*
D37*
X8026501Y315201D02*
D03*
Y823201D02*
D03*
Y1331201D02*
D03*
Y1839201D02*
D03*
Y2347201D02*
D03*
Y2855201D02*
D03*
D38*
X6228050Y1511950D02*
D03*
X4152700Y1661900D02*
D03*
X3921900Y1340800D02*
D03*
X3823000Y1547400D02*
D03*
X4525700Y1425100D02*
D03*
X4509950Y1286550D02*
D03*
X4653767Y1329112D02*
D03*
X4745700Y1331600D02*
D03*
X5709600Y820700D02*
D03*
X6625900Y1093700D02*
D03*
X6617100Y952500D02*
D03*
X5853500Y1367600D02*
D03*
X6642400Y2045900D02*
D03*
X6337800Y2881800D02*
D03*
X6402301Y2772501D02*
D03*
X6650600Y2900200D02*
D03*
X6887100Y2770700D02*
D03*
X5704800Y1812200D02*
D03*
X6199200Y921700D02*
D03*
X6020300Y923800D02*
D03*
X6928700Y959400D02*
D03*
X7221600Y950500D02*
D03*
X7313700Y946600D02*
D03*
X7408700Y1030600D02*
D03*
X7310875Y1084900D02*
D03*
X6362801Y1877301D02*
D03*
X5713200Y1924200D02*
D03*
X3594301Y1083301D02*
D03*
X3708601D02*
D03*
X3708600Y980400D02*
D03*
X3590201Y983101D02*
D03*
X1171101Y1404701D02*
D03*
X1285401D02*
D03*
X1285400Y1301800D02*
D03*
X1167000Y1304501D02*
D03*
X328101Y974801D02*
D03*
X442401D02*
D03*
X442400Y871900D02*
D03*
X324001Y874601D02*
D03*
X313501Y412401D02*
D03*
X431900Y409700D02*
D03*
X1443801Y2064801D02*
D03*
X1570801D02*
D03*
X1773975Y2055932D02*
D03*
X1685075D02*
D03*
X1773975Y1967032D02*
D03*
X1685075D02*
D03*
X1925775Y2929932D02*
D03*
X1836875D02*
D03*
X1925775Y2841032D02*
D03*
X1836875D02*
D03*
X7322775Y2962532D02*
D03*
X7233875D02*
D03*
X7322775Y2873632D02*
D03*
X7233875D02*
D03*
X7323475Y2011832D02*
D03*
X7234575D02*
D03*
X7323475Y1922932D02*
D03*
X7234575D02*
D03*
X7219200Y1088700D02*
D03*
X7029575Y175832D02*
D03*
X6940675D02*
D03*
X7029575Y86932D02*
D03*
X6940675D02*
D03*
X5507375Y2372032D02*
D03*
X5418475D02*
D03*
X5507375Y2283132D02*
D03*
X5418475D02*
D03*
X4834875Y1537232D02*
D03*
X4745975D02*
D03*
X4834875Y1448332D02*
D03*
X4745975D02*
D03*
X4530700Y1535400D02*
D03*
X2838400Y1426200D02*
D03*
X2936700Y1125000D02*
D03*
X3556800Y1519300D02*
D03*
X5886100Y2389700D02*
D03*
X3080200Y842200D02*
D03*
X4825700Y2219000D02*
D03*
X5698700Y2021700D02*
D03*
X3877800Y2485600D02*
D03*
X3410700Y2837400D02*
D03*
X4002400Y2561800D02*
D03*
X4476700Y2482000D02*
D03*
X4305100Y2491600D02*
D03*
X4596600Y2064900D02*
D03*
X5351100Y1684600D02*
D03*
X3576401Y466601D02*
D03*
X3119701Y2874101D02*
D03*
X2919600Y2880901D02*
D03*
X3449901Y468001D02*
D03*
X3134299Y1342351D02*
D03*
X3134299Y1443001D02*
D03*
X3219274Y1241673D02*
D03*
X3308173D02*
D03*
X3222874Y1442973D02*
D03*
X3311773D02*
D03*
X3222873Y1342323D02*
D03*
X3311773D02*
D03*
X4350675Y2053132D02*
D03*
X4439575D02*
D03*
X4350675Y2142032D02*
D03*
X4439575D02*
D03*
X5887901Y754001D02*
D03*
X7324001Y1665101D02*
D03*
X6724701Y1395701D02*
D03*
X4600679Y1206022D02*
D03*
X6864701Y1975401D02*
D03*
X5511701Y1595501D02*
D03*
X7001801Y2299001D02*
D03*
X6878901Y2883001D02*
D03*
X6215101Y2389401D02*
D03*
X5887524Y2173501D02*
D03*
X4223694Y1076967D02*
D03*
X4223695Y1165867D02*
D03*
X4224501Y1259401D02*
D03*
X4118330Y1261411D02*
D03*
X5029301Y1445501D02*
D03*
X5348574Y1031973D02*
D03*
X5259674D02*
D03*
X5348574Y1120873D02*
D03*
X5259674D02*
D03*
X5259874Y1968273D02*
D03*
X5348774D02*
D03*
X5259874Y1879373D02*
D03*
X5348774D02*
D03*
X6451701Y2055101D02*
D03*
X5897001Y1518701D02*
D03*
X6874800Y1875200D02*
D03*
X7337000Y2711400D02*
D03*
X6879700Y2960300D02*
D03*
X6643800Y2979800D02*
D03*
X5029301Y937501D02*
D03*
X5894701Y1651301D02*
D03*
X7340701Y835901D02*
D03*
X7010501Y861301D02*
D03*
X7099401D02*
D03*
X7019300Y1765200D02*
D03*
X7115500D02*
D03*
X7099401Y2652001D02*
D03*
X7010501D02*
D03*
X2644101Y717901D02*
D03*
X2504401D02*
D03*
Y514701D02*
D03*
Y616301D02*
D03*
X2644101Y514701D02*
D03*
Y616301D02*
D03*
X5876100Y389001D02*
D03*
X5879700Y620101D02*
D03*
X5890825Y2551401D02*
D03*
X431901Y512601D02*
D03*
X4945700Y1444101D02*
D03*
Y1544600D02*
D03*
X2971901Y1813801D02*
D03*
Y1995834D02*
D03*
Y2177867D02*
D03*
Y1631768D02*
D03*
X2756001D02*
D03*
Y2177867D02*
D03*
Y1995834D02*
D03*
Y1813801D02*
D03*
X7077400Y1184400D02*
D03*
X6703100Y1272500D02*
D03*
X1159900Y1533100D02*
D03*
X1292119D02*
D03*
X1566801Y1968601D02*
D03*
X1439801D02*
D03*
X317601Y512601D02*
D03*
X7093301Y293401D02*
D03*
X6860000Y301900D02*
D03*
X7096401Y2096801D02*
D03*
X6700300Y2171200D02*
D03*
X5244600Y722400D02*
D03*
X5418200Y720200D02*
D03*
X3510100Y1634500D02*
D03*
X3511600Y1401200D02*
D03*
X5029301Y1547101D02*
D03*
X7340677Y2617601D02*
D03*
X6693001Y505701D02*
D03*
%TF.MD5,37966851f51518c574dd52259473c6e0*%
M02*
