%TF.GenerationSoftware,Altium Limited,Altium Designer,22.5.1 (42)*%
G04 Layer_Physical_Order=1*
G04 Layer_Color=255*
%FSLAX45Y45*%
%MOMM*%
%TF.SameCoordinates,F63A7803-94E7-494B-9888-F8709FA5C5B4*%
%TF.FilePolarity,Positive*%
%TF.FileFunction,Copper,L1,Top,Signal*%
%TF.Part,Single*%
G01*
G75*
%TA.AperFunction,SMDPad,CuDef*%
%ADD10R,0.54000X0.56566*%
G04:AMPARAMS|DCode=11|XSize=1.7mm|YSize=0.8mm|CornerRadius=0.2mm|HoleSize=0mm|Usage=FLASHONLY|Rotation=0.000|XOffset=0mm|YOffset=0mm|HoleType=Round|Shape=RoundedRectangle|*
%AMROUNDEDRECTD11*
21,1,1.70000,0.40000,0,0,0.0*
21,1,1.30000,0.80000,0,0,0.0*
1,1,0.40000,0.65000,-0.20000*
1,1,0.40000,-0.65000,-0.20000*
1,1,0.40000,-0.65000,0.20000*
1,1,0.40000,0.65000,0.20000*
%
%ADD11ROUNDEDRECTD11*%
G04:AMPARAMS|DCode=12|XSize=0.28mm|YSize=1.56mm|CornerRadius=0.07mm|HoleSize=0mm|Usage=FLASHONLY|Rotation=0.000|XOffset=0mm|YOffset=0mm|HoleType=Round|Shape=RoundedRectangle|*
%AMROUNDEDRECTD12*
21,1,0.28000,1.42000,0,0,0.0*
21,1,0.14000,1.56000,0,0,0.0*
1,1,0.14000,0.07000,-0.71000*
1,1,0.14000,-0.07000,-0.71000*
1,1,0.14000,-0.07000,0.71000*
1,1,0.14000,0.07000,0.71000*
%
%ADD12ROUNDEDRECTD12*%
G04:AMPARAMS|DCode=13|XSize=0.28mm|YSize=1.56mm|CornerRadius=0.07mm|HoleSize=0mm|Usage=FLASHONLY|Rotation=90.000|XOffset=0mm|YOffset=0mm|HoleType=Round|Shape=RoundedRectangle|*
%AMROUNDEDRECTD13*
21,1,0.28000,1.42000,0,0,90.0*
21,1,0.14000,1.56000,0,0,90.0*
1,1,0.14000,0.71000,0.07000*
1,1,0.14000,0.71000,-0.07000*
1,1,0.14000,-0.71000,-0.07000*
1,1,0.14000,-0.71000,0.07000*
%
%ADD13ROUNDEDRECTD13*%
%ADD14R,0.90000X0.80000*%
%ADD15R,0.86401X0.80648*%
G04:AMPARAMS|DCode=16|XSize=0.94mm|YSize=1.02mm|CornerRadius=0.094mm|HoleSize=0mm|Usage=FLASHONLY|Rotation=0.000|XOffset=0mm|YOffset=0mm|HoleType=Round|Shape=RoundedRectangle|*
%AMROUNDEDRECTD16*
21,1,0.94000,0.83200,0,0,0.0*
21,1,0.75200,1.02000,0,0,0.0*
1,1,0.18800,0.37600,-0.41600*
1,1,0.18800,-0.37600,-0.41600*
1,1,0.18800,-0.37600,0.41600*
1,1,0.18800,0.37600,0.41600*
%
%ADD16ROUNDEDRECTD16*%
%ADD17R,0.80000X0.90000*%
%ADD18R,1.80086X1.99898*%
%ADD19R,0.80648X0.86401*%
G04:AMPARAMS|DCode=20|XSize=1.97mm|YSize=0.59mm|CornerRadius=0.07375mm|HoleSize=0mm|Usage=FLASHONLY|Rotation=0.000|XOffset=0mm|YOffset=0mm|HoleType=Round|Shape=RoundedRectangle|*
%AMROUNDEDRECTD20*
21,1,1.97000,0.44250,0,0,0.0*
21,1,1.82250,0.59000,0,0,0.0*
1,1,0.14750,0.91125,-0.22125*
1,1,0.14750,-0.91125,-0.22125*
1,1,0.14750,-0.91125,0.22125*
1,1,0.14750,0.91125,0.22125*
%
%ADD20ROUNDEDRECTD20*%
G04:AMPARAMS|DCode=21|XSize=1.12mm|YSize=0.27mm|CornerRadius=0.03375mm|HoleSize=0mm|Usage=FLASHONLY|Rotation=180.000|XOffset=0mm|YOffset=0mm|HoleType=Round|Shape=RoundedRectangle|*
%AMROUNDEDRECTD21*
21,1,1.12000,0.20250,0,0,180.0*
21,1,1.05250,0.27000,0,0,180.0*
1,1,0.06750,-0.52625,0.10125*
1,1,0.06750,0.52625,0.10125*
1,1,0.06750,0.52625,-0.10125*
1,1,0.06750,-0.52625,-0.10125*
%
%ADD21ROUNDEDRECTD21*%
G04:AMPARAMS|DCode=22|XSize=0.94mm|YSize=1.02mm|CornerRadius=0.094mm|HoleSize=0mm|Usage=FLASHONLY|Rotation=270.000|XOffset=0mm|YOffset=0mm|HoleType=Round|Shape=RoundedRectangle|*
%AMROUNDEDRECTD22*
21,1,0.94000,0.83200,0,0,270.0*
21,1,0.75200,1.02000,0,0,270.0*
1,1,0.18800,-0.41600,-0.37600*
1,1,0.18800,-0.41600,0.37600*
1,1,0.18800,0.41600,0.37600*
1,1,0.18800,0.41600,-0.37600*
%
%ADD22ROUNDEDRECTD22*%
G04:AMPARAMS|DCode=23|XSize=1.4mm|YSize=1.2mm|CornerRadius=0mm|HoleSize=0mm|Usage=FLASHONLY|Rotation=225.000|XOffset=0mm|YOffset=0mm|HoleType=Round|Shape=Rectangle|*
%AMROTATEDRECTD23*
4,1,4,0.07071,0.91924,0.91924,0.07071,-0.07071,-0.91924,-0.91924,-0.07071,0.07071,0.91924,0.0*
%
%ADD23ROTATEDRECTD23*%

G04:AMPARAMS|DCode=24|XSize=0.8mm|YSize=0.9mm|CornerRadius=0mm|HoleSize=0mm|Usage=FLASHONLY|Rotation=315.000|XOffset=0mm|YOffset=0mm|HoleType=Round|Shape=Rectangle|*
%AMROTATEDRECTD24*
4,1,4,-0.60104,-0.03535,0.03535,0.60104,0.60104,0.03535,-0.03535,-0.60104,-0.60104,-0.03535,0.0*
%
%ADD24ROTATEDRECTD24*%

G04:AMPARAMS|DCode=25|XSize=0.8mm|YSize=0.9mm|CornerRadius=0mm|HoleSize=0mm|Usage=FLASHONLY|Rotation=45.000|XOffset=0mm|YOffset=0mm|HoleType=Round|Shape=Rectangle|*
%AMROTATEDRECTD25*
4,1,4,0.03535,-0.60104,-0.60104,0.03535,-0.03535,0.60104,0.60104,-0.03535,0.03535,-0.60104,0.0*
%
%ADD25ROTATEDRECTD25*%

%ADD26R,1.10000X0.60000*%
%ADD27R,2.89999X5.39999*%
%ADD28R,1.35001X1.41000*%
%ADD29R,8.49998X10.99998*%
%ADD30R,3.08282X1.01999*%
%TA.AperFunction,Conductor*%
%ADD31C,0.25400*%
%ADD32C,0.30000*%
%TA.AperFunction,ComponentPad*%
%ADD33R,1.70000X1.70000*%
%ADD34C,1.70000*%
%ADD35C,2.40000*%
%ADD36C,1.60000*%
%ADD37C,2.30000*%
%TA.AperFunction,ViaPad*%
%ADD38C,0.60000*%
G36*
X8560000Y0D02*
X6780000D01*
Y50000D01*
X6080000D01*
Y0D01*
X5980000D01*
Y180000D01*
X5730000D01*
Y0D01*
X5630000D01*
Y180000D01*
X4580000D01*
Y0D01*
X4480000D01*
Y180000D01*
X4230000D01*
Y0D01*
X2480000D01*
Y50000D01*
X1780000D01*
Y0D01*
X0D01*
Y3160000D01*
X1780000D01*
Y3109999D01*
X2480000D01*
Y3160000D01*
X4230000D01*
Y2980000D01*
X4480000D01*
Y3160000D01*
X4580000D01*
Y2980000D01*
X5630000D01*
Y3160000D01*
X5730000D01*
Y2980000D01*
X5980000D01*
Y3160000D01*
X6080000D01*
Y3109999D01*
X6780000D01*
Y3160000D01*
X8560000D01*
Y0D01*
D02*
G37*
%LPC*%
G36*
X6661620Y2955600D02*
X6639580D01*
X6619219Y2947166D01*
X6603634Y2931581D01*
X6598111Y2918247D01*
X6557427D01*
X6554325Y2918864D01*
X6449075D01*
X6437848Y2916631D01*
X6428330Y2910271D01*
X6421970Y2900753D01*
X6419737Y2889526D01*
Y2869276D01*
X6419549Y2869047D01*
X6405490D01*
X6393200Y2881337D01*
Y2892820D01*
X6384766Y2913181D01*
X6369181Y2928766D01*
X6348820Y2937200D01*
X6326780D01*
X6306418Y2928766D01*
X6290834Y2913181D01*
X6282400Y2892820D01*
Y2870780D01*
X6290834Y2850418D01*
X6306418Y2834834D01*
X6326780Y2826400D01*
X6338263D01*
X6358057Y2806605D01*
X6355335Y2803882D01*
X6346901Y2783521D01*
Y2761481D01*
X6355335Y2741119D01*
X6370919Y2725535D01*
X6391281Y2717101D01*
X6413320D01*
X6421970Y2708048D01*
X6428330Y2698530D01*
X6437848Y2692170D01*
X6449075Y2689937D01*
X6501580D01*
X6502501Y2689754D01*
X6582054D01*
Y2589247D01*
X6488671D01*
X6484055Y2596155D01*
X6473214Y2603399D01*
X6460426Y2605943D01*
X6278176D01*
X6265388Y2603399D01*
X6254546Y2596155D01*
X6249931Y2589247D01*
X6196348D01*
Y2621701D01*
X6064901D01*
Y2484500D01*
X6196348D01*
Y2511554D01*
X6249931D01*
X6254546Y2504647D01*
X6265388Y2497403D01*
X6278176Y2494859D01*
X6460426D01*
X6473214Y2497403D01*
X6484055Y2504647D01*
X6488671Y2511554D01*
X6606022D01*
X6611754Y2512694D01*
X6624454Y2502783D01*
Y2320891D01*
X6511810Y2208247D01*
X6488671D01*
X6484055Y2215155D01*
X6473214Y2222399D01*
X6460426Y2224943D01*
X6278176D01*
X6265388Y2222399D01*
X6254546Y2215155D01*
X6250546Y2209168D01*
X6200248D01*
Y2240901D01*
X6068801D01*
Y2103700D01*
X6200248D01*
Y2131475D01*
X6249315D01*
X6254546Y2123647D01*
X6265388Y2116403D01*
X6278176Y2113859D01*
X6460426D01*
X6473214Y2116403D01*
X6484055Y2123647D01*
X6488671Y2130554D01*
X6527901D01*
X6542766Y2133511D01*
X6555369Y2141932D01*
X6690769Y2277332D01*
X6699190Y2289935D01*
X6702147Y2304801D01*
Y2690554D01*
X6726974D01*
X6730076Y2689937D01*
X6835326D01*
X6846553Y2692170D01*
X6856071Y2698530D01*
X6862431Y2708048D01*
X6864664Y2719276D01*
Y2739526D01*
X6862431Y2750753D01*
X6856071Y2760271D01*
X6846553Y2766631D01*
X6835326Y2768864D01*
X6730076D01*
X6726974Y2768247D01*
X6678180D01*
X6663314Y2765290D01*
X6650711Y2756869D01*
X6641701Y2747859D01*
X6633490Y2756069D01*
X6620887Y2764490D01*
X6606022Y2767447D01*
X6585165D01*
X6583664Y2769276D01*
Y2789526D01*
X6584508Y2790554D01*
X6613612D01*
X6625400Y2788209D01*
X6782701D01*
X6791387Y2789937D01*
X6835326D01*
X6846553Y2792170D01*
X6856071Y2798530D01*
X6862431Y2808048D01*
X6863986Y2815868D01*
X6867881Y2827601D01*
X6889920D01*
X6910282Y2836035D01*
X6925867Y2851619D01*
X6934301Y2871981D01*
Y2894021D01*
X6925867Y2914382D01*
X6910282Y2929967D01*
X6889920Y2938401D01*
X6867881D01*
X6847519Y2929967D01*
X6836600Y2919048D01*
X6783501D01*
X6782580Y2918864D01*
X6730076D01*
X6718848Y2916631D01*
X6717733Y2915886D01*
X6702117Y2920595D01*
X6697566Y2931581D01*
X6681982Y2947166D01*
X6661620Y2955600D01*
D02*
G37*
G36*
X2930620Y2936301D02*
X2908581D01*
X2888219Y2927867D01*
X2872635Y2912282D01*
X2864201Y2891921D01*
Y2869881D01*
X2861372Y2865649D01*
X2850300D01*
Y2734201D01*
X2987501D01*
Y2865649D01*
X2977828D01*
X2975000Y2869881D01*
Y2891921D01*
X2966566Y2912282D01*
X2950982Y2927867D01*
X2930620Y2936301D01*
D02*
G37*
G36*
X3189501Y2715511D02*
X3048701D01*
Y2688957D01*
X2987501D01*
Y2715001D01*
X2850300D01*
Y2583554D01*
X2987501D01*
Y2611264D01*
X3048701D01*
Y2584711D01*
X3189501D01*
Y2611264D01*
X3273500D01*
X3303012Y2581753D01*
Y2550401D01*
X3306535Y2532687D01*
X3316569Y2517669D01*
X3331587Y2507635D01*
X3349301Y2504111D01*
X3475552D01*
X3481754Y2497909D01*
Y2296800D01*
X3484711Y2281934D01*
X3493131Y2269331D01*
X4017558Y1744905D01*
X4012297Y1732205D01*
X3934575D01*
X3852648Y1814132D01*
X3815077Y1776561D01*
X3773814Y1817824D01*
X3761211Y1826245D01*
X3746345Y1829202D01*
X3724470D01*
X3663755Y1889916D01*
X3571266Y1797427D01*
X3670826Y1697866D01*
X3724469Y1751509D01*
X3730254D01*
X3760140Y1721624D01*
X3717732Y1679216D01*
X3838506Y1558443D01*
X3934575Y1654512D01*
X4005052D01*
X4111413Y1548151D01*
X4019689Y1456427D01*
X3899216D01*
X3817289Y1538354D01*
X3682373Y1403438D01*
X3722577Y1363234D01*
X3687802Y1328459D01*
X3669026Y1347236D01*
X3569466Y1247675D01*
X3661955Y1155186D01*
X3761516Y1254746D01*
X3742740Y1273522D01*
X3777514Y1308297D01*
X3803147Y1282664D01*
X3854767Y1334284D01*
X3867005Y1328561D01*
X3874934Y1309419D01*
X3890519Y1293834D01*
X3910880Y1285400D01*
X3932920D01*
X3953281Y1293834D01*
X3961401Y1301953D01*
X4017668D01*
X4020114Y1299362D01*
X4024076Y1289253D01*
X4020774Y1284311D01*
X4018803Y1274401D01*
Y926801D01*
X4020774Y916890D01*
X4026388Y908488D01*
X4032688Y902188D01*
X4041090Y896575D01*
X4051001Y894603D01*
X4256001D01*
X4265911Y896575D01*
X4274313Y902188D01*
X4284113Y911988D01*
X4289727Y920390D01*
X4291698Y930301D01*
Y1175273D01*
X4299001Y1181266D01*
X4441001D01*
X4453642Y1183781D01*
X4455819Y1185235D01*
X4462754Y1186615D01*
X4465013Y1186857D01*
X4475454Y1180125D01*
Y1161810D01*
X4472966Y1149301D01*
Y1007301D01*
X4475481Y994659D01*
X4482642Y983942D01*
X4493359Y976781D01*
X4506001Y974266D01*
X4520001D01*
X4532642Y976781D01*
X4538001Y980361D01*
X4543359Y976781D01*
X4556001Y974266D01*
X4570001D01*
X4582642Y976781D01*
X4588000Y980361D01*
X4593359Y976781D01*
X4606001Y974266D01*
X4620001D01*
X4632643Y976781D01*
X4638001Y980361D01*
X4643359Y976781D01*
X4656001Y974266D01*
X4670001D01*
X4682642Y976781D01*
X4688001Y980361D01*
X4693359Y976781D01*
X4706000Y974266D01*
X4720000D01*
X4732642Y976781D01*
X4738001Y980361D01*
X4743359Y976781D01*
X4756001Y974266D01*
X4770001D01*
X4782642Y976781D01*
X4788001Y980361D01*
X4793359Y976781D01*
X4806001Y974266D01*
X4820000D01*
X4824154Y970857D01*
Y697401D01*
X4827111Y682535D01*
X4835532Y669932D01*
X4985932Y519532D01*
X4998535Y511111D01*
X5013401Y508154D01*
X6061401D01*
X6076266Y511111D01*
X6088869Y519532D01*
X6122637Y553300D01*
X6199148D01*
Y593854D01*
X6249931D01*
X6254546Y586947D01*
X6265388Y579703D01*
X6278176Y577159D01*
X6330454D01*
Y561243D01*
X6278176D01*
X6265388Y558699D01*
X6254546Y551455D01*
X6247302Y540614D01*
X6244759Y527826D01*
Y483576D01*
X6247302Y470788D01*
X6254546Y459947D01*
X6265388Y452703D01*
X6278176Y450159D01*
X6460426D01*
X6473214Y452703D01*
X6484055Y459947D01*
X6491299Y470788D01*
X6493843Y483576D01*
Y527826D01*
X6491299Y540614D01*
X6484055Y551455D01*
X6473214Y558699D01*
X6460426Y561243D01*
X6408147D01*
Y577159D01*
X6460426D01*
X6473214Y579703D01*
X6484055Y586947D01*
X6491299Y597788D01*
X6493843Y610576D01*
Y654826D01*
X6491299Y667614D01*
X6484055Y678455D01*
X6473214Y685699D01*
X6460426Y688243D01*
X6278176D01*
X6265388Y685699D01*
X6254546Y678455D01*
X6249931Y671547D01*
X6199148D01*
Y686300D01*
X6199148D01*
Y719554D01*
X6250799D01*
X6254546Y713947D01*
X6265388Y706703D01*
X6278176Y704159D01*
X6460426D01*
X6473214Y706703D01*
X6484055Y713947D01*
X6491299Y724788D01*
X6493843Y737576D01*
Y781826D01*
X6491299Y794614D01*
X6484055Y805455D01*
X6473214Y812699D01*
X6460426Y815243D01*
X6426373D01*
X6421513Y826976D01*
X6480674Y886137D01*
X6555126D01*
X6566353Y888370D01*
X6575871Y894730D01*
X6577013Y896440D01*
X6577922Y897389D01*
X6579524Y896923D01*
X6583189Y882626D01*
X6563932Y863369D01*
X6555511Y850767D01*
X6552554Y835901D01*
Y470991D01*
X6500381Y418819D01*
X6487275Y419636D01*
X6484055Y424455D01*
X6473214Y431699D01*
X6460426Y434243D01*
X6278176D01*
X6265388Y431699D01*
X6254546Y424455D01*
X6252002Y420647D01*
X6197448D01*
Y461201D01*
X6066000D01*
Y324000D01*
X6197448D01*
Y342954D01*
X6247859D01*
X6254546Y332947D01*
X6265388Y325703D01*
X6278176Y323159D01*
X6460426D01*
X6473214Y325703D01*
X6484055Y332947D01*
X6488671Y339854D01*
X6515201D01*
X6530066Y342811D01*
X6542669Y351232D01*
X6618869Y427432D01*
X6627290Y440035D01*
X6630247Y454901D01*
Y479247D01*
X6642947Y481773D01*
X6646035Y474319D01*
X6661619Y458735D01*
X6681981Y450301D01*
X6704020D01*
X6724382Y458735D01*
X6732501Y466854D01*
X6744930D01*
X6749546Y459947D01*
X6760387Y452703D01*
X6773175Y450159D01*
X6955426D01*
X6968214Y452703D01*
X6979055Y459947D01*
X6986299Y470788D01*
X6988843Y483576D01*
Y527826D01*
X6986299Y540614D01*
X6979055Y551455D01*
X6968214Y558699D01*
X6955426Y561243D01*
X6773175D01*
X6760387Y558699D01*
X6749546Y551455D01*
X6744930Y544547D01*
X6732501D01*
X6724382Y552667D01*
X6704020Y561101D01*
X6681981D01*
X6661619Y552667D01*
X6646035Y537082D01*
X6642947Y529628D01*
X6630247Y532154D01*
Y819810D01*
X6697191Y886754D01*
X6727774D01*
X6730876Y886137D01*
X6836126D01*
X6847353Y888370D01*
X6856871Y894730D01*
X6863231Y904248D01*
X6865464Y915476D01*
Y935726D01*
X6863231Y946953D01*
X6856871Y956471D01*
X6847353Y962831D01*
X6836126Y965064D01*
X6730876D01*
X6727774Y964447D01*
X6681100D01*
X6678621Y963954D01*
X6672733Y973722D01*
X6679362Y984409D01*
X6783501D01*
X6791267Y985954D01*
X7374998D01*
X7377318Y983634D01*
X7397680Y975200D01*
X7419720D01*
X7440081Y983634D01*
X7455666Y999218D01*
X7464100Y1019580D01*
Y1041620D01*
X7455666Y1061981D01*
X7440081Y1077566D01*
X7419720Y1086000D01*
X7397680D01*
X7377318Y1077566D01*
X7363400Y1063647D01*
X6866965D01*
X6865464Y1065476D01*
Y1085726D01*
X6863231Y1096953D01*
X6856871Y1106471D01*
X6847353Y1112831D01*
X6836126Y1115064D01*
X6783621D01*
X6782701Y1115247D01*
X6744390D01*
X6680768Y1178869D01*
X6668166Y1187289D01*
X6653300Y1190247D01*
X5988000D01*
X5973134Y1187289D01*
X5960531Y1178869D01*
X5746432Y964769D01*
X5738011Y952166D01*
X5735054Y937301D01*
Y881551D01*
X5724494Y874495D01*
X5720620Y876100D01*
X5698580D01*
X5678219Y867666D01*
X5662634Y852081D01*
X5654200Y831720D01*
Y809680D01*
X5662634Y789318D01*
X5675854Y776099D01*
Y716891D01*
X5631710Y672747D01*
X5082892D01*
X5001847Y753792D01*
Y1001327D01*
X5003035Y1007301D01*
Y1149301D01*
X5000521Y1161943D01*
X4993360Y1172660D01*
X4982642Y1179821D01*
X4970000Y1182335D01*
X4956001D01*
X4943359Y1179821D01*
X4938001Y1176241D01*
X4932642Y1179821D01*
X4920001Y1182335D01*
X4906001D01*
X4893359Y1179821D01*
X4888001Y1176241D01*
X4882643Y1179821D01*
X4870001Y1182335D01*
X4856001D01*
X4843359Y1179821D01*
X4838000Y1176241D01*
X4832642Y1179821D01*
X4820001Y1182335D01*
X4806001D01*
X4793359Y1179821D01*
X4788001Y1176241D01*
X4782642Y1179821D01*
X4770001Y1182335D01*
X4756001D01*
X4743359Y1179821D01*
X4738001Y1176241D01*
X4732642Y1179821D01*
X4720000Y1182335D01*
X4706000D01*
X4693359Y1179821D01*
X4688001Y1176241D01*
X4682642Y1179821D01*
X4670001Y1182335D01*
X4664579D01*
X4656079Y1195002D01*
Y1217042D01*
X4647645Y1237403D01*
X4632061Y1252988D01*
X4629089Y1254218D01*
X4626612Y1266675D01*
X4636314Y1276377D01*
X4642747Y1273712D01*
X4664787D01*
X4685148Y1282146D01*
X4700733Y1297731D01*
X4709167Y1318092D01*
Y1340132D01*
X4700733Y1360494D01*
X4685148Y1376078D01*
X4664787Y1384512D01*
X4642747D01*
X4622385Y1376078D01*
X4606801Y1360494D01*
X4603362Y1352191D01*
X4600023Y1349960D01*
X4566156Y1316093D01*
X4556915Y1317931D01*
X4541331Y1333515D01*
X4520970Y1341950D01*
X4498930D01*
X4485385Y1336339D01*
X4477881Y1338831D01*
X4471521Y1351659D01*
X4474035Y1364301D01*
Y1378301D01*
X4471521Y1390943D01*
X4464360Y1401660D01*
X4453642Y1408821D01*
X4441001Y1411336D01*
X4299001D01*
X4291239Y1409792D01*
X4289285Y1410601D01*
X4286734D01*
X4284233Y1411098D01*
X4174629D01*
X4169769Y1422832D01*
X4179391Y1432454D01*
X4293027D01*
X4299001Y1431266D01*
X4441001D01*
X4453642Y1433781D01*
X4464360Y1440942D01*
X4471521Y1451659D01*
X4474035Y1464301D01*
Y1478301D01*
X4471521Y1490943D01*
X4467941Y1496301D01*
X4471521Y1501659D01*
X4474035Y1514301D01*
Y1528301D01*
X4471521Y1540943D01*
X4467941Y1546301D01*
X4471521Y1551659D01*
X4474035Y1564301D01*
Y1578301D01*
X4471521Y1590943D01*
X4467941Y1596301D01*
X4471521Y1601659D01*
X4474035Y1614301D01*
Y1628301D01*
X4471521Y1640943D01*
X4467941Y1646301D01*
X4471521Y1651659D01*
X4474035Y1664301D01*
Y1678301D01*
X4471521Y1690943D01*
X4467941Y1696301D01*
X4471521Y1701659D01*
X4474035Y1714301D01*
Y1728301D01*
X4471521Y1740943D01*
X4467941Y1746301D01*
X4471521Y1751659D01*
X4474035Y1764301D01*
Y1778301D01*
X4471521Y1790943D01*
X4464360Y1801660D01*
X4453642Y1808821D01*
X4441001Y1811335D01*
X4299001D01*
X4286359Y1808821D01*
X4275642Y1801660D01*
X4268481Y1790943D01*
X4265966Y1778301D01*
Y1764301D01*
X4268481Y1751659D01*
X4272061Y1746301D01*
X4268481Y1740943D01*
X4265966Y1728301D01*
Y1714301D01*
X4268481Y1701659D01*
X4272061Y1696301D01*
X4268481Y1690943D01*
X4265966Y1678301D01*
Y1664301D01*
X4268481Y1651659D01*
X4272061Y1646301D01*
X4268481Y1640943D01*
X4265966Y1628301D01*
Y1614301D01*
X4262557Y1610147D01*
X4197256D01*
X4191995Y1622847D01*
X4199666Y1630518D01*
X4208100Y1650880D01*
Y1672920D01*
X4199666Y1693281D01*
X4184082Y1708866D01*
X4163720Y1717300D01*
X4155037D01*
X3559447Y2312890D01*
Y2514000D01*
X3556489Y2528866D01*
X3548069Y2541469D01*
X3525590Y2563947D01*
Y2590401D01*
X3522067Y2608115D01*
X3512033Y2623132D01*
X3497015Y2633167D01*
X3479301Y2636690D01*
X3357949D01*
X3317060Y2677579D01*
X3304457Y2686000D01*
X3289591Y2688957D01*
X3189501D01*
Y2715511D01*
D02*
G37*
G36*
X5584200Y2889401D02*
X5363401D01*
Y2668601D01*
X5584200D01*
Y2889401D01*
D02*
G37*
G36*
X3828601Y2978290D02*
X3698601D01*
X3680887Y2974766D01*
X3665869Y2964732D01*
X3655835Y2949715D01*
X3652311Y2932000D01*
Y2892001D01*
X3655835Y2874286D01*
X3665869Y2859269D01*
X3680887Y2849235D01*
X3698601Y2845711D01*
X3828601D01*
X3846315Y2849235D01*
X3861332Y2859269D01*
X3861594Y2859661D01*
X3874233Y2860905D01*
X3934500Y2800638D01*
Y2724128D01*
X4071701D01*
Y2751005D01*
X4246658D01*
X4674154Y2323509D01*
Y2021744D01*
X4670000Y2018335D01*
X4656001D01*
X4643359Y2015821D01*
X4638001Y2012241D01*
X4632643Y2015821D01*
X4620001Y2018335D01*
X4606001D01*
X4593359Y2015821D01*
X4582642Y2008660D01*
X4575481Y1997942D01*
X4572966Y1985301D01*
Y1843301D01*
X4575481Y1830659D01*
X4582642Y1819942D01*
X4593359Y1812781D01*
X4606001Y1810266D01*
X4620001D01*
X4632643Y1812781D01*
X4638001Y1816361D01*
X4643359Y1812781D01*
X4656001Y1810266D01*
X4670001D01*
X4682642Y1812781D01*
X4688001Y1816361D01*
X4693359Y1812781D01*
X4706000Y1810266D01*
X4720000D01*
X4732642Y1812781D01*
X4738001Y1816361D01*
X4743359Y1812781D01*
X4756001Y1810266D01*
X4770001D01*
X4782642Y1812781D01*
X4788001Y1816361D01*
X4793359Y1812781D01*
X4806001Y1810266D01*
X4820001D01*
X4832642Y1812781D01*
X4838000Y1816361D01*
X4843359Y1812781D01*
X4856001Y1810266D01*
X4870001D01*
X4882643Y1812781D01*
X4888001Y1816361D01*
X4893359Y1812781D01*
X4906001Y1810266D01*
X4920001D01*
X4932642Y1812781D01*
X4938001Y1816361D01*
X4943359Y1812781D01*
X4956001Y1810266D01*
X4970000D01*
X4982642Y1812781D01*
X4988001Y1816361D01*
X4993359Y1812781D01*
X5006001Y1810266D01*
X5020001D01*
X5032642Y1812781D01*
X5038001Y1816361D01*
X5043359Y1812781D01*
X5056001Y1810266D01*
X5056254D01*
Y1705128D01*
X5059211Y1690262D01*
X5067632Y1677659D01*
X5100159Y1645132D01*
X5105082Y1641843D01*
X5104481Y1640943D01*
X5101966Y1628301D01*
Y1614301D01*
X5104481Y1601659D01*
X5108061Y1596301D01*
X5104481Y1590943D01*
X5101966Y1578301D01*
Y1564301D01*
X5098557Y1560147D01*
X5083861D01*
X5076266Y1578482D01*
X5060682Y1594067D01*
X5040320Y1602501D01*
X5018281D01*
X4997919Y1594067D01*
X4982335Y1578482D01*
X4973901Y1558121D01*
Y1536081D01*
X4982335Y1515719D01*
X4993621Y1504433D01*
X4996542Y1496301D01*
X4993621Y1488169D01*
X4982335Y1476882D01*
X4973901Y1456521D01*
Y1434481D01*
X4982335Y1414119D01*
X4997919Y1398535D01*
X5018281Y1390101D01*
X5040320D01*
X5060682Y1398535D01*
X5076266Y1414119D01*
X5083861Y1432454D01*
X5098557D01*
X5101966Y1428300D01*
Y1414301D01*
X5104481Y1401659D01*
X5108061Y1396301D01*
X5104481Y1390943D01*
X5101966Y1378301D01*
Y1364301D01*
X5104481Y1351659D01*
X5108061Y1346301D01*
X5104481Y1340943D01*
X5101966Y1328301D01*
Y1314301D01*
X5104481Y1301659D01*
X5108061Y1296301D01*
X5104481Y1290943D01*
X5101966Y1278301D01*
Y1264301D01*
X5104481Y1251659D01*
X5108061Y1246301D01*
X5104481Y1240943D01*
X5101966Y1228301D01*
Y1214301D01*
X5104481Y1201659D01*
X5110935Y1191998D01*
X5109716Y1186817D01*
X5106207Y1179298D01*
X5083424D01*
X5082642Y1179821D01*
X5070001Y1182335D01*
X5056001D01*
X5043359Y1179821D01*
X5032641Y1172660D01*
X5025480Y1161943D01*
X5022966Y1149301D01*
Y1007301D01*
X5025480Y994659D01*
X5025838Y994125D01*
Y993211D01*
X5026814Y990855D01*
X5027311Y988353D01*
X5028728Y986232D01*
X5029704Y983876D01*
X5031508Y982072D01*
X5032925Y979951D01*
X5122988Y889888D01*
X5131390Y884275D01*
X5141300Y882303D01*
X5456801D01*
X5466711Y884275D01*
X5475113Y889888D01*
X5488812Y903588D01*
X5494426Y911989D01*
X5496397Y921900D01*
X5496398Y982650D01*
Y1057101D01*
X5494427Y1067011D01*
X5488813Y1075413D01*
X5392513Y1171713D01*
X5384111Y1177327D01*
X5374201Y1179298D01*
X5305794D01*
X5302285Y1186817D01*
X5301066Y1191998D01*
X5307520Y1201659D01*
X5310035Y1214301D01*
Y1228301D01*
X5307520Y1240943D01*
X5303940Y1246301D01*
X5307520Y1251659D01*
X5310035Y1264301D01*
Y1278301D01*
X5307520Y1290943D01*
X5303940Y1296301D01*
X5307520Y1301659D01*
X5310035Y1314301D01*
Y1328301D01*
X5307520Y1340943D01*
X5303940Y1346301D01*
X5307520Y1351659D01*
X5310035Y1364301D01*
Y1378301D01*
X5307520Y1390943D01*
X5303940Y1396301D01*
X5307520Y1401659D01*
X5310035Y1414301D01*
Y1428301D01*
X5307520Y1440943D01*
X5303940Y1446301D01*
X5307520Y1451659D01*
X5310035Y1464301D01*
Y1478301D01*
X5307520Y1490943D01*
X5303940Y1496301D01*
X5307520Y1501659D01*
X5310035Y1514301D01*
Y1528300D01*
X5313444Y1532454D01*
X5483550D01*
X5498416Y1535411D01*
X5505434Y1540101D01*
X5522720D01*
X5543082Y1548535D01*
X5558667Y1564119D01*
X5567101Y1584481D01*
Y1606521D01*
X5558667Y1626882D01*
X5543082Y1642467D01*
X5522720Y1650901D01*
X5500681D01*
X5480319Y1642467D01*
X5464735Y1626882D01*
X5457803Y1610147D01*
X5313444D01*
X5310035Y1614301D01*
Y1628301D01*
X5307520Y1640943D01*
X5303940Y1646301D01*
X5307520Y1651659D01*
X5310035Y1664301D01*
Y1678301D01*
X5307520Y1690943D01*
X5300359Y1701660D01*
X5289642Y1708821D01*
X5277000Y1711335D01*
X5205262D01*
X5204701Y1711447D01*
X5145933D01*
X5139799Y1718794D01*
X5144253Y1731266D01*
X5277000D01*
X5282600Y1732380D01*
X5282769Y1732267D01*
X5282955Y1731988D01*
X5285075Y1730572D01*
X5286878Y1728768D01*
X5289236Y1727792D01*
X5291357Y1726374D01*
X5293858Y1725877D01*
X5296214Y1724901D01*
X5298765Y1724901D01*
X5301268Y1724403D01*
X5432470D01*
X5434401Y1724019D01*
X5509600D01*
X5511531Y1724403D01*
X5511901D01*
X5521811Y1726374D01*
X5521968Y1726479D01*
X5523179Y1726720D01*
X5534690Y1734412D01*
X5538825Y1740601D01*
X5542913Y1744688D01*
X5548527Y1753090D01*
X5550498Y1763001D01*
Y2029701D01*
X5548527Y2039611D01*
X5542913Y2048013D01*
X5534511Y2053627D01*
X5524601Y2055598D01*
X5232501D01*
X5222590Y2053627D01*
X5214188Y2048013D01*
X5155280Y1989105D01*
X5143547Y1993965D01*
Y1999674D01*
X5142247Y2006209D01*
Y2625310D01*
X5189707Y2672770D01*
X5205266Y2668601D01*
X5234335D01*
X5262413Y2676124D01*
X5287588Y2690659D01*
X5308143Y2711214D01*
X5322677Y2736388D01*
X5330200Y2764466D01*
Y2793535D01*
X5322677Y2821614D01*
X5308143Y2846788D01*
X5287588Y2867343D01*
X5262413Y2881877D01*
X5234335Y2889401D01*
X5205266D01*
X5177188Y2881877D01*
X5152013Y2867343D01*
X5131459Y2846788D01*
X5116924Y2821614D01*
X5109401Y2793535D01*
Y2764466D01*
X5116924Y2736388D01*
X5126634Y2719571D01*
X5083836Y2676774D01*
X5051770Y2708841D01*
X5054143Y2711214D01*
X5068677Y2736388D01*
X5076200Y2764466D01*
Y2793535D01*
X5068677Y2821614D01*
X5054143Y2846788D01*
X5033588Y2867343D01*
X5008413Y2881877D01*
X4980335Y2889401D01*
X4951266D01*
X4923188Y2881877D01*
X4898013Y2867343D01*
X4877459Y2846788D01*
X4862924Y2821614D01*
X4855401Y2793535D01*
Y2764466D01*
X4862924Y2736388D01*
X4877459Y2711214D01*
X4898013Y2690659D01*
X4923188Y2676124D01*
X4951266Y2668601D01*
X4980335D01*
X4981754Y2668981D01*
X5024154Y2626581D01*
Y2439705D01*
X5015800Y2430465D01*
X4911000D01*
Y2410779D01*
X4876601D01*
Y2420765D01*
X4771800D01*
Y2313399D01*
X4876601D01*
Y2333086D01*
X4911000D01*
Y2236536D01*
X4962146D01*
X4974154Y2224528D01*
Y2021744D01*
X4970000Y2018335D01*
X4956001D01*
X4943359Y2015821D01*
X4938001Y2012241D01*
X4932642Y2015821D01*
X4920001Y2018335D01*
X4906001D01*
X4893359Y2015821D01*
X4888001Y2012241D01*
X4882643Y2015821D01*
X4870001Y2018335D01*
X4856001D01*
X4843359Y2015821D01*
X4838000Y2012241D01*
X4832642Y2015821D01*
X4820001Y2018335D01*
X4806001D01*
X4793359Y2015821D01*
X4788001Y2012241D01*
X4782642Y2015821D01*
X4770001Y2018335D01*
X4756001D01*
X4751847Y2021744D01*
Y2339600D01*
X4748890Y2354466D01*
X4740469Y2367068D01*
X4290217Y2817320D01*
X4277615Y2825741D01*
X4262749Y2828698D01*
X4071701D01*
Y2855575D01*
X3989438D01*
X3908143Y2936869D01*
X3895541Y2945290D01*
X3880675Y2948247D01*
X3871658D01*
X3871367Y2949715D01*
X3861332Y2964732D01*
X3846315Y2974766D01*
X3828601Y2978290D01*
D02*
G37*
G36*
X6045700Y2621701D02*
X5914253D01*
Y2613091D01*
X5903693Y2606035D01*
X5901844Y2606801D01*
X5879805D01*
X5859443Y2598367D01*
X5843859Y2582782D01*
X5835425Y2562421D01*
Y2540381D01*
X5843859Y2520019D01*
X5859443Y2504435D01*
X5879805Y2496001D01*
X5901844D01*
X5903693Y2496767D01*
X5914253Y2489711D01*
Y2484500D01*
X6045700D01*
Y2621701D01*
D02*
G37*
G36*
X8044985Y2995601D02*
X8008016D01*
X7972308Y2986033D01*
X7940293Y2967549D01*
X7914153Y2941408D01*
X7895669Y2909393D01*
X7886101Y2873685D01*
Y2836717D01*
X7895669Y2801008D01*
X7914153Y2768993D01*
X7940293Y2742853D01*
X7972308Y2724369D01*
X7987654Y2720257D01*
Y2662691D01*
X7721810Y2396847D01*
X7324207D01*
X7314648Y2409238D01*
Y2486701D01*
X7315249Y2487301D01*
X7315248D01*
Y2556740D01*
X7325808Y2563795D01*
X7329658Y2562201D01*
X7351697D01*
X7372059Y2570635D01*
X7387643Y2586219D01*
X7396077Y2606581D01*
Y2628621D01*
X7387643Y2648982D01*
X7372059Y2664567D01*
X7351697Y2673001D01*
X7329658D01*
X7309296Y2664567D01*
X7299731Y2655001D01*
X7292135Y2653490D01*
X7279532Y2645069D01*
X7258964Y2624501D01*
X7187498D01*
Y2698101D01*
X7185527Y2708011D01*
X7179913Y2716413D01*
X7179912Y2716413D01*
X7167213Y2729113D01*
X7158811Y2734727D01*
X7148901Y2736698D01*
X6996501D01*
X6986590Y2734727D01*
X6978188Y2729113D01*
X6965488Y2716413D01*
X6959874Y2708011D01*
X6957903Y2698101D01*
Y2669786D01*
X6955101Y2663021D01*
Y2642526D01*
X6947673Y2635098D01*
X6767901D01*
X6757990Y2633127D01*
X6749588Y2627513D01*
X6743974Y2619111D01*
X6742003Y2609201D01*
Y2583810D01*
X6739758Y2572526D01*
Y2528276D01*
X6742003Y2516992D01*
Y2507601D01*
X6743974Y2497690D01*
X6749588Y2489288D01*
X6753203Y2486873D01*
X6754376Y2473068D01*
X6754073Y2472180D01*
X6749546Y2469155D01*
X6742302Y2458314D01*
X6739758Y2445526D01*
Y2401276D01*
X6742302Y2388488D01*
X6749546Y2377647D01*
X6760387Y2370403D01*
X6773175Y2367859D01*
X6955426D01*
X6968214Y2370403D01*
X6979055Y2377647D01*
X6985207Y2386854D01*
X7032553D01*
Y2359974D01*
X7019853Y2351488D01*
X7012820Y2354401D01*
X6990781D01*
X6972229Y2346716D01*
X6968214Y2349399D01*
X6955426Y2351943D01*
X6773175D01*
X6760387Y2349399D01*
X6749546Y2342155D01*
X6742302Y2331314D01*
X6739758Y2318526D01*
Y2274276D01*
X6742302Y2261488D01*
X6749546Y2250647D01*
X6760387Y2243403D01*
X6773175Y2240859D01*
X6955426D01*
X6968214Y2243403D01*
X6977033Y2249295D01*
X6990781Y2243601D01*
X7012820D01*
X7033182Y2252035D01*
X7048766Y2267619D01*
X7057201Y2287981D01*
Y2310021D01*
X7048766Y2330382D01*
X7042348Y2336801D01*
X7047609Y2349501D01*
X7085254D01*
Y2348901D01*
X7088211Y2334035D01*
X7096632Y2321433D01*
X7184325Y2233740D01*
Y2151600D01*
X7315772D01*
Y2172954D01*
X7846022D01*
X7860888Y2175911D01*
X7873490Y2184332D01*
X7932152Y2242994D01*
X7940293Y2234853D01*
X7972308Y2216369D01*
X8008016Y2206801D01*
X8044985D01*
X8080693Y2216369D01*
X8112708Y2234853D01*
X8138848Y2260993D01*
X8157332Y2293008D01*
X8166900Y2328717D01*
Y2365685D01*
X8157332Y2401393D01*
X8138848Y2433408D01*
X8112708Y2459549D01*
X8080693Y2478033D01*
X8044985Y2487601D01*
X8008016D01*
X7972308Y2478033D01*
X7940293Y2459549D01*
X7914153Y2433408D01*
X7895669Y2401393D01*
X7886101Y2365685D01*
Y2328717D01*
X7890729Y2311445D01*
X7829931Y2250647D01*
X7315772D01*
Y2288801D01*
X7239138D01*
X7191138Y2336801D01*
X7196399Y2349501D01*
X7250164D01*
X7269132Y2330532D01*
X7281735Y2322111D01*
X7296601Y2319154D01*
X7737901D01*
X7752767Y2322111D01*
X7765369Y2330532D01*
X8053969Y2619132D01*
X8062390Y2631735D01*
X8065347Y2646601D01*
Y2720257D01*
X8080693Y2724369D01*
X8112708Y2742853D01*
X8138848Y2768993D01*
X8157332Y2801008D01*
X8166900Y2836717D01*
Y2873685D01*
X8157332Y2909393D01*
X8138848Y2941408D01*
X8112708Y2967549D01*
X8080693Y2986033D01*
X8044985Y2995601D01*
D02*
G37*
G36*
X6460426Y2478943D02*
X6278176D01*
X6265388Y2476399D01*
X6254546Y2469155D01*
X6247302Y2458314D01*
X6246295Y2453247D01*
X6238600D01*
X6223735Y2450290D01*
X6215519Y2444801D01*
X6204081D01*
X6197848Y2448965D01*
Y2458801D01*
X6066401D01*
Y2321600D01*
X6197848D01*
Y2329836D01*
X6204081Y2334001D01*
X6226120D01*
X6236772Y2338413D01*
X6241603Y2335156D01*
X6246807Y2328823D01*
X6244759Y2318526D01*
Y2274276D01*
X6247302Y2261488D01*
X6254546Y2250647D01*
X6265388Y2243403D01*
X6278176Y2240859D01*
X6460426D01*
X6473214Y2243403D01*
X6484055Y2250647D01*
X6491299Y2261488D01*
X6493843Y2274276D01*
Y2301406D01*
X6499448Y2307011D01*
X6507869Y2319614D01*
X6510826Y2334480D01*
Y2389722D01*
X6507869Y2404588D01*
X6499448Y2417190D01*
X6493843Y2422796D01*
Y2445526D01*
X6491299Y2458314D01*
X6484055Y2469155D01*
X6473214Y2476399D01*
X6460426Y2478943D01*
D02*
G37*
G36*
X6047201Y2458801D02*
X5915753D01*
Y2448812D01*
X5905193Y2441756D01*
X5897120Y2445100D01*
X5875080D01*
X5854719Y2436666D01*
X5839134Y2421082D01*
X5830700Y2400720D01*
Y2378680D01*
X5839134Y2358319D01*
X5854719Y2342734D01*
X5875080Y2334300D01*
X5897120D01*
X5905193Y2337644D01*
X5915753Y2330588D01*
Y2321600D01*
X6047201D01*
Y2458801D01*
D02*
G37*
G36*
X3828601Y2638290D02*
X3698601D01*
X3680887Y2634767D01*
X3665869Y2624733D01*
X3655835Y2609715D01*
X3652311Y2592001D01*
Y2552001D01*
X3655835Y2534287D01*
X3665869Y2519269D01*
X3680887Y2509235D01*
X3698601Y2505712D01*
X3813519D01*
X3822400Y2496620D01*
Y2474580D01*
X3830834Y2454219D01*
X3846419Y2438634D01*
X3866780Y2430200D01*
X3888820D01*
X3909181Y2438634D01*
X3924766Y2454219D01*
X3933200Y2474580D01*
Y2496620D01*
X3924766Y2516982D01*
X3909181Y2532566D01*
X3904244Y2534611D01*
X3874890Y2563965D01*
Y2592001D01*
X3871367Y2609715D01*
X3861332Y2624733D01*
X3846315Y2634767D01*
X3828601Y2638290D01*
D02*
G37*
G36*
X6049600Y2240901D02*
X5918153D01*
Y2232208D01*
X5907593Y2225153D01*
X5898544Y2228901D01*
X5876505D01*
X5856143Y2220466D01*
X5840559Y2204882D01*
X5832124Y2184520D01*
Y2162481D01*
X5840559Y2142119D01*
X5856143Y2126535D01*
X5876505Y2118101D01*
X5898544D01*
X5907593Y2121849D01*
X5918153Y2114793D01*
Y2103700D01*
X6049600D01*
Y2240901D01*
D02*
G37*
G36*
X6653420Y2101300D02*
X6631380D01*
X6611019Y2092866D01*
X6595434Y2077281D01*
X6587000Y2056920D01*
Y2049237D01*
X6554310Y2016547D01*
X6532027D01*
X6528925Y2017164D01*
X6423675D01*
X6412448Y2014931D01*
X6402930Y2008571D01*
X6396570Y1999053D01*
X6395497Y1993659D01*
X6393152Y1992092D01*
X5737600D01*
X5721837Y1988956D01*
X5708473Y1980027D01*
X5708047Y1979600D01*
X5702180D01*
X5681818Y1971166D01*
X5666234Y1955582D01*
X5657800Y1935220D01*
Y1913180D01*
X5666234Y1892819D01*
X5681818Y1877234D01*
X5702180Y1868800D01*
X5724220D01*
X5744581Y1877234D01*
X5760166Y1892819D01*
X5767162Y1909709D01*
X6302513D01*
X6310999Y1897008D01*
X6307401Y1888321D01*
Y1866281D01*
X6315835Y1845919D01*
X6331419Y1830335D01*
X6351781Y1821901D01*
X6373820D01*
X6381637Y1825139D01*
X6394041Y1817752D01*
X6394507Y1816723D01*
X6396570Y1806348D01*
X6402930Y1796830D01*
X6412448Y1790470D01*
X6423675Y1788237D01*
X6528925D01*
X6532027Y1788854D01*
X6562454D01*
Y1687547D01*
X6488671D01*
X6484055Y1694455D01*
X6473214Y1701699D01*
X6460426Y1704243D01*
X6278176D01*
X6265388Y1701699D01*
X6254546Y1694455D01*
X6249931Y1687547D01*
X6199348D01*
Y1717001D01*
X6067901D01*
Y1579800D01*
Y1447400D01*
X6199348D01*
Y1452444D01*
X6209908Y1459500D01*
X6217030Y1456550D01*
X6239070D01*
X6259431Y1464984D01*
X6264046Y1469599D01*
X6265388Y1468703D01*
X6278176Y1466159D01*
X6330454D01*
Y1450243D01*
X6278176D01*
X6265388Y1447699D01*
X6254546Y1440455D01*
X6247302Y1429614D01*
X6244759Y1416826D01*
Y1372576D01*
X6247302Y1359788D01*
X6254546Y1348947D01*
X6265388Y1341703D01*
X6278176Y1339159D01*
X6460426D01*
X6473214Y1341703D01*
X6484055Y1348947D01*
X6491299Y1359788D01*
X6493843Y1372576D01*
Y1416826D01*
X6491299Y1429614D01*
X6484055Y1440455D01*
X6473214Y1447699D01*
X6460426Y1450243D01*
X6408147D01*
Y1466159D01*
X6460426D01*
X6473214Y1468703D01*
X6484055Y1475947D01*
X6491299Y1486788D01*
X6493843Y1499576D01*
Y1543826D01*
X6491299Y1556614D01*
X6484055Y1567455D01*
X6473214Y1574699D01*
X6460426Y1577243D01*
X6278176D01*
X6265388Y1574699D01*
X6254546Y1567455D01*
X6251136Y1562352D01*
X6239070Y1567350D01*
X6217030D01*
X6209908Y1564400D01*
X6199348Y1571456D01*
Y1609854D01*
X6249931D01*
X6254546Y1602947D01*
X6265388Y1595703D01*
X6278176Y1593159D01*
X6460426D01*
X6473214Y1595703D01*
X6484055Y1602947D01*
X6488671Y1609854D01*
X6586421D01*
X6590154Y1610597D01*
X6602854Y1600174D01*
Y1422991D01*
X6492487Y1312625D01*
X6484055Y1313455D01*
X6473214Y1320699D01*
X6460426Y1323243D01*
X6278176D01*
X6265388Y1320699D01*
X6254546Y1313455D01*
X6249129Y1305347D01*
X6197848D01*
Y1341801D01*
X6066400D01*
Y1204601D01*
X6197848D01*
Y1227654D01*
X6250732D01*
X6254546Y1221947D01*
X6265388Y1214703D01*
X6278176Y1212159D01*
X6460426D01*
X6473214Y1214703D01*
X6484055Y1221947D01*
X6488671Y1228854D01*
X6502501D01*
X6517366Y1231811D01*
X6529969Y1240232D01*
X6661079Y1371342D01*
X6676060Y1368362D01*
X6677735Y1364319D01*
X6693319Y1348735D01*
X6713681Y1340301D01*
X6735720D01*
X6752243Y1347145D01*
X6760387Y1341703D01*
X6773175Y1339159D01*
X6955426D01*
X6968214Y1341703D01*
X6979055Y1348947D01*
X6986299Y1359788D01*
X6988843Y1372576D01*
Y1416826D01*
X6986299Y1429614D01*
X6979055Y1440455D01*
X6968214Y1447699D01*
X6955426Y1450243D01*
X6773175D01*
X6760387Y1447699D01*
X6754091Y1443492D01*
X6735720Y1451101D01*
X6713681D01*
X6693319Y1442667D01*
X6692280Y1441628D01*
X6680547Y1446488D01*
Y1788854D01*
X6701574D01*
X6704676Y1788237D01*
X6809926D01*
X6821153Y1790470D01*
X6830671Y1796830D01*
X6837031Y1806348D01*
X6839264Y1817576D01*
Y1837826D01*
X6837031Y1849053D01*
X6830671Y1858571D01*
X6821153Y1864931D01*
X6809926Y1867164D01*
X6704676D01*
X6701574Y1866547D01*
X6656580D01*
X6641714Y1863590D01*
X6629111Y1855169D01*
X6621501Y1847559D01*
X6613890Y1855169D01*
X6601287Y1863590D01*
X6586421Y1866547D01*
X6559108D01*
X6558264Y1867576D01*
Y1886509D01*
X6757301D01*
X6765987Y1888237D01*
X6809926D01*
X6821153Y1890470D01*
X6830671Y1896830D01*
X6837031Y1906348D01*
X6838281Y1912633D01*
X6850482Y1921326D01*
X6853681Y1920001D01*
X6875720D01*
X6896082Y1928435D01*
X6911666Y1944019D01*
X6920100Y1964381D01*
Y1986420D01*
X6911666Y2006782D01*
X6896082Y2022367D01*
X6875720Y2030801D01*
X6853681D01*
X6833319Y2022367D01*
X6826700Y2015747D01*
X6817050D01*
X6809926Y2017164D01*
X6704676D01*
X6704166Y2017063D01*
X6695031Y2028195D01*
X6697800Y2034880D01*
Y2056920D01*
X6689366Y2077281D01*
X6673781Y2092866D01*
X6653420Y2101300D01*
D02*
G37*
G36*
X1658300Y2797698D02*
X424700D01*
X414789Y2795727D01*
X406388Y2790113D01*
X362788Y2746513D01*
X362788Y2746513D01*
X357174Y2738111D01*
X355202Y2728200D01*
X355203Y2588501D01*
X357174Y2578590D01*
X362788Y2570188D01*
X388188Y2544788D01*
X396590Y2539174D01*
X406500Y2537203D01*
X548173D01*
X635303Y2450073D01*
Y2254801D01*
X636509Y2248736D01*
Y2219952D01*
X786734D01*
X791594Y2208219D01*
X680288Y2096912D01*
X674674Y2088510D01*
X672702Y2078600D01*
Y1881583D01*
X660002Y1876323D01*
X445098Y2091227D01*
Y2448701D01*
X443127Y2458611D01*
X441691Y2460760D01*
Y2470650D01*
X432070D01*
X429111Y2472627D01*
X419201Y2474598D01*
X218000Y2474598D01*
X208090Y2472626D01*
X199688Y2467013D01*
X180788Y2448113D01*
X175174Y2439711D01*
X173203Y2429801D01*
X173203Y1906900D01*
X175175Y1896990D01*
X180789Y1888588D01*
X426288Y1643088D01*
X434690Y1637474D01*
X444600Y1635503D01*
X571601D01*
X581511Y1637474D01*
X589913Y1643088D01*
X660002Y1713178D01*
X672702Y1707917D01*
X672703Y518401D01*
X674674Y508490D01*
X680288Y500088D01*
X781888Y398488D01*
X790290Y392874D01*
X800200Y390903D01*
X1333601D01*
X1343511Y392874D01*
X1351913Y398488D01*
X1354226Y400801D01*
X1355690D01*
Y402265D01*
X1363713Y410288D01*
X1369327Y418690D01*
X1371298Y428601D01*
Y955101D01*
X1369327Y965011D01*
X1363713Y973413D01*
X1355690Y981436D01*
Y991600D01*
X1345525D01*
X1343214Y993912D01*
X1343213Y993913D01*
X1334811Y999527D01*
X1324901Y1001498D01*
X1090328Y1001498D01*
X971998Y1119828D01*
Y1936273D01*
X1058128Y2022403D01*
X1384401D01*
X1394311Y2024374D01*
X1402713Y2029988D01*
X1408327Y2038390D01*
X1410298Y2048301D01*
Y2064802D01*
X1414661D01*
Y2217601D01*
X1414661D01*
X1418036Y2228903D01*
X1673000D01*
X1682911Y2230874D01*
X1691313Y2236488D01*
X1720213Y2265388D01*
X1725827Y2273790D01*
X1727798Y2283701D01*
Y2728201D01*
X1725827Y2738111D01*
X1720213Y2746513D01*
X1693201Y2773525D01*
Y2774899D01*
X1691827D01*
X1676613Y2790113D01*
X1668211Y2795727D01*
X1658300Y2797698D01*
D02*
G37*
G36*
X4527601Y2333398D02*
X4253201D01*
X4243290Y2331427D01*
X4234888Y2325813D01*
X4229274Y2317411D01*
X4227303Y2307501D01*
Y2071501D01*
X4229274Y2061590D01*
X4234888Y2053188D01*
X4471688Y1816388D01*
X4480090Y1810774D01*
X4490000Y1808803D01*
X4513828Y1808803D01*
X4515893Y1809214D01*
X4517998Y1809141D01*
X4520803Y1810190D01*
X4523738Y1810774D01*
X4524240Y1811109D01*
X4532642Y1812781D01*
X4543360Y1819942D01*
X4550521Y1830659D01*
X4553035Y1843301D01*
Y1985301D01*
X4551694Y1992045D01*
X4552024Y1993706D01*
X4553001Y1996063D01*
Y1998614D01*
X4553498Y2001115D01*
Y2307501D01*
X4551527Y2317411D01*
X4545913Y2325813D01*
X4537511Y2331427D01*
X4527601Y2333398D01*
D02*
G37*
G36*
X6048700Y1717001D02*
X5917253D01*
Y1713354D01*
X5906693Y1706298D01*
X5905720Y1706701D01*
X5883681D01*
X5863319Y1698267D01*
X5847735Y1682682D01*
X5839301Y1662321D01*
Y1640281D01*
X5847735Y1619919D01*
X5863319Y1604335D01*
X5883681Y1595901D01*
X5905720D01*
X5911176Y1584847D01*
X5900921Y1574101D01*
X5885981D01*
X5865619Y1565667D01*
X5850035Y1550082D01*
X5841601Y1529721D01*
Y1507681D01*
X5850035Y1487319D01*
X5865619Y1471735D01*
X5885981Y1463301D01*
X5908020D01*
X5917253Y1457131D01*
Y1447400D01*
X6048701D01*
Y1584601D01*
X6048700D01*
Y1717001D01*
D02*
G37*
G36*
X8044985Y1979601D02*
X8008016D01*
X7972308Y1970033D01*
X7940293Y1951549D01*
X7914153Y1925408D01*
X7895669Y1893393D01*
X7886101Y1857685D01*
Y1820717D01*
X7895669Y1785008D01*
X7903612Y1771250D01*
X7688610Y1556247D01*
X7301348D01*
Y1586800D01*
X7301348Y1586801D01*
X7301348D01*
X7304148Y1594400D01*
X7307199Y1605837D01*
X7312981Y1609701D01*
X7335020D01*
X7355382Y1618135D01*
X7370966Y1633719D01*
X7379401Y1654081D01*
Y1676121D01*
X7370966Y1696482D01*
X7355382Y1712067D01*
X7335020Y1720501D01*
X7312981D01*
X7304148Y1726403D01*
Y1731601D01*
X7188798D01*
Y1788401D01*
X7186827Y1798311D01*
X7181213Y1806713D01*
X7181212Y1806713D01*
X7168513Y1819413D01*
X7160111Y1825027D01*
X7150201Y1826998D01*
X6997801D01*
X6987890Y1825027D01*
X6979488Y1819413D01*
X6966788Y1806713D01*
X6961174Y1798311D01*
X6959203Y1788401D01*
Y1735628D01*
X6948973Y1725398D01*
X6769201D01*
X6759290Y1723427D01*
X6750888Y1717813D01*
X6745274Y1709411D01*
X6743303Y1699501D01*
Y1685112D01*
X6742302Y1683614D01*
X6739758Y1670826D01*
Y1626576D01*
X6742302Y1613788D01*
X6743303Y1612290D01*
Y1597901D01*
X6745274Y1587990D01*
X6749023Y1582380D01*
X6749546Y1567455D01*
X6749046Y1566707D01*
X6742302Y1556614D01*
X6739758Y1543826D01*
Y1499576D01*
X6742302Y1486788D01*
X6749546Y1475947D01*
X6760387Y1468703D01*
X6773175Y1466159D01*
X6955426D01*
X6968214Y1468703D01*
X6979055Y1475947D01*
X6986299Y1486788D01*
X6986948Y1490054D01*
X7019253D01*
Y1449600D01*
X7073754D01*
Y1409301D01*
X7076711Y1394435D01*
X7085132Y1381832D01*
X7171600Y1295364D01*
Y1217400D01*
X7303048D01*
Y1247154D01*
X7912905D01*
X7914153Y1244993D01*
X7940293Y1218853D01*
X7972308Y1200369D01*
X8008016Y1190801D01*
X8044985D01*
X8080693Y1200369D01*
X8112708Y1218853D01*
X8138848Y1244993D01*
X8157332Y1277009D01*
X8166900Y1312717D01*
Y1349685D01*
X8157332Y1385393D01*
X8138848Y1417409D01*
X8112708Y1443549D01*
X8080693Y1462033D01*
X8044985Y1471601D01*
X8008016D01*
X7972308Y1462033D01*
X7940293Y1443549D01*
X7914153Y1417409D01*
X7895669Y1385393D01*
X7886101Y1349685D01*
Y1324847D01*
X7303048D01*
Y1354601D01*
X7222237D01*
X7151447Y1425391D01*
Y1490577D01*
X7150700Y1494330D01*
Y1569937D01*
X7159182Y1571043D01*
X7169900Y1561796D01*
Y1449600D01*
X7301348D01*
Y1478554D01*
X7704701D01*
X7719566Y1481511D01*
X7732169Y1489932D01*
X7958549Y1716313D01*
X7972308Y1708369D01*
X8008016Y1698801D01*
X8044985D01*
X8080693Y1708369D01*
X8112708Y1726853D01*
X8138848Y1752993D01*
X8157332Y1785008D01*
X8166900Y1820717D01*
Y1857685D01*
X8157332Y1893393D01*
X8138848Y1925408D01*
X8112708Y1951549D01*
X8080693Y1970033D01*
X8044985Y1979601D01*
D02*
G37*
G36*
X5864520Y1423000D02*
X5842480D01*
X5822119Y1414566D01*
X5806534Y1398981D01*
X5798100Y1378620D01*
Y1356580D01*
X5806534Y1336219D01*
X5822119Y1320634D01*
X5842480Y1312200D01*
X5864520D01*
X5880487Y1318814D01*
X5915753Y1283548D01*
Y1204601D01*
X6047201D01*
Y1341801D01*
X5974006D01*
X5924821Y1390987D01*
X5911458Y1399916D01*
X5896570Y1402877D01*
X5884882Y1414566D01*
X5864520Y1423000D01*
D02*
G37*
G36*
X3350100Y1502198D02*
X3012901D01*
X3002990Y1500227D01*
X3000406Y1498501D01*
X2991690D01*
Y1490276D01*
X2988974Y1486211D01*
X2987003Y1476301D01*
Y1184001D01*
X2988974Y1174090D01*
X2994588Y1165688D01*
X3002990Y1160074D01*
X3012901Y1158103D01*
X3339901D01*
X3349811Y1160074D01*
X3358213Y1165688D01*
X3391313Y1198788D01*
X3396927Y1207190D01*
X3398898Y1217100D01*
Y1453401D01*
X3396927Y1463312D01*
X3391313Y1471713D01*
X3368413Y1494613D01*
X3360011Y1500227D01*
X3350100Y1502198D01*
D02*
G37*
G36*
X3183310Y1086905D02*
X3022510D01*
Y976105D01*
X3183310D01*
Y1086905D01*
D02*
G37*
G36*
X8044985Y963601D02*
X8008016D01*
X7972308Y954033D01*
X7940293Y935549D01*
X7914153Y909408D01*
X7895669Y877393D01*
X7886101Y841685D01*
Y804717D01*
X7895669Y769008D01*
X7903612Y755250D01*
X7809210Y660847D01*
X7314648D01*
Y698901D01*
X7314649D01*
X7315949Y705301D01*
X7315949Y705301D01*
X7315948Y711063D01*
Y774759D01*
X7326508Y781815D01*
X7329681Y780501D01*
X7351720D01*
X7372082Y788935D01*
X7387666Y804519D01*
X7396101Y824881D01*
Y846921D01*
X7387666Y867282D01*
X7372082Y882867D01*
X7351720Y891301D01*
X7329681D01*
X7309319Y882867D01*
X7298906Y872454D01*
X7294652Y871608D01*
X7282049Y863187D01*
X7261364Y842501D01*
X7188798D01*
X7184501Y842501D01*
X7176098Y851721D01*
Y912101D01*
X7174127Y922011D01*
X7168513Y930413D01*
X7168512Y930413D01*
X7155813Y943113D01*
X7147411Y948727D01*
X7137501Y950698D01*
X6985101D01*
X6975190Y948727D01*
X6966788Y943113D01*
X6954088Y930413D01*
X6948474Y922011D01*
X6946503Y912101D01*
Y859328D01*
X6936273Y849098D01*
X6756501D01*
X6746590Y847127D01*
X6738188Y841513D01*
X6732574Y833111D01*
X6730603Y823201D01*
Y727901D01*
X6732574Y717990D01*
X6738188Y709588D01*
X6746590Y703974D01*
X6756501Y702003D01*
X7021138D01*
X7032553Y698901D01*
X7032553Y689303D01*
Y670447D01*
X6984406D01*
X6979055Y678455D01*
X6968214Y685699D01*
X6955426Y688243D01*
X6773175D01*
X6760387Y685699D01*
X6749546Y678455D01*
X6742302Y667614D01*
X6739758Y654826D01*
Y610576D01*
X6742302Y597788D01*
X6749546Y586947D01*
X6760387Y579703D01*
X6773175Y577159D01*
X6955426D01*
X6968214Y579703D01*
X6979055Y586947D01*
X6982935Y592754D01*
X7032553D01*
Y561700D01*
X7059430D01*
Y526225D01*
X7062387Y511359D01*
X7070808Y498756D01*
X7181500Y388064D01*
Y314300D01*
X7312948D01*
Y346754D01*
X7879172D01*
X7886903Y336679D01*
X7886101Y333685D01*
Y296716D01*
X7895669Y261008D01*
X7914153Y228993D01*
X7940293Y202853D01*
X7972308Y184369D01*
X8008016Y174801D01*
X8044985D01*
X8080693Y184369D01*
X8112708Y202853D01*
X8138848Y228993D01*
X8157332Y261008D01*
X8166900Y296716D01*
Y333685D01*
X8157332Y369393D01*
X8138848Y401408D01*
X8112708Y427548D01*
X8080693Y446032D01*
X8044985Y455600D01*
X8008016D01*
X7972308Y446032D01*
X7940293Y427548D01*
X7930210Y417466D01*
X7924188Y421490D01*
X7909322Y424447D01*
X7312948D01*
Y451501D01*
X7227938D01*
X7137123Y542316D01*
Y561700D01*
X7164000D01*
Y693140D01*
X7164781Y700436D01*
X7166480Y704603D01*
X7176253Y708343D01*
X7182246Y707281D01*
X7184500Y705301D01*
X7183200Y698901D01*
X7183201D01*
X7183201Y693139D01*
Y561700D01*
X7314648D01*
Y583154D01*
X7825301D01*
X7840166Y586111D01*
X7852769Y594532D01*
X7958549Y700313D01*
X7972308Y692369D01*
X8008016Y682801D01*
X8044985D01*
X8080693Y692369D01*
X8112708Y710853D01*
X8138848Y736993D01*
X8157332Y769008D01*
X8166900Y804717D01*
Y841685D01*
X8157332Y877393D01*
X8138848Y909408D01*
X8112708Y935549D01*
X8080693Y954033D01*
X8044985Y963601D01*
D02*
G37*
G36*
X6046800Y461201D02*
X5915353D01*
Y445406D01*
X5914282Y444122D01*
X5902653Y437967D01*
X5887120Y444401D01*
X5865080D01*
X5844719Y435967D01*
X5829134Y420382D01*
X5820700Y400021D01*
Y377981D01*
X5829134Y357619D01*
X5844719Y342035D01*
X5865080Y333601D01*
X5887120D01*
X5902653Y340035D01*
X5915353Y333313D01*
Y324000D01*
X6046800D01*
Y461201D01*
D02*
G37*
G36*
X1608800Y1907398D02*
X1080301D01*
X1070390Y1905427D01*
X1061988Y1899813D01*
X1056374Y1891411D01*
X1054403Y1881501D01*
Y1725601D01*
X1056374Y1715690D01*
X1061988Y1707288D01*
X1070390Y1701675D01*
X1080301Y1699703D01*
X1398473D01*
X1472803Y1625374D01*
X1472802Y981300D01*
X1474774Y971389D01*
X1480388Y962987D01*
X2037787Y405588D01*
X2046189Y399974D01*
X2056099Y398003D01*
X2742101D01*
X2900400Y398005D01*
X2910310Y399976D01*
X2918712Y405590D01*
X2924326Y413992D01*
X2926297Y423902D01*
X2926298Y1071101D01*
X2924327Y1081011D01*
X2923290Y1082563D01*
Y1086905D01*
X2920389D01*
X2918713Y1089413D01*
X2910311Y1095027D01*
X2900401Y1096998D01*
X2788388D01*
Y1156003D01*
X2900401D01*
X2910311Y1157974D01*
X2918713Y1163588D01*
X2920390Y1166097D01*
X2923290D01*
Y1170438D01*
X2924327Y1171990D01*
X2926298Y1181901D01*
X2926299Y1254400D01*
X2924327Y1264311D01*
X2923290Y1265863D01*
Y1276897D01*
X2912451D01*
X2910312Y1278327D01*
X2900401Y1280298D01*
X1805897Y1280299D01*
X1805898Y1710301D01*
X1803926Y1720212D01*
X1798312Y1728614D01*
X1627113Y1899813D01*
X1618711Y1905427D01*
X1608800Y1907398D01*
D02*
G37*
G36*
X3460920Y523401D02*
X3438881D01*
X3418519Y514967D01*
X3402935Y499382D01*
X3394501Y479021D01*
Y456981D01*
X3399100Y445876D01*
Y353681D01*
Y267118D01*
X3503901D01*
Y282304D01*
X3523200D01*
Y267818D01*
X3628001D01*
Y375184D01*
X3523200D01*
Y359997D01*
X3503901D01*
Y453602D01*
X3505301Y456981D01*
Y479021D01*
X3496867Y499382D01*
X3481282Y514967D01*
X3460920Y523401D01*
D02*
G37*
%LPD*%
G36*
X4286359Y1383781D02*
X4299001Y1381266D01*
X4441000D01*
X4445292Y1377744D01*
Y1372258D01*
X4434050Y1361336D01*
X4299001D01*
X4286359Y1358821D01*
X4275642Y1351660D01*
X4268481Y1340943D01*
X4265966Y1328301D01*
Y1319566D01*
X4265800Y1319401D01*
Y930301D01*
X4256001Y920501D01*
X4051001D01*
X4044701Y926801D01*
Y1274401D01*
X4155500Y1385201D01*
X4284233D01*
X4286359Y1383781D01*
D02*
G37*
G36*
X6424708Y1099854D02*
X6422770Y1096953D01*
X6420537Y1085726D01*
Y1065476D01*
X6422770Y1054249D01*
X6425208Y1050601D01*
X6422770Y1046953D01*
X6420537Y1035726D01*
Y1015476D01*
X6422770Y1004248D01*
X6425208Y1000601D01*
X6422770Y996953D01*
X6420537Y985726D01*
Y965476D01*
X6422770Y954249D01*
X6425208Y950601D01*
X6422770Y946953D01*
X6420574Y935911D01*
X6341832Y857169D01*
X6333411Y844567D01*
X6330454Y829701D01*
Y815243D01*
X6278176D01*
X6265388Y812699D01*
X6254546Y805455D01*
X6249062Y797247D01*
X6199148D01*
Y823501D01*
X6067701D01*
Y690501D01*
X6067700D01*
Y609898D01*
X6060616Y604219D01*
X6048500Y609556D01*
Y686300D01*
Y823501D01*
X5917053D01*
Y813320D01*
X5906493Y806264D01*
X5898920Y809401D01*
X5876881D01*
X5856519Y800967D01*
X5840935Y785382D01*
X5832501Y765021D01*
Y742981D01*
X5840935Y722619D01*
X5856519Y707035D01*
X5876881Y698601D01*
X5898920D01*
X5906493Y701737D01*
X5917053Y694682D01*
Y677689D01*
X5904353Y669854D01*
X5890720Y675501D01*
X5868681D01*
X5848319Y667066D01*
X5832735Y651482D01*
X5824301Y631120D01*
Y609081D01*
X5828664Y598547D01*
X5820178Y585847D01*
X5739778D01*
X5734917Y597580D01*
X5801369Y664032D01*
X5809790Y676635D01*
X5812747Y691501D01*
Y921210D01*
X6004091Y1112554D01*
X6417920D01*
X6424708Y1099854D01*
D02*
G37*
G36*
X5524601Y1763001D02*
X5511901Y1750301D01*
X5301268D01*
X5300359Y1751660D01*
X5289642Y1758821D01*
X5277000Y1761336D01*
X5135001D01*
X5133947Y1762200D01*
Y1804120D01*
X5140590Y1814062D01*
X5143547Y1828928D01*
Y1940747D01*
X5232501Y2029701D01*
X5524601D01*
Y1763001D01*
D02*
G37*
G36*
X5470500Y1057101D02*
Y982651D01*
X5470500Y921900D01*
X5456801Y908201D01*
X5141300D01*
X5051238Y998263D01*
X5053035Y1007301D01*
Y1149300D01*
X5056400Y1153401D01*
X5374201D01*
X5470500Y1057101D01*
D02*
G37*
G36*
X7161601Y2698101D02*
Y2507601D01*
X6767901D01*
Y2609201D01*
X6958401D01*
X6983801Y2634601D01*
Y2698101D01*
X6996501Y2710801D01*
X7148901D01*
X7161601Y2698101D01*
D02*
G37*
G36*
X1701901Y2728201D02*
Y2283701D01*
X1673000Y2254801D01*
X661201D01*
Y2460801D01*
X558900Y2563101D01*
X406500D01*
X381100Y2588501D01*
X381100Y2728200D01*
X424700Y2771801D01*
X1658300D01*
X1701901Y2728201D01*
D02*
G37*
G36*
X419201Y2080500D02*
X647800Y1851900D01*
X647800Y1737601D01*
X571601Y1661401D01*
X444600D01*
X199101Y1906900D01*
X199100Y2429801D01*
X218000Y2448700D01*
X419201Y2448701D01*
Y2080500D01*
D02*
G37*
G36*
X1384401Y2048301D02*
X1047400D01*
X946100Y1947001D01*
Y1109101D01*
X1079600Y975601D01*
X1324901Y975600D01*
X1345401Y955101D01*
Y428601D01*
X1333601Y416801D01*
X800200D01*
X698601Y518401D01*
X698600Y2078600D01*
X827001Y2207001D01*
X1384401D01*
Y2048301D01*
D02*
G37*
G36*
X4527601Y2001115D02*
X4525480Y1997942D01*
X4522966Y1985301D01*
Y1847401D01*
X4513828Y1834700D01*
X4490001Y1834701D01*
X4253201Y2071501D01*
Y2307501D01*
X4527601D01*
Y2001115D01*
D02*
G37*
G36*
X7162901Y1788401D02*
Y1597901D01*
X6769201D01*
Y1699501D01*
X6959701D01*
X6985101Y1724901D01*
Y1788401D01*
X6997801Y1801101D01*
X7150201D01*
X7162901Y1788401D01*
D02*
G37*
G36*
X3373000Y1453401D02*
Y1217100D01*
X3339901Y1184001D01*
X3012901D01*
Y1476301D01*
X3350100D01*
X3373000Y1453401D01*
D02*
G37*
G36*
X7150201Y912101D02*
Y727901D01*
X6756501D01*
Y823201D01*
X6947001D01*
X6972401Y848601D01*
Y912101D01*
X6985101Y924801D01*
X7137501D01*
X7150201Y912101D01*
D02*
G37*
G36*
X1780000Y1710301D02*
X1780000Y1254401D01*
X2900401Y1254400D01*
X2900401Y1181901D01*
X2762491D01*
Y1071101D01*
X2900401D01*
X2900400Y423902D01*
X2742101Y423901D01*
X2056099D01*
X1498700Y981300D01*
X1498700Y1636101D01*
X1409201Y1725601D01*
X1080301D01*
Y1881501D01*
X1608800D01*
X1780000Y1710301D01*
D02*
G37*
D10*
X4963401Y2290219D02*
D03*
Y2376782D02*
D03*
X4824201Y2280519D02*
D03*
Y2367082D02*
D03*
X3575601Y408064D02*
D03*
Y321501D02*
D03*
X3451501Y407364D02*
D03*
Y320801D02*
D03*
D11*
X3414301Y2910401D02*
D03*
Y2570401D02*
D03*
X3763601Y2572001D02*
D03*
Y2912001D02*
D03*
D12*
X4513001Y1914301D02*
D03*
X4563001D02*
D03*
X4613001D02*
D03*
X4663001D02*
D03*
X4713000D02*
D03*
X4763001D02*
D03*
X4813001D02*
D03*
X4863001D02*
D03*
X4913001D02*
D03*
X4963000D02*
D03*
X5013001D02*
D03*
X5063001D02*
D03*
Y1078301D02*
D03*
X5013001D02*
D03*
X4963000D02*
D03*
X4913001D02*
D03*
X4863001D02*
D03*
X4813001D02*
D03*
X4763001D02*
D03*
X4713000D02*
D03*
X4663001D02*
D03*
X4613001D02*
D03*
X4563001D02*
D03*
X4513001D02*
D03*
D13*
X5206001Y1771301D02*
D03*
Y1721301D02*
D03*
Y1671301D02*
D03*
Y1621301D02*
D03*
Y1571301D02*
D03*
Y1521301D02*
D03*
Y1471301D02*
D03*
Y1421301D02*
D03*
Y1371301D02*
D03*
Y1321301D02*
D03*
Y1271301D02*
D03*
Y1221301D02*
D03*
X4370001D02*
D03*
Y1271301D02*
D03*
Y1321301D02*
D03*
Y1371301D02*
D03*
Y1421301D02*
D03*
Y1471301D02*
D03*
Y1521301D02*
D03*
Y1571301D02*
D03*
Y1621301D02*
D03*
Y1671301D02*
D03*
Y1721301D02*
D03*
Y1771301D02*
D03*
D14*
X3119101Y2790090D02*
D03*
Y2650111D02*
D03*
X4473985Y2249922D02*
D03*
X4473985Y2389901D02*
D03*
X5245201Y810501D02*
D03*
Y950480D02*
D03*
D15*
X2918901Y2799925D02*
D03*
Y2649277D02*
D03*
X4003101Y2639204D02*
D03*
Y2789851D02*
D03*
D16*
X3965000Y1155801D02*
D03*
X4123001Y1155801D02*
D03*
X5630001Y1801101D02*
D03*
X5472000D02*
D03*
D17*
X3977700Y978001D02*
D03*
X4117680Y978001D02*
D03*
X5619990Y1966201D02*
D03*
X5480011D02*
D03*
X2857711Y846801D02*
D03*
X2997690D02*
D03*
X3057090Y1428101D02*
D03*
X2917110D02*
D03*
D18*
X326248Y2345301D02*
D03*
X751952D02*
D03*
X384148Y658101D02*
D03*
X809852D02*
D03*
D19*
X7248924Y2418101D02*
D03*
X7098277D02*
D03*
X7249524Y2555901D02*
D03*
X7098877D02*
D03*
X6133625Y1516001D02*
D03*
X5982977D02*
D03*
X6133625Y1648401D02*
D03*
X5982977D02*
D03*
X5983877Y2172301D02*
D03*
X6134524D02*
D03*
X6132125Y2390201D02*
D03*
X5981477D02*
D03*
X6130625Y2553101D02*
D03*
X5979977D02*
D03*
X7084977Y1518201D02*
D03*
X7235624D02*
D03*
X7238424Y1663001D02*
D03*
X7087777D02*
D03*
X7099401Y2220201D02*
D03*
X7250048D02*
D03*
X6131724Y392601D02*
D03*
X5981077D02*
D03*
X6133424Y621901D02*
D03*
X5982777D02*
D03*
X6133425Y754901D02*
D03*
X5982777D02*
D03*
X6132124Y1273201D02*
D03*
X5981477D02*
D03*
X7247224Y382901D02*
D03*
X7096577D02*
D03*
X7250225Y773901D02*
D03*
X7099577D02*
D03*
X7098277Y630301D02*
D03*
X7248925D02*
D03*
X7237324Y1286001D02*
D03*
X7086677D02*
D03*
D20*
X6864300Y1521701D02*
D03*
Y1394701D02*
D03*
X6369301Y1267701D02*
D03*
Y1394701D02*
D03*
Y1521701D02*
D03*
Y1648701D02*
D03*
X6864300D02*
D03*
Y1267701D02*
D03*
Y2423401D02*
D03*
Y2296401D02*
D03*
X6369301Y2169401D02*
D03*
Y2296401D02*
D03*
Y2423401D02*
D03*
Y2550401D02*
D03*
X6864300D02*
D03*
Y2169401D02*
D03*
Y632701D02*
D03*
Y505701D02*
D03*
X6369301Y378701D02*
D03*
Y505701D02*
D03*
Y632701D02*
D03*
Y759701D02*
D03*
X6864300D02*
D03*
Y378701D02*
D03*
D21*
X6476300Y1827701D02*
D03*
Y1927701D02*
D03*
Y1977701D02*
D03*
X6757301D02*
D03*
Y1927701D02*
D03*
Y1827701D02*
D03*
X6476300Y1877701D02*
D03*
X6757301D02*
D03*
X6782701Y2779401D02*
D03*
X6501700D02*
D03*
X6782701Y2729401D02*
D03*
Y2829401D02*
D03*
Y2879401D02*
D03*
X6501700D02*
D03*
Y2829401D02*
D03*
Y2729401D02*
D03*
X6502501Y925601D02*
D03*
Y1025601D02*
D03*
Y1075601D02*
D03*
X6783501D02*
D03*
Y1025601D02*
D03*
Y925601D02*
D03*
X6502501Y975601D02*
D03*
X6783501D02*
D03*
D22*
X4304901Y2408201D02*
D03*
Y2250201D02*
D03*
X5417300Y806701D02*
D03*
Y964701D02*
D03*
D23*
X3690008Y1530719D02*
D03*
X3965792Y1566083D02*
D03*
X3845577Y1686287D02*
D03*
X3810218Y1410509D02*
D03*
D24*
X3665491Y1251211D02*
D03*
X3566510Y1350191D02*
D03*
D25*
X3667291Y1793891D02*
D03*
X3568310Y1694911D02*
D03*
D26*
X3102910Y1221496D02*
D03*
X3102910Y1031505D02*
D03*
X2842890D02*
D03*
Y1126501D02*
D03*
Y1221497D02*
D03*
D27*
X2235301Y696201D02*
D03*
X1185290D02*
D03*
D28*
X1600301Y2678998D02*
D03*
Y2879003D02*
D03*
D29*
X2267101Y1971202D02*
D03*
D30*
X1235120Y1631202D02*
D03*
X1235119Y1801202D02*
D03*
X1235120Y1971202D02*
D03*
X1235119Y2141202D02*
D03*
X1235120Y2311201D02*
D03*
D31*
X6227400Y1512600D02*
X6231626Y1516826D01*
X6364425D01*
X6369301Y1521701D01*
X6137675Y1511950D02*
X6228050D01*
X6133625Y1516001D02*
X6137675Y1511950D01*
X3520600Y2296800D02*
Y2514000D01*
X4152700Y1661900D02*
Y1664700D01*
X3520600Y2296800D02*
X4152700Y1664700D01*
X4143201Y1571301D02*
X4370001D01*
X3491499Y2543101D02*
X3520600Y2514000D01*
X3852648Y1693359D02*
X4021143D01*
X3490552Y2543101D02*
X3491499D01*
X4021143Y1693359D02*
X4143201Y1571301D01*
X3463252Y2570401D02*
X3490552Y2543101D01*
X3921900Y1340800D02*
X4032800D01*
X4163301Y1471301D01*
X4514301Y1209301D02*
X4627492Y1322492D01*
X4647147D02*
X4653767Y1329112D01*
X4627492Y1322492D02*
X4647147D01*
X4371301Y1222601D02*
X4448374D01*
X4370001Y1221301D02*
X4371301Y1222601D01*
X4514301Y1079601D02*
Y1209301D01*
X4509950Y1284177D02*
Y1286550D01*
X4448374Y1222601D02*
X4509950Y1284177D01*
X5709600Y820700D02*
X5714700Y815600D01*
X5647800Y633901D02*
X5714700Y700800D01*
Y815600D01*
X6616537Y1093700D02*
X6625900D01*
X6598438Y1075601D02*
X6616537Y1093700D01*
X6500101Y1075601D02*
X6598438D01*
X6609339Y952500D02*
X6617100D01*
X6502501Y975601D02*
X6586238D01*
X6609339Y952500D01*
X6653300Y1151400D02*
X6728299Y1076401D01*
X5988000Y1151400D02*
X6653300D01*
X6728299Y1076401D02*
X6782701D01*
X6783501Y1075601D01*
X5773901Y937301D02*
X5988000Y1151400D01*
X6638600Y2045900D02*
X6642400D01*
X6570401Y1977701D02*
X6638600Y2045900D01*
X6337800Y2881800D02*
X6389399Y2830201D01*
X6500900D01*
X6402301Y2772501D02*
X6408400Y2778601D01*
X6500900D01*
Y2830201D02*
X6501700Y2829401D01*
X6620438Y2879401D02*
X6641237Y2900200D01*
X6501700Y2879401D02*
X6620438D01*
X6641237Y2900200D02*
X6650600D01*
X7398950Y1024801D02*
X7404749Y1030600D01*
X6784301Y1024801D02*
X7398950D01*
X6783501Y1025601D02*
X6784301Y1024801D01*
X7404749Y1030600D02*
X7408700D01*
X6363000Y1877501D02*
X6476100D01*
X6362801Y1877301D02*
X6363000Y1877501D01*
X6476100D02*
X6476300Y1877701D01*
X6501700Y2829401D02*
X6625400D01*
X3369301Y2570401D02*
X3463252D01*
X4003101Y2789851D02*
X4262749D01*
X4713000Y1914301D02*
Y2339600D01*
X4262749Y2789851D02*
X4713000Y2339600D01*
X5063001Y1914301D02*
Y2642672D01*
X5103401Y2000974D02*
Y2641401D01*
Y2000974D02*
X5104700Y1999674D01*
X5095101Y1705128D02*
Y1819328D01*
X5104700Y1828928D01*
X5219801Y2757801D02*
Y2779001D01*
X4993468Y2712205D02*
X5063001Y2642672D01*
X5095101Y1705128D02*
X5127628Y1672601D01*
X5103401Y2641401D02*
X5219801Y2757801D01*
X5104700Y1828928D02*
Y1999674D01*
X4958550Y2371932D02*
X4963401Y2376782D01*
X4829051Y2371932D02*
X4958550D01*
X4824201Y2367082D02*
X4829051Y2371932D01*
X3880675Y2909401D02*
X4000224Y2789851D01*
X4003101D01*
X3766200Y2909401D02*
X3880675D01*
X3763601Y2912001D02*
X3766200Y2909401D01*
X3451851Y321151D02*
X3575251D01*
X3575601Y321501D01*
X3451501Y320801D02*
X3451851Y321151D01*
X3450701Y408164D02*
Y467201D01*
X3449901Y468001D02*
X3450701Y467201D01*
Y408164D02*
X3451501Y407364D01*
X4963401Y2288936D02*
X4977701Y2274636D01*
X4978983D02*
X5013001Y2240619D01*
Y1914301D02*
Y2240619D01*
X4963401Y2288936D02*
Y2290219D01*
X4977701Y2274636D02*
X4978983D01*
X3119101Y2650111D02*
X3289591D01*
X3369301Y2570401D01*
X2919734Y2650111D02*
X3119101D01*
X2918901Y2649277D02*
X2919734Y2650111D01*
X4163301Y1471301D02*
X4370001D01*
X5773901Y691501D02*
Y937301D01*
X5675901Y593501D02*
X5773901Y691501D01*
X5032301Y593501D02*
X5675901D01*
X7247224Y382901D02*
Y385777D01*
X7211101Y413401D02*
X7219600D01*
X7098277Y526225D02*
Y630301D01*
X7219600Y413401D02*
X7247224Y385777D01*
X7098277Y526225D02*
X7211101Y413401D01*
X7979722Y315201D02*
X8026501D01*
X7263201Y385601D02*
X7909322D01*
X7979722Y315201D01*
X7257224Y622001D02*
X7825301D01*
X7248925Y630301D02*
X7257224Y622001D01*
X7825301D02*
X8026501Y823201D01*
X7250048Y631201D02*
Y749877D01*
X6865401Y631601D02*
X7096977D01*
X7340518Y835718D02*
X7340701Y835901D01*
X7250225Y776425D02*
Y776777D01*
X7277848Y804401D01*
X7278201D01*
X7309518Y835718D02*
X7340518D01*
X7278201Y804401D02*
X7309518Y835718D01*
X4863001Y697401D02*
X5013401Y547001D01*
X6061401D02*
X6133424Y619024D01*
X5013401Y547001D02*
X6061401D01*
X4963000Y737701D02*
X5066801Y633901D01*
X5647800D01*
X4913001Y712801D02*
X5032301Y593501D01*
X6133424Y619024D02*
Y621901D01*
X6153524Y381801D02*
X6366201D01*
X6132924Y402401D02*
X6153524Y381801D01*
X6366201D02*
X6369301Y378701D01*
X4963000Y737701D02*
Y1078301D01*
X4913001Y712801D02*
Y1078301D01*
X6369301Y378701D02*
X6515201D01*
X6142374Y614027D02*
X6161048Y632701D01*
X6369301D01*
X6143325Y758401D02*
X6368001D01*
X6369301Y759701D01*
X6132924Y748001D02*
X6143325Y758401D01*
X7237324Y1286001D02*
X7925936D01*
X7971136Y1331201D01*
X8026501D01*
X7205400Y1316501D02*
X7209700D01*
X7235900Y1290301D01*
X7112600Y1409301D02*
Y1490577D01*
X7235900Y1286001D02*
Y1290301D01*
X7112600Y1409301D02*
X7205400Y1316501D01*
X7240525Y1665101D02*
X7324001D01*
X7238424Y1663001D02*
X7240525Y1665101D01*
X7241901Y1524477D02*
Y1659524D01*
X7238424Y1663001D02*
X7241901Y1659524D01*
X7704701Y1517401D02*
X8026501Y1839201D01*
X7236424Y1517401D02*
X7704701D01*
X7235624Y1518201D02*
X7241901Y1524477D01*
X7074277Y1528901D02*
X7112600Y1490577D01*
X6864300Y1521701D02*
X6871500Y1528901D01*
X7074277D01*
X6863800Y1395201D02*
X6864300Y1394701D01*
X6725200Y1395201D02*
X6863800D01*
X6724701Y1395701D02*
X6725200Y1395201D01*
X6141074Y1268575D02*
Y1288101D01*
X6161948Y1266501D02*
X6368101D01*
X6369301Y1267701D02*
X6502501D01*
X6142174Y1286275D02*
X6161948Y1266501D01*
X6476300Y1977701D02*
X6570401D01*
X4564300Y1165692D02*
X4600679Y1202071D01*
Y1206022D01*
X4564300Y1079601D02*
Y1165692D01*
X4563001Y1078301D02*
X4564300Y1079601D01*
X6369301Y1648701D02*
X6586421D01*
X6133125Y1640701D02*
X6141125Y1648701D01*
X6369301D01*
X6601300Y1663580D02*
Y1812822D01*
X6586421Y1648701D02*
X6601300Y1663580D01*
X6476300Y1827701D02*
X6586421D01*
X6502501Y1267701D02*
X6641700Y1406901D01*
Y1812822D01*
X6586421Y1827701D02*
X6601300Y1812822D01*
X6641700D02*
X6656580Y1827701D01*
X6757301D01*
X6758101Y1976901D02*
X6863200D01*
X6757301Y1977701D02*
X6758101Y1976901D01*
X6863200D02*
X6864701Y1975401D01*
X7258449Y2211801D02*
X7846022D01*
X7250048Y2220201D02*
X7258449Y2211801D01*
X7846022D02*
X7981422Y2347201D01*
X7222425Y2250701D02*
X7251801Y2221325D01*
X7124100Y2348901D02*
Y2398677D01*
Y2348901D02*
X7222301Y2250701D01*
X7222425D01*
X7276548Y2378054D02*
X7296601Y2358001D01*
X7737901D01*
X8026501Y2646601D01*
X7276548Y2378054D02*
Y2400677D01*
X7250925Y2426301D02*
X7276548Y2400677D01*
X7250925Y2426301D02*
Y2525001D01*
X6866600Y2425701D02*
X7068853D01*
X7076642Y2393589D02*
Y2411512D01*
X7068853Y2425701D02*
X7074842Y2419712D01*
X6864300Y2423401D02*
X6866600Y2425701D01*
X7096477Y2426301D02*
X7124100Y2398677D01*
X7249524Y2555901D02*
X7277148Y2583525D01*
Y2587748D01*
X7307001Y2617601D02*
X7340677D01*
X7277148Y2587748D02*
X7307001Y2617601D01*
X5206001Y1571301D02*
X5483550D01*
X5507750Y1595501D01*
X5511701D01*
X6455101Y2313201D02*
Y2317601D01*
X6471980Y2334480D02*
Y2389722D01*
X6455101Y2317601D02*
X6471980Y2334480D01*
X6438301Y2423401D02*
X6471980Y2389722D01*
X6369301Y2296401D02*
X6438301D01*
X6369301Y2423401D02*
X6438301D01*
Y2296401D02*
X6455101Y2313201D01*
X7000501Y2297701D02*
X7001801Y2299001D01*
X6864300Y2296401D02*
X6865600Y2297701D01*
X7000501D01*
X6527901Y2169401D02*
X6663301Y2304801D01*
Y2714522D01*
X6678180Y2729401D02*
X6782701D01*
X6663301Y2714522D02*
X6678180Y2729401D01*
X6141748Y2170322D02*
X6368380D01*
X6606022Y2728601D02*
X6620901Y2713722D01*
Y2565280D02*
Y2713722D01*
X6502501Y2728601D02*
X6606022D01*
Y2550401D02*
X6620901Y2565280D01*
X6369301Y2550401D02*
X6606022D01*
X6141745Y2170325D02*
X6141748Y2170322D01*
X6133325Y2550401D02*
X6369301D01*
X6501700Y2729401D02*
X6502501Y2728601D01*
X6872150Y2880201D02*
X6874950Y2883001D01*
X6878901D01*
X6783501Y2880201D02*
X6872150D01*
X6782701Y2879401D02*
X6783501Y2880201D01*
X6500900Y2778601D02*
X6501700Y2779401D01*
X6238600Y2414401D02*
X6360301D01*
X6215101Y2390901D02*
X6238600Y2414401D01*
X6132924Y2389401D02*
X6215101D01*
X6360301Y2414401D02*
X6369301Y2423401D01*
X6132125Y2390201D02*
X6132924Y2389401D01*
X6368380Y2170322D02*
X6369301Y2169401D01*
X6527901D01*
X7981422Y2347201D02*
X8026501D01*
X7250048Y2220201D02*
Y2223077D01*
X8026501Y2646601D02*
Y2855201D01*
X3810218Y1395938D02*
Y1410509D01*
X3665491Y1251211D02*
X3810218Y1395938D01*
X3670827Y1790356D02*
X3746345D01*
X3845577Y1686287D02*
Y1691124D01*
X3746345Y1790356D02*
X3845577Y1691124D01*
Y1686287D02*
X3852648Y1693359D01*
X3667291Y1793891D02*
X3670827Y1790356D01*
X3817289Y1417580D02*
X4035780D01*
X3810218Y1410509D02*
X3817289Y1417580D01*
X4035780D02*
X4139500Y1521301D01*
X4370001D01*
X5053001Y1471301D02*
X5206001D01*
X5029301Y1447601D02*
X5053001Y1471301D01*
X5029301Y1543480D02*
X5051480Y1521301D01*
X5206001D01*
X5029301Y1543480D02*
Y1547101D01*
X4993468Y2791882D02*
X5003901Y2802314D01*
X4993468Y2712205D02*
Y2791882D01*
X5127628Y1672601D02*
X5204701D01*
X5206001Y1671301D01*
X6460001Y925601D02*
X6502501D01*
X6369301Y759701D02*
Y829701D01*
X6459200Y924801D02*
X6460001Y925601D01*
X6369301Y829701D02*
X6459200Y919601D01*
Y924801D01*
X7250925Y2525001D02*
Y2527877D01*
X4863001Y697401D02*
Y1078301D01*
X6693001Y505701D02*
X6864300D01*
X6515201Y378701D02*
X6591401Y454901D01*
Y835901D02*
X6681100Y925601D01*
X6591401Y454901D02*
Y835901D01*
X6681100Y925601D02*
X6783501D01*
X6369301Y505701D02*
Y632701D01*
Y1394701D02*
Y1504901D01*
X6361067Y1513134D02*
X6369301Y1504901D01*
X4513001Y1078301D02*
X4514301Y1079601D01*
D32*
X3805272Y1537790D02*
X3814882Y1547400D01*
X3697079Y1537790D02*
X3805272D01*
X3842730Y1559012D02*
X3958721D01*
X3831118Y1547400D02*
X3842730Y1559012D01*
X3814882Y1547400D02*
X3831118D01*
X5895694Y1361860D02*
X5981477Y1276077D01*
X5853500Y1367600D02*
X5859240Y1361860D01*
X5895694D01*
X3690008Y1530719D02*
X3697079Y1537790D01*
X3958721Y1559012D02*
X3965792Y1566083D01*
X5713200Y1926500D02*
X5737600Y1950900D01*
X6393152D01*
X6409851Y1934201D01*
X6474801Y1929201D02*
X6476300Y1927701D01*
X6421369Y1934201D02*
X6426369Y1929201D01*
X6474801D01*
X6409851Y1934201D02*
X6421369D01*
X6476300Y1927701D02*
X6757301D01*
X6625400Y2829401D02*
X6782701D01*
X2918901Y2799925D02*
X2919251Y2800275D01*
Y2880551D01*
X2919600Y2880901D01*
X5981226Y2389950D02*
X5981477Y2390201D01*
X5886100Y2389700D02*
X5886350Y2389950D01*
X5981226D01*
X5983277Y2172901D02*
X5983877Y2172301D01*
X5888124Y2172901D02*
X5983277D01*
X5887524Y2173501D02*
X5888124Y2172901D01*
X5979126Y2552251D02*
X5979977Y2553101D01*
X5891675Y2552251D02*
X5979126D01*
X5890825Y2551401D02*
X5891675Y2552251D01*
X5981477Y1273201D02*
Y1276077D01*
X5898351Y1517351D02*
X5981627D01*
X5897001Y1518701D02*
X5898351Y1517351D01*
X5981627D02*
X5982977Y1516001D01*
X5896151Y1649851D02*
X5981527D01*
X5894701Y1651301D02*
X5896151Y1649851D01*
X5981527D02*
X5982977Y1648401D01*
X5982327Y754451D02*
X5982777Y754901D01*
X5888351Y754451D02*
X5982327D01*
X5887901Y754001D02*
X5888351Y754451D01*
X5880601Y621001D02*
X5981877D01*
X5982777Y621901D01*
X5879700Y620101D02*
X5880601Y621001D01*
X5876100Y389001D02*
X5878806D01*
X5882406Y392601D02*
X5981077D01*
X5878806Y389001D02*
X5882406Y392601D01*
X3808601Y2572001D02*
X3875887Y2504715D01*
X3763601Y2572001D02*
X3808601D01*
X3875887Y2487513D02*
Y2504715D01*
Y2487513D02*
X3877800Y2485600D01*
X6502501Y1025601D02*
X6783501D01*
D33*
X5473801Y2779001D02*
D03*
D34*
X5219801D02*
D03*
X4965801D02*
D03*
X4711801D02*
D03*
D35*
X508101Y1293101D02*
D03*
Y1801101D02*
D03*
D36*
X2818401Y270201D02*
D03*
Y524201D02*
D03*
X1142240Y2926400D02*
D03*
X1142241Y2672400D02*
D03*
X469940Y2938401D02*
D03*
X469941Y2684400D02*
D03*
D37*
X8026501Y315201D02*
D03*
Y823201D02*
D03*
Y1331201D02*
D03*
Y1839201D02*
D03*
Y2347201D02*
D03*
Y2855201D02*
D03*
D38*
X6228050Y1511950D02*
D03*
X4152700Y1661900D02*
D03*
X3921900Y1340800D02*
D03*
X3823000Y1547400D02*
D03*
X4525700Y1425100D02*
D03*
X4509950Y1286550D02*
D03*
X4653767Y1329112D02*
D03*
X4745700Y1331600D02*
D03*
X5709600Y820700D02*
D03*
X6625900Y1093700D02*
D03*
X6617100Y952500D02*
D03*
X5853500Y1367600D02*
D03*
X6642400Y2045900D02*
D03*
X6337800Y2881800D02*
D03*
X6402301Y2772501D02*
D03*
X6650600Y2900200D02*
D03*
X6887100Y2770700D02*
D03*
X5704800Y1812200D02*
D03*
X6199200Y921700D02*
D03*
X6020300Y923800D02*
D03*
X6928700Y959400D02*
D03*
X7221600Y950500D02*
D03*
X7313700Y946600D02*
D03*
X7408700Y1030600D02*
D03*
X7310875Y1084900D02*
D03*
X6362801Y1877301D02*
D03*
X5713200Y1924200D02*
D03*
X3594301Y1083301D02*
D03*
X3708601D02*
D03*
X3708600Y980400D02*
D03*
X3590201Y983101D02*
D03*
X1171101Y1404701D02*
D03*
X1285401D02*
D03*
X1285400Y1301800D02*
D03*
X1167000Y1304501D02*
D03*
X328101Y974801D02*
D03*
X442401D02*
D03*
X442400Y871900D02*
D03*
X324001Y874601D02*
D03*
X313501Y412401D02*
D03*
X431900Y409700D02*
D03*
X1443801Y2064801D02*
D03*
X1570801D02*
D03*
X1773975Y2055932D02*
D03*
X1685075D02*
D03*
X1773975Y1967032D02*
D03*
X1685075D02*
D03*
X1925775Y2929932D02*
D03*
X1836875D02*
D03*
X1925775Y2841032D02*
D03*
X1836875D02*
D03*
X7322775Y2962532D02*
D03*
X7233875D02*
D03*
X7322775Y2873632D02*
D03*
X7233875D02*
D03*
X7323475Y2011832D02*
D03*
X7234575D02*
D03*
X7323475Y1922932D02*
D03*
X7234575D02*
D03*
X7219200Y1088700D02*
D03*
X7029575Y175832D02*
D03*
X6940675D02*
D03*
X7029575Y86932D02*
D03*
X6940675D02*
D03*
X5507375Y2372032D02*
D03*
X5418475D02*
D03*
X5507375Y2283132D02*
D03*
X5418475D02*
D03*
X4834875Y1537232D02*
D03*
X4745975D02*
D03*
X4834875Y1448332D02*
D03*
X4745975D02*
D03*
X4530700Y1535400D02*
D03*
X2838400Y1426200D02*
D03*
X2936700Y1125000D02*
D03*
X3556800Y1519300D02*
D03*
X5886100Y2389700D02*
D03*
X3080200Y842200D02*
D03*
X4825700Y2219000D02*
D03*
X5698700Y2021700D02*
D03*
X3877800Y2485600D02*
D03*
X3410700Y2837400D02*
D03*
X4002400Y2561800D02*
D03*
X4476700Y2482000D02*
D03*
X4305100Y2491600D02*
D03*
X4596600Y2064900D02*
D03*
X5351100Y1684600D02*
D03*
X3576401Y466601D02*
D03*
X3119701Y2874101D02*
D03*
X2919600Y2880901D02*
D03*
X3449901Y468001D02*
D03*
X3134299Y1342351D02*
D03*
X3134299Y1443001D02*
D03*
X3219274Y1241673D02*
D03*
X3308173D02*
D03*
X3222874Y1442973D02*
D03*
X3311773D02*
D03*
X3222873Y1342323D02*
D03*
X3311773D02*
D03*
X4350675Y2053132D02*
D03*
X4439575D02*
D03*
X4350675Y2142032D02*
D03*
X4439575D02*
D03*
X5887901Y754001D02*
D03*
X7324001Y1665101D02*
D03*
X6724701Y1395701D02*
D03*
X4600679Y1206022D02*
D03*
X6864701Y1975401D02*
D03*
X5511701Y1595501D02*
D03*
X7001801Y2299001D02*
D03*
X6878901Y2883001D02*
D03*
X6215101Y2389401D02*
D03*
X5887524Y2173501D02*
D03*
X4223694Y1076967D02*
D03*
X4223695Y1165867D02*
D03*
X4224501Y1259401D02*
D03*
X4118330Y1261411D02*
D03*
X5029301Y1445501D02*
D03*
X5348574Y1031973D02*
D03*
X5259674D02*
D03*
X5348574Y1120873D02*
D03*
X5259674D02*
D03*
X5259874Y1968273D02*
D03*
X5348774D02*
D03*
X5259874Y1879373D02*
D03*
X5348774D02*
D03*
X6451701Y2055101D02*
D03*
X5897001Y1518701D02*
D03*
X6874800Y1875200D02*
D03*
X7337000Y2711400D02*
D03*
X6879700Y2960300D02*
D03*
X6643800Y2979800D02*
D03*
X5029301Y937501D02*
D03*
X5894701Y1651301D02*
D03*
X7340701Y835901D02*
D03*
X7010501Y861301D02*
D03*
X7099401D02*
D03*
X7019300Y1765200D02*
D03*
X7115500D02*
D03*
X7099401Y2652001D02*
D03*
X7010501D02*
D03*
X2644101Y717901D02*
D03*
X2504401D02*
D03*
Y514701D02*
D03*
Y616301D02*
D03*
X2644101Y514701D02*
D03*
Y616301D02*
D03*
X5876100Y389001D02*
D03*
X5879700Y620101D02*
D03*
X5890825Y2551401D02*
D03*
X431901Y512601D02*
D03*
X4945700Y1444101D02*
D03*
Y1544600D02*
D03*
X2971901Y1813801D02*
D03*
Y1995834D02*
D03*
Y2177867D02*
D03*
Y1631768D02*
D03*
X2756001D02*
D03*
Y2177867D02*
D03*
Y1995834D02*
D03*
Y1813801D02*
D03*
X7077400Y1184400D02*
D03*
X6703100Y1272500D02*
D03*
X1159900Y1533100D02*
D03*
X1292119D02*
D03*
X1566801Y1968601D02*
D03*
X1439801D02*
D03*
X317601Y512601D02*
D03*
X7093301Y293401D02*
D03*
X6860000Y301900D02*
D03*
X7096401Y2096801D02*
D03*
X6700300Y2171200D02*
D03*
X5244600Y722400D02*
D03*
X5418200Y720200D02*
D03*
X3510100Y1634500D02*
D03*
X3511600Y1401200D02*
D03*
X5029301Y1547101D02*
D03*
X7340677Y2617601D02*
D03*
X6693001Y505701D02*
D03*
%TF.MD5,b63feb258bcc00845e4e6742735e3491*%
M02*
