%TF.GenerationSoftware,Altium Limited,Altium Designer,22.5.1 (42)*%
G04 Layer_Color=32768*
%FSLAX45Y45*%
%MOMM*%
%TF.SameCoordinates,F63A7803-94E7-494B-9888-F8709FA5C5B4*%
%TF.FilePolarity,Positive*%
%TF.FileFunction,Other,Mechanical_15*%
%TF.Part,Single*%
G01*
G75*
%TA.AperFunction,NonConductor*%
%ADD46C,0.30000*%
%ADD75C,0.50000*%
%ADD76C,0.00254*%
%ADD77C,0.05000*%
%ADD78C,0.05080*%
G36*
X8066501Y2815201D02*
X7986501D01*
Y2895201D01*
X8066501D01*
Y2815201D01*
D02*
G37*
G36*
X329941Y2703301D02*
X394752D01*
Y2673300D01*
X329941D01*
Y2611401D01*
X299941D01*
X299941Y2673300D01*
X244752D01*
Y2703301D01*
X299941D01*
X299940Y2761400D01*
X329941Y2761400D01*
Y2703301D01*
D02*
G37*
G36*
X1002241Y2691300D02*
X1067051D01*
Y2661300D01*
X1002241D01*
Y2599401D01*
X972241D01*
X972241Y2661300D01*
X917052D01*
Y2691300D01*
X972241D01*
X972240Y2749400D01*
X1002241Y2749400D01*
Y2691300D01*
D02*
G37*
G36*
X4967327Y2357458D02*
X4959707D01*
Y2398098D01*
X4967327D01*
Y2357458D01*
D02*
G37*
G36*
X8066501Y2307201D02*
X7986501D01*
Y2387201D01*
X8066501D01*
Y2307201D01*
D02*
G37*
G36*
X4968137Y2293638D02*
X4984647D01*
Y2286018D01*
X4968137D01*
Y2270778D01*
X4960517D01*
Y2286018D01*
X4944007D01*
Y2293638D01*
X4960517D01*
Y2311418D01*
X4968137D01*
Y2293638D01*
D02*
G37*
G36*
X797164Y2270371D02*
X677022D01*
Y2420231D01*
X797164D01*
Y2270371D01*
D02*
G37*
G36*
X407020D02*
X287132D01*
Y2420231D01*
X407020D01*
Y2270371D01*
D02*
G37*
G36*
X803006Y2217778D02*
Y2215253D01*
Y2212728D01*
X799435Y2209157D01*
X794385D01*
X790814Y2212728D01*
Y2215253D01*
Y2217778D01*
X794385Y2221349D01*
X799435D01*
X803006Y2217778D01*
D02*
G37*
G36*
X530Y2061025D02*
X3923Y2057535D01*
X3925Y2052666D01*
X535Y2049173D01*
X-1898Y2049101D01*
X-1899Y2049101D01*
X-4332Y2049171D01*
X-7725Y2052661D01*
X-7727Y2057530D01*
X-4337Y2061023D01*
X-1903Y2061095D01*
X530Y2061025D01*
D02*
G37*
G36*
X8066501Y1799201D02*
X7986501D01*
Y1879201D01*
X8066501D01*
Y1799201D01*
D02*
G37*
G36*
X548101Y1748602D02*
X468101D01*
Y1853600D01*
X548101D01*
Y1748602D01*
D02*
G37*
G36*
X8066501Y1291201D02*
X7986501D01*
Y1371201D01*
X8066501D01*
Y1291201D01*
D02*
G37*
G36*
X2838912Y1273995D02*
Y1271510D01*
Y1269024D01*
X2835397Y1265510D01*
X2830426D01*
X2826912Y1269024D01*
Y1271510D01*
Y1273995D01*
X2830426Y1277510D01*
X2835397D01*
X2838912Y1273995D01*
D02*
G37*
G36*
X548101Y1240602D02*
X468101D01*
Y1345600D01*
X548101D01*
Y1240602D01*
D02*
G37*
G36*
X3068900Y1241497D02*
X3112900D01*
X3112900Y1201497D01*
X3068900D01*
Y1201497D01*
X3051900Y1201497D01*
X3051899Y1241497D01*
X3068900Y1241497D01*
Y1241497D01*
D02*
G37*
G36*
X2893901D02*
X2893901Y1201497D01*
X2832901D01*
X2832901Y1241497D01*
X2876901D01*
Y1241497D01*
X2893901Y1241497D01*
D02*
G37*
G36*
X2893901Y1106500D02*
X2876901Y1106500D01*
Y1106501D01*
X2832901D01*
Y1146501D01*
X2876901Y1146501D01*
D01*
X2893901D01*
Y1106500D01*
D02*
G37*
G36*
X2893901Y1011505D02*
X2832901D01*
X2832901Y1051505D01*
X2893901D01*
X2893901Y1011505D01*
D02*
G37*
G36*
X3112900D02*
X3068900D01*
Y1011504D01*
X3051900D01*
X3051899Y1051505D01*
X3112900D01*
X3112900Y1011505D01*
D02*
G37*
G36*
X8066501Y783201D02*
X7986501D01*
Y863201D01*
X8066501D01*
Y783201D01*
D02*
G37*
G36*
X855064Y583171D02*
X734922D01*
Y733031D01*
X855064D01*
Y583171D01*
D02*
G37*
G36*
X464920D02*
X345032D01*
Y733031D01*
X464920D01*
Y583171D01*
D02*
G37*
G36*
X860906Y530578D02*
Y528053D01*
Y525528D01*
X857335Y521957D01*
X852285D01*
X848714Y525528D01*
Y528053D01*
Y530578D01*
X852285Y534149D01*
X857335D01*
X860906Y530578D01*
D02*
G37*
G36*
X2988400Y535301D02*
X3043589D01*
Y505301D01*
X2988400D01*
Y447201D01*
X2958400Y447201D01*
Y505301D01*
X2893590D01*
Y535301D01*
X2958400D01*
Y597200D01*
X2988400D01*
Y535301D01*
D02*
G37*
G36*
X2325295Y446201D02*
X2090295D01*
Y946200D01*
X2325295D01*
Y446201D01*
D02*
G37*
G36*
X1330296D02*
X1095295D01*
Y946200D01*
X1330296D01*
Y446201D01*
D02*
G37*
G36*
X3454384Y411565D02*
X3470894D01*
Y403945D01*
X3454384D01*
Y386165D01*
X3446764D01*
Y403945D01*
X3430254D01*
Y411565D01*
X3446764D01*
Y426805D01*
X3454384D01*
Y411565D01*
D02*
G37*
G36*
X3455194Y299485D02*
X3447574D01*
Y340125D01*
X3455194D01*
Y299485D01*
D02*
G37*
G36*
X8066501Y275201D02*
X7986501D01*
Y355200D01*
X8066501D01*
Y275201D01*
D02*
G37*
G36*
X1101294Y83688D02*
X1101295Y81200D01*
X1101294D01*
X1101296Y78714D01*
X1097780Y75195D01*
X1092806Y75193D01*
X1089288Y78709D01*
X1089287Y81196D01*
X1089286Y83683D01*
X1092801Y87201D01*
X1097775Y87203D01*
X1101294Y83688D01*
D02*
G37*
G36*
X8536507Y67197D02*
X8538993Y67195D01*
X8542506Y63675D01*
X8542500Y58703D01*
X8538981Y55191D01*
X8536495Y55193D01*
X8534009Y55196D01*
X8530496Y58716D01*
X8530502Y63688D01*
X8534021Y67200D01*
X8536507Y67197D01*
D02*
G37*
D46*
X3842912Y1763927D02*
G03*
X3842912Y1763927I-15011J0D01*
G01*
D75*
X1168811Y2314102D02*
G03*
X1168811Y2314102I-24994J0D01*
G01*
D76*
X5092775Y2744050D02*
X5092826Y2744101D01*
X2876340Y2724627D02*
X2876391Y2724576D01*
X4045610Y2714553D02*
X4045661Y2714502D01*
X7173575Y2460610D02*
X7173626Y2460661D01*
X7174175Y2598410D02*
X7174226Y2598461D01*
X6058275Y1473441D02*
X6058326Y1473491D01*
X6058275Y1605841D02*
X6058326Y1605891D01*
X6059175Y2129740D02*
X6059226Y2129791D01*
X6056775Y2347640D02*
X6056826Y2347691D01*
X6055275Y2510541D02*
X6055326Y2510591D01*
X7160275Y1560710D02*
X7160326Y1560761D01*
X7163075Y1705510D02*
X7163126Y1705561D01*
X7174699Y2177641D02*
X7174750Y2177691D01*
X6056375Y350040D02*
X6056426Y350091D01*
X6058075Y579340D02*
X6058126Y579391D01*
X6058075Y712340D02*
X6058126Y712391D01*
X6056775Y1230641D02*
X6056826Y1230691D01*
X7171875Y340340D02*
X7171926Y340391D01*
X7174875Y816410D02*
X7174926Y816461D01*
X7173575Y672810D02*
X7173626Y672861D01*
X7161975Y1243440D02*
X7162026Y1243492D01*
D77*
X4267001Y1182301D02*
Y1810301D01*
Y1182301D02*
X4403001D01*
Y1111301D02*
Y1182301D01*
Y1111301D02*
X4474001D01*
Y975301D02*
Y1111301D01*
Y975301D02*
X5102000D01*
Y1111301D01*
X5173001D01*
Y1182301D01*
X5309001D01*
Y1810301D01*
X5173001D02*
X5309001D01*
X5173001D02*
Y1881301D01*
X5102000D02*
X5173001D01*
X5102000D02*
Y2017301D01*
X4474001D02*
X5102000D01*
X4474001Y1881301D02*
Y2017301D01*
X4403001Y1881301D02*
X4474001D01*
X4403001Y1810301D02*
Y1881301D01*
X4267001Y1810301D02*
X4403001D01*
X3893000Y1079801D02*
X3893001Y1231801D01*
X3893000Y1079801D02*
X4195000Y1079800D01*
X4195000Y1231801D01*
X3893001D02*
X4195000D01*
X5400000Y1725100D02*
X5702000D01*
X5400000D02*
X5400001Y1877101D01*
X5702001D01*
X5702000Y1725100D02*
X5702001Y1877101D01*
X6987801Y1183201D02*
Y1733201D01*
X6245801Y1183201D02*
Y1733201D01*
Y1183201D02*
X6987801D01*
X6245801Y1733201D02*
X6987801D01*
Y2084901D02*
Y2634901D01*
X6245801Y2084901D02*
Y2634901D01*
Y2084901D02*
X6987801D01*
X6245801Y2634901D02*
X6987801D01*
X6395301Y1777701D02*
Y2027701D01*
X6838301Y1777701D02*
Y2027701D01*
X6395301D02*
X6838301D01*
X6395301Y1777701D02*
X6838301D01*
X6420701Y2679401D02*
X6863701D01*
X6420701Y2929401D02*
X6863701D01*
Y2679401D02*
Y2929401D01*
X6420701Y2679401D02*
Y2929401D01*
X4228901Y2480200D02*
X4380901Y2480201D01*
X4228901Y2178200D02*
Y2480200D01*
Y2178200D02*
X4380901Y2178201D01*
Y2480201D01*
X5341300Y734701D02*
X5493300D01*
Y1036701D01*
X5341300D02*
X5493300D01*
X5341300Y734701D02*
Y1036701D01*
X6987801Y294201D02*
Y844201D01*
X6245801Y294201D02*
Y844201D01*
Y294201D02*
X6987801D01*
X6245801Y844201D02*
X6987801D01*
X6421501Y875601D02*
Y1125601D01*
X6864501Y875601D02*
Y1125601D01*
X6421501D02*
X6864501D01*
X6421501Y875601D02*
X6864501D01*
D78*
X317104Y2475349D02*
X766938D01*
X317104Y2215253D02*
Y2475349D01*
Y2215253D02*
X766938D01*
Y2475349D01*
X-1898Y1039103D02*
Y2055101D01*
Y1039103D02*
X1008100D01*
Y2055101D01*
X-1898D02*
X1008100D01*
X2892893Y981507D02*
X3052893D01*
X2892893Y1271510D02*
X2892893Y981507D01*
X2892893Y1271510D02*
X3052893Y1271509D01*
Y981507D02*
Y1271509D01*
X1095295Y81201D02*
Y1311201D01*
Y81201D02*
X2325295Y81201D01*
Y1311201D01*
X1095295Y1311201D02*
X2325295Y1311201D01*
X375004Y788149D02*
X824838D01*
X375004Y528053D02*
Y788149D01*
Y528053D02*
X824838D01*
Y788149D01*
X7516499Y61201D02*
X8536500D01*
X7516499Y3109201D02*
X7516499Y61201D01*
X7516499Y3109201D02*
X8536500Y3109201D01*
Y61201D02*
Y3109201D01*
%TF.MD5,cb0d4fd4cb54aeacd63af0c52ba095d8*%
M02*
