%TF.GenerationSoftware,Altium Limited,Altium Designer,22.5.1 (42)*%
G04 Layer_Color=32768*
%FSLAX45Y45*%
%MOMM*%
%TF.SameCoordinates,F63A7803-94E7-494B-9888-F8709FA5C5B4*%
%TF.FilePolarity,Positive*%
%TF.FileFunction,Other,Bottom_Tenting*%
%TF.Part,Single*%
G01*
G75*
%TA.AperFunction,SMDPad,CuDef*%
%ADD74C,0.60000*%
D74*
X6693001Y505701D02*
D03*
X7340677Y2617601D02*
D03*
X5029301Y1547101D02*
D03*
X3511600Y1401200D02*
D03*
X3510100Y1634500D02*
D03*
X5418200Y720200D02*
D03*
X5244600Y722400D02*
D03*
X6700300Y2171200D02*
D03*
X7096401Y2096801D02*
D03*
X6860000Y301900D02*
D03*
X7093301Y293401D02*
D03*
X317601Y512601D02*
D03*
X1439801Y1968601D02*
D03*
X1566801D02*
D03*
X1292119Y1533100D02*
D03*
X1159900D02*
D03*
X6703100Y1272500D02*
D03*
X7077400Y1184400D02*
D03*
X2756001Y1813801D02*
D03*
Y1995834D02*
D03*
Y2177867D02*
D03*
Y1631768D02*
D03*
X2971901D02*
D03*
Y2177867D02*
D03*
Y1995834D02*
D03*
Y1813801D02*
D03*
X4945700Y1544600D02*
D03*
Y1444101D02*
D03*
X431901Y512601D02*
D03*
X5890825Y2551401D02*
D03*
X5879700Y620101D02*
D03*
X5876100Y389001D02*
D03*
X2644101Y616301D02*
D03*
Y514701D02*
D03*
X2504401Y616301D02*
D03*
Y514701D02*
D03*
Y717901D02*
D03*
X2644101D02*
D03*
X7010501Y2652001D02*
D03*
X7099401D02*
D03*
X7115500Y1765200D02*
D03*
X7019300D02*
D03*
X7099401Y861301D02*
D03*
X7010501D02*
D03*
X7340701Y835901D02*
D03*
X5894701Y1651301D02*
D03*
X5029301Y937501D02*
D03*
X6643800Y2979800D02*
D03*
X6879700Y2960300D02*
D03*
X7337000Y2711400D02*
D03*
X6874800Y1875200D02*
D03*
X5897001Y1518701D02*
D03*
X6451701Y2055101D02*
D03*
X5348774Y1879373D02*
D03*
X5259874D02*
D03*
X5348774Y1968273D02*
D03*
X5259874D02*
D03*
X5259674Y1120873D02*
D03*
X5348574D02*
D03*
X5259674Y1031973D02*
D03*
X5348574D02*
D03*
X5029301Y1445501D02*
D03*
X4118330Y1261411D02*
D03*
X4224501Y1259401D02*
D03*
X4223695Y1165867D02*
D03*
X4223694Y1076967D02*
D03*
X5887524Y2173501D02*
D03*
X6215101Y2389401D02*
D03*
X6878901Y2883001D02*
D03*
X7001801Y2299001D02*
D03*
X5511701Y1595501D02*
D03*
X6864701Y1975401D02*
D03*
X4600679Y1206022D02*
D03*
X6724701Y1395701D02*
D03*
X7324001Y1665101D02*
D03*
X5887901Y754001D02*
D03*
X4439575Y2142032D02*
D03*
X4350675D02*
D03*
X4439575Y2053132D02*
D03*
X4350675D02*
D03*
X3311773Y1342323D02*
D03*
X3222873D02*
D03*
X3311773Y1442973D02*
D03*
X3222874D02*
D03*
X3308173Y1241673D02*
D03*
X3219274D02*
D03*
X3134299Y1443001D02*
D03*
X3134299Y1342351D02*
D03*
X3449901Y468001D02*
D03*
X2919600Y2880901D02*
D03*
X3119701Y2874101D02*
D03*
X3576401Y466601D02*
D03*
X5351100Y1684600D02*
D03*
X4596600Y2064900D02*
D03*
X4305100Y2491600D02*
D03*
X4476700Y2482000D02*
D03*
X4002400Y2561800D02*
D03*
X3410700Y2837400D02*
D03*
X3877800Y2485600D02*
D03*
X5698700Y2021700D02*
D03*
X4825700Y2219000D02*
D03*
X3080200Y842200D02*
D03*
X5886100Y2389700D02*
D03*
X3556800Y1519300D02*
D03*
X2936700Y1125000D02*
D03*
X2838400Y1426200D02*
D03*
X4530700Y1535400D02*
D03*
X4745975Y1448332D02*
D03*
X4834875D02*
D03*
X4745975Y1537232D02*
D03*
X4834875D02*
D03*
X5418475Y2283132D02*
D03*
X5507375D02*
D03*
X5418475Y2372032D02*
D03*
X5507375D02*
D03*
X6940675Y86932D02*
D03*
X7029575D02*
D03*
X6940675Y175832D02*
D03*
X7029575D02*
D03*
X7219200Y1088700D02*
D03*
X7234575Y1922932D02*
D03*
X7323475D02*
D03*
X7234575Y2011832D02*
D03*
X7323475D02*
D03*
X7233875Y2873632D02*
D03*
X7322775D02*
D03*
X7233875Y2962532D02*
D03*
X7322775D02*
D03*
X1836875Y2841032D02*
D03*
X1925775D02*
D03*
X1836875Y2929932D02*
D03*
X1925775D02*
D03*
X1685075Y1967032D02*
D03*
X1773975D02*
D03*
X1685075Y2055932D02*
D03*
X1773975D02*
D03*
X1570801Y2064801D02*
D03*
X1443801D02*
D03*
X431900Y409700D02*
D03*
X313501Y412401D02*
D03*
X324001Y874601D02*
D03*
X442400Y871900D02*
D03*
X442401Y974801D02*
D03*
X328101D02*
D03*
X1167000Y1304501D02*
D03*
X1285400Y1301800D02*
D03*
X1285401Y1404701D02*
D03*
X1171101D02*
D03*
X3590201Y983101D02*
D03*
X3708600Y980400D02*
D03*
X3708601Y1083301D02*
D03*
X3594301D02*
D03*
X5713200Y1924200D02*
D03*
X6362801Y1877301D02*
D03*
X7310875Y1084900D02*
D03*
X7408700Y1030600D02*
D03*
X7313700Y946600D02*
D03*
X7221600Y950500D02*
D03*
X6928700Y959400D02*
D03*
X6020300Y923800D02*
D03*
X6199200Y921700D02*
D03*
X5704800Y1812200D02*
D03*
X6887100Y2770700D02*
D03*
X6650600Y2900200D02*
D03*
X6402301Y2772501D02*
D03*
X6337800Y2881800D02*
D03*
X6642400Y2045900D02*
D03*
X5853500Y1367600D02*
D03*
X6617100Y952500D02*
D03*
X6625900Y1093700D02*
D03*
X5709600Y820700D02*
D03*
X4745700Y1331600D02*
D03*
X4653767Y1329112D02*
D03*
X4509950Y1286550D02*
D03*
X4525700Y1425100D02*
D03*
X3823000Y1547400D02*
D03*
X3921900Y1340800D02*
D03*
X4152700Y1661900D02*
D03*
X6228050Y1511950D02*
D03*
%TF.MD5,1c4b3778d4ed6fd960a2cd1e29b75ef5*%
M02*
