%TF.GenerationSoftware,Altium Limited,Altium Designer,22.5.1 (42)*%
G04 Layer_Color=8388736*
%FSLAX45Y45*%
%MOMM*%
%TF.SameCoordinates,F63A7803-94E7-494B-9888-F8709FA5C5B4*%
%TF.FilePolarity,Positive*%
%TF.FileFunction,Other,Mechanical_6*%
%TF.Part,Single*%
G01*
G75*
%TA.AperFunction,NonConductor*%
%ADD49C,0.40000*%
%ADD75C,0.50000*%
G36*
X821548Y2332601D02*
X681848D01*
Y2358001D01*
X821548D01*
Y2332601D01*
D02*
G37*
G36*
X345298Y2358001D02*
X402448D01*
Y2332601D01*
X345298D01*
Y2275451D01*
X319899D01*
Y2332601D01*
X262748D01*
Y2358001D01*
X319899D01*
Y2415151D01*
X345298D01*
Y2358001D01*
D02*
G37*
G36*
X928100Y2129802D02*
X931414D01*
X937196Y2126563D01*
X940660Y2120912D01*
X940920Y2114289D01*
X939415Y2111336D01*
X908844Y2051336D01*
X906451Y2046659D01*
X896454Y2043421D01*
X887091Y2048191D01*
X883835Y2058182D01*
X886213Y2062868D01*
X886212Y2062868D01*
X907376Y2104402D01*
X847567Y2104402D01*
X866139Y2062220D01*
X868259Y2057406D01*
X864448Y2047599D01*
X854819Y2043359D01*
X845013Y2047170D01*
X842893Y2051984D01*
Y2051984D01*
X816477Y2111984D01*
X815180Y2114929D01*
X815704Y2121345D01*
X819221Y2126736D01*
X824881Y2129802D01*
X828100D01*
X928100Y2129802D01*
D02*
G37*
G36*
X208101D02*
X211415D01*
X217198Y2126563D01*
X220661Y2120912D01*
X220921Y2114289D01*
X219417Y2111336D01*
X188845Y2051336D01*
X186451Y2046659D01*
X176455Y2043421D01*
X167092Y2048191D01*
X163836Y2058182D01*
X166214Y2062868D01*
X166214Y2062868D01*
X187377Y2104402D01*
X127568D01*
X146140Y2062220D01*
X148260Y2057406D01*
X144450Y2047599D01*
X134821Y2043359D01*
X125014Y2047170D01*
X122894Y2051984D01*
X122895Y2051984D01*
X96478Y2111984D01*
X95181Y2114929D01*
X95706Y2121345D01*
X99223Y2126736D01*
X104883Y2129802D01*
X108101D01*
X208101Y2129802D01*
D02*
G37*
G36*
X1016101Y1933361D02*
Y1922840D01*
X1008661Y1915401D01*
X805461D01*
X762101Y1872040D01*
Y1730161D01*
X805461Y1686801D01*
X1008661D01*
X1016101Y1679361D01*
Y1668840D01*
X1008661Y1661401D01*
X800201D01*
X798950Y1661401D01*
X796496Y1661888D01*
X794184Y1662845D01*
X792104Y1664235D01*
X791219Y1665119D01*
Y1665120D01*
X740419Y1715919D01*
X739534Y1716804D01*
X738145Y1718884D01*
X737188Y1721196D01*
X736700Y1723650D01*
X736701Y1724901D01*
Y1877301D01*
X736700Y1878551D01*
X737188Y1881005D01*
X738145Y1883317D01*
X739534Y1885397D01*
X740419Y1886282D01*
X740419Y1886282D01*
X791219Y1937082D01*
X792104Y1937967D01*
X794184Y1939356D01*
X796496Y1940313D01*
X798950Y1940801D01*
X800201Y1940801D01*
Y1940801D01*
X1008661D01*
X1016101Y1933361D01*
D02*
G37*
G36*
X889101Y1813801D02*
X990701D01*
X990700Y1788401D01*
X889101D01*
Y1724901D01*
X812901Y1801101D01*
X889101Y1877301D01*
Y1813801D01*
D02*
G37*
G36*
X1016101Y1425361D02*
Y1414840D01*
X1008661Y1407401D01*
X805461D01*
X762101Y1364040D01*
Y1222161D01*
X805461Y1178801D01*
X1008661D01*
X1016101Y1171361D01*
Y1160840D01*
X1008661Y1153401D01*
X800201D01*
X798950Y1153401D01*
X796496Y1153888D01*
X794184Y1154845D01*
X792104Y1156235D01*
X791219Y1157119D01*
Y1157119D01*
X740419Y1207919D01*
X739534Y1208804D01*
X738145Y1210884D01*
X737188Y1213196D01*
X736700Y1215650D01*
X736701Y1216901D01*
Y1369301D01*
X736700Y1370551D01*
X737188Y1373005D01*
X738145Y1375317D01*
X739534Y1377397D01*
X740419Y1378282D01*
X740419Y1378282D01*
X791219Y1429082D01*
X792104Y1429967D01*
X794184Y1431356D01*
X796496Y1432313D01*
X798950Y1432801D01*
X800201Y1432801D01*
Y1432801D01*
X1008661D01*
X1016101Y1425361D01*
D02*
G37*
G36*
X889101Y1305801D02*
X990700D01*
X990701Y1280401D01*
X889101D01*
Y1216901D01*
X812901Y1293101D01*
X889101Y1369301D01*
Y1305801D01*
D02*
G37*
G36*
X879448Y645401D02*
X739748D01*
Y670801D01*
X879448D01*
Y645401D01*
D02*
G37*
G36*
X403198Y670801D02*
X460348D01*
Y645401D01*
X403198D01*
Y588251D01*
X377799D01*
Y645401D01*
X320648D01*
Y670801D01*
X377799D01*
Y727951D01*
X403198D01*
Y670801D01*
D02*
G37*
G36*
X8386500Y-4799D02*
X8266500Y-4799D01*
Y55201D01*
X8386500D01*
X8386500Y-4799D01*
D02*
G37*
G36*
X7786501Y-4801D02*
X7666501Y-4801D01*
X7666501Y55199D01*
X7786501D01*
Y-4801D01*
D02*
G37*
D49*
X2853177Y1228101D02*
G03*
X2853177Y1228101I-19990J0D01*
G01*
D75*
X8171484Y235191D02*
G03*
X8171484Y235191I-24994J0D01*
G01*
%TF.MD5,7fb0771afb00cfd8a2ed4af9703f19be*%
M02*
