%TF.GenerationSoftware,Altium Limited,Altium Designer,22.5.1 (42)*%
G04 Layer_Color=2752767*
%FSLAX45Y45*%
%MOMM*%
%TF.SameCoordinates,F63A7803-94E7-494B-9888-F8709FA5C5B4*%
%TF.FilePolarity,Positive*%
%TF.FileFunction,Drawing*%
%TF.Part,Single*%
G01*
G75*
%TA.AperFunction,NonConductor*%
%ADD50C,0.12700*%
%ADD85C,0.16933*%
D50*
X508101Y1242301D02*
X457301Y1343901D01*
X558901D01*
X508101Y1242301D01*
Y1750301D02*
X457301Y1851901D01*
X558901D01*
X508101Y1750301D01*
X2767601Y219401D02*
X2793001Y270201D01*
X2767601Y321001D01*
X2818401Y295601D01*
X2869201Y321001D01*
X2843801Y270201D01*
X2869201Y219401D01*
X2818401Y244801D01*
X2767601Y219401D01*
Y473401D02*
X2793001Y524201D01*
X2767601Y575001D01*
X2818401Y549601D01*
X2869201Y575001D01*
X2843801Y524201D01*
X2869201Y473401D01*
X2818401Y498801D01*
X2767601Y473401D01*
X1091440Y2875600D02*
X1116840Y2926400D01*
X1091440Y2977200D01*
X1142240Y2951800D01*
X1193040Y2977200D01*
X1167640Y2926400D01*
X1193040Y2875600D01*
X1142240Y2901000D01*
X1091440Y2875600D01*
X1091441Y2621600D02*
X1116841Y2672400D01*
X1091441Y2723200D01*
X1142241Y2697800D01*
X1193041Y2723200D01*
X1167641Y2672400D01*
X1193041Y2621600D01*
X1142241Y2647000D01*
X1091441Y2621600D01*
X419140Y2887601D02*
X444540Y2938401D01*
X419140Y2989201D01*
X469940Y2963801D01*
X520740Y2989201D01*
X495340Y2938401D01*
X520740Y2887601D01*
X469940Y2913001D01*
X419140Y2887601D01*
X419141Y2633600D02*
X444541Y2684400D01*
X419141Y2735200D01*
X469941Y2709800D01*
X520741Y2735200D01*
X495341Y2684400D01*
X520741Y2633600D01*
X469941Y2659000D01*
X419141Y2633600D01*
X8026501Y264401D02*
X8051901Y289801D01*
X8077301D01*
X8051901Y315201D01*
X8077301Y340601D01*
X8051901D01*
X8026501Y366001D01*
X8001101Y340601D01*
X7975701D01*
X8001101Y315201D01*
X7975701Y289801D01*
X8001101D01*
X8026501Y264401D01*
Y772401D02*
X8051901Y797801D01*
X8077301D01*
X8051901Y823201D01*
X8077301Y848601D01*
X8051901D01*
X8026501Y874001D01*
X8001101Y848601D01*
X7975701D01*
X8001101Y823201D01*
X7975701Y797801D01*
X8001101D01*
X8026501Y772401D01*
Y1280401D02*
X8051901Y1305801D01*
X8077301D01*
X8051901Y1331201D01*
X8077301Y1356601D01*
X8051901D01*
X8026501Y1382001D01*
X8001101Y1356601D01*
X7975701D01*
X8001101Y1331201D01*
X7975701Y1305801D01*
X8001101D01*
X8026501Y1280401D01*
Y1788401D02*
X8051901Y1813801D01*
X8077301D01*
X8051901Y1839201D01*
X8077301Y1864601D01*
X8051901D01*
X8026501Y1890001D01*
X8001101Y1864601D01*
X7975701D01*
X8001101Y1839201D01*
X7975701Y1813801D01*
X8001101D01*
X8026501Y1788401D01*
Y2296401D02*
X8051901Y2321801D01*
X8077301D01*
X8051901Y2347201D01*
X8077301Y2372601D01*
X8051901D01*
X8026501Y2398001D01*
X8001101Y2372601D01*
X7975701D01*
X8001101Y2347201D01*
X7975701Y2321801D01*
X8001101D01*
X8026501Y2296401D01*
Y2804401D02*
X8051901Y2829801D01*
X8077301D01*
X8051901Y2855201D01*
X8077301Y2880601D01*
X8051901D01*
X8026501Y2906001D01*
X8001101Y2880601D01*
X7975701D01*
X8001101Y2855201D01*
X7975701Y2829801D01*
X8001101D01*
X8026501Y2804401D01*
X6202650Y1486550D02*
Y1461150D01*
X6253450D01*
Y1486550D01*
X6278850D01*
Y1537350D01*
X6253450D01*
Y1562750D01*
X6202650D01*
Y1537350D01*
X6177250D01*
Y1486550D01*
X6202650D01*
X4127300Y1636500D02*
Y1611100D01*
X4178100D01*
Y1636500D01*
X4203500D01*
Y1687300D01*
X4178100D01*
Y1712700D01*
X4127300D01*
Y1687300D01*
X4101900D01*
Y1636500D01*
X4127300D01*
X3896500Y1315400D02*
Y1290000D01*
X3947300D01*
Y1315400D01*
X3972700D01*
Y1366200D01*
X3947300D01*
Y1391600D01*
X3896500D01*
Y1366200D01*
X3871100D01*
Y1315400D01*
X3896500D01*
X3797600Y1522000D02*
Y1496600D01*
X3848400D01*
Y1522000D01*
X3873800D01*
Y1572800D01*
X3848400D01*
Y1598200D01*
X3797600D01*
Y1572800D01*
X3772200D01*
Y1522000D01*
X3797600D01*
X4500300Y1399700D02*
Y1374300D01*
X4551100D01*
Y1399700D01*
X4576500D01*
Y1450500D01*
X4551100D01*
Y1475900D01*
X4500300D01*
Y1450500D01*
X4474900D01*
Y1399700D01*
X4500300D01*
X4484550Y1261150D02*
Y1235750D01*
X4535350D01*
Y1261150D01*
X4560750D01*
Y1311950D01*
X4535350D01*
Y1337350D01*
X4484550D01*
Y1311950D01*
X4459150D01*
Y1261150D01*
X4484550D01*
X4628367Y1303712D02*
Y1278312D01*
X4679167D01*
Y1303712D01*
X4704567D01*
Y1354512D01*
X4679167D01*
Y1379912D01*
X4628367D01*
Y1354512D01*
X4602967D01*
Y1303712D01*
X4628367D01*
X4720300Y1306200D02*
Y1280800D01*
X4771100D01*
Y1306200D01*
X4796500D01*
Y1357000D01*
X4771100D01*
Y1382400D01*
X4720300D01*
Y1357000D01*
X4694900D01*
Y1306200D01*
X4720300D01*
X5684200Y795300D02*
Y769900D01*
X5735000D01*
Y795300D01*
X5760400D01*
Y846100D01*
X5735000D01*
Y871500D01*
X5684200D01*
Y846100D01*
X5658800D01*
Y795300D01*
X5684200D01*
X6600500Y1068300D02*
Y1042900D01*
X6651300D01*
Y1068300D01*
X6676700D01*
Y1119100D01*
X6651300D01*
Y1144500D01*
X6600500D01*
Y1119100D01*
X6575100D01*
Y1068300D01*
X6600500D01*
X6591700Y927100D02*
Y901700D01*
X6642500D01*
Y927100D01*
X6667900D01*
Y977900D01*
X6642500D01*
Y1003300D01*
X6591700D01*
Y977900D01*
X6566300D01*
Y927100D01*
X6591700D01*
X5828100Y1342200D02*
Y1316800D01*
X5878900D01*
Y1342200D01*
X5904300D01*
Y1393000D01*
X5878900D01*
Y1418400D01*
X5828100D01*
Y1393000D01*
X5802700D01*
Y1342200D01*
X5828100D01*
X6617000Y2020500D02*
Y1995100D01*
X6667800D01*
Y2020500D01*
X6693200D01*
Y2071300D01*
X6667800D01*
Y2096700D01*
X6617000D01*
Y2071300D01*
X6591600D01*
Y2020500D01*
X6617000D01*
X6312400Y2856400D02*
Y2831000D01*
X6363200D01*
Y2856400D01*
X6388600D01*
Y2907200D01*
X6363200D01*
Y2932600D01*
X6312400D01*
Y2907200D01*
X6287000D01*
Y2856400D01*
X6312400D01*
X6376901Y2747101D02*
Y2721701D01*
X6427701D01*
Y2747101D01*
X6453101D01*
Y2797901D01*
X6427701D01*
Y2823301D01*
X6376901D01*
Y2797901D01*
X6351501D01*
Y2747101D01*
X6376901D01*
X6625200Y2874800D02*
Y2849400D01*
X6676000D01*
Y2874800D01*
X6701400D01*
Y2925600D01*
X6676000D01*
Y2951000D01*
X6625200D01*
Y2925600D01*
X6599800D01*
Y2874800D01*
X6625200D01*
X6861700Y2745300D02*
Y2719900D01*
X6912500D01*
Y2745300D01*
X6937900D01*
Y2796100D01*
X6912500D01*
Y2821500D01*
X6861700D01*
Y2796100D01*
X6836300D01*
Y2745300D01*
X6861700D01*
X5679400Y1786800D02*
Y1761400D01*
X5730200D01*
Y1786800D01*
X5755600D01*
Y1837600D01*
X5730200D01*
Y1863000D01*
X5679400D01*
Y1837600D01*
X5654000D01*
Y1786800D01*
X5679400D01*
X6173800Y896300D02*
Y870900D01*
X6224600D01*
Y896300D01*
X6250000D01*
Y947100D01*
X6224600D01*
Y972500D01*
X6173800D01*
Y947100D01*
X6148400D01*
Y896300D01*
X6173800D01*
X5994900Y898400D02*
Y873000D01*
X6045700D01*
Y898400D01*
X6071100D01*
Y949200D01*
X6045700D01*
Y974600D01*
X5994900D01*
Y949200D01*
X5969500D01*
Y898400D01*
X5994900D01*
X6903300Y934000D02*
Y908600D01*
X6954100D01*
Y934000D01*
X6979500D01*
Y984800D01*
X6954100D01*
Y1010200D01*
X6903300D01*
Y984800D01*
X6877900D01*
Y934000D01*
X6903300D01*
X7196200Y925100D02*
Y899700D01*
X7247000D01*
Y925100D01*
X7272400D01*
Y975900D01*
X7247000D01*
Y1001300D01*
X7196200D01*
Y975900D01*
X7170800D01*
Y925100D01*
X7196200D01*
X7288300Y921200D02*
Y895800D01*
X7339100D01*
Y921200D01*
X7364500D01*
Y972000D01*
X7339100D01*
Y997400D01*
X7288300D01*
Y972000D01*
X7262900D01*
Y921200D01*
X7288300D01*
X7383300Y1005200D02*
Y979800D01*
X7434100D01*
Y1005200D01*
X7459500D01*
Y1056000D01*
X7434100D01*
Y1081400D01*
X7383300D01*
Y1056000D01*
X7357900D01*
Y1005200D01*
X7383300D01*
X7285475Y1059500D02*
Y1034100D01*
X7336275D01*
Y1059500D01*
X7361675D01*
Y1110300D01*
X7336275D01*
Y1135700D01*
X7285475D01*
Y1110300D01*
X7260075D01*
Y1059500D01*
X7285475D01*
X6337401Y1851901D02*
Y1826501D01*
X6388201D01*
Y1851901D01*
X6413601D01*
Y1902701D01*
X6388201D01*
Y1928101D01*
X6337401D01*
Y1902701D01*
X6312001D01*
Y1851901D01*
X6337401D01*
X5687800Y1898800D02*
Y1873400D01*
X5738600D01*
Y1898800D01*
X5764000D01*
Y1949600D01*
X5738600D01*
Y1975000D01*
X5687800D01*
Y1949600D01*
X5662400D01*
Y1898800D01*
X5687800D01*
X3568901Y1057901D02*
Y1032501D01*
X3619701D01*
Y1057901D01*
X3645101D01*
Y1108701D01*
X3619701D01*
Y1134101D01*
X3568901D01*
Y1108701D01*
X3543501D01*
Y1057901D01*
X3568901D01*
X3683201D02*
Y1032501D01*
X3734001D01*
Y1057901D01*
X3759401D01*
Y1108701D01*
X3734001D01*
Y1134101D01*
X3683201D01*
Y1108701D01*
X3657801D01*
Y1057901D01*
X3683201D01*
X3683200Y955000D02*
Y929600D01*
X3734000D01*
Y955000D01*
X3759400D01*
Y1005800D01*
X3734000D01*
Y1031200D01*
X3683200D01*
Y1005800D01*
X3657800D01*
Y955000D01*
X3683200D01*
X3564801Y957701D02*
Y932301D01*
X3615601D01*
Y957701D01*
X3641001D01*
Y1008501D01*
X3615601D01*
Y1033901D01*
X3564801D01*
Y1008501D01*
X3539401D01*
Y957701D01*
X3564801D01*
X1145701Y1379301D02*
Y1353901D01*
X1196501D01*
Y1379301D01*
X1221901D01*
Y1430101D01*
X1196501D01*
Y1455501D01*
X1145701D01*
Y1430101D01*
X1120301D01*
Y1379301D01*
X1145701D01*
X1260001D02*
Y1353901D01*
X1310801D01*
Y1379301D01*
X1336201D01*
Y1430101D01*
X1310801D01*
Y1455501D01*
X1260001D01*
Y1430101D01*
X1234601D01*
Y1379301D01*
X1260001D01*
X1260000Y1276400D02*
Y1251000D01*
X1310800D01*
Y1276400D01*
X1336200D01*
Y1327200D01*
X1310800D01*
Y1352600D01*
X1260000D01*
Y1327200D01*
X1234600D01*
Y1276400D01*
X1260000D01*
X1141600Y1279101D02*
Y1253701D01*
X1192400D01*
Y1279101D01*
X1217800D01*
Y1329901D01*
X1192400D01*
Y1355301D01*
X1141600D01*
Y1329901D01*
X1116200D01*
Y1279101D01*
X1141600D01*
X302701Y949401D02*
Y924001D01*
X353501D01*
Y949401D01*
X378901D01*
Y1000201D01*
X353501D01*
Y1025601D01*
X302701D01*
Y1000201D01*
X277301D01*
Y949401D01*
X302701D01*
X417001D02*
Y924001D01*
X467801D01*
Y949401D01*
X493201D01*
Y1000201D01*
X467801D01*
Y1025601D01*
X417001D01*
Y1000201D01*
X391601D01*
Y949401D01*
X417001D01*
X417000Y846500D02*
Y821100D01*
X467800D01*
Y846500D01*
X493200D01*
Y897300D01*
X467800D01*
Y922700D01*
X417000D01*
Y897300D01*
X391600D01*
Y846500D01*
X417000D01*
X298601Y849201D02*
Y823801D01*
X349401D01*
Y849201D01*
X374801D01*
Y900001D01*
X349401D01*
Y925401D01*
X298601D01*
Y900001D01*
X273201D01*
Y849201D01*
X298601D01*
X288101Y387001D02*
Y361601D01*
X338901D01*
Y387001D01*
X364301D01*
Y437801D01*
X338901D01*
Y463201D01*
X288101D01*
Y437801D01*
X262701D01*
Y387001D01*
X288101D01*
X406500Y384300D02*
Y358900D01*
X457300D01*
Y384300D01*
X482700D01*
Y435100D01*
X457300D01*
Y460500D01*
X406500D01*
Y435100D01*
X381100D01*
Y384300D01*
X406500D01*
X1418401Y2039401D02*
Y2014001D01*
X1469201D01*
Y2039401D01*
X1494601D01*
Y2090201D01*
X1469201D01*
Y2115601D01*
X1418401D01*
Y2090201D01*
X1393001D01*
Y2039401D01*
X1418401D01*
X1545401D02*
Y2014001D01*
X1596201D01*
Y2039401D01*
X1621601D01*
Y2090201D01*
X1596201D01*
Y2115601D01*
X1545401D01*
Y2090201D01*
X1520001D01*
Y2039401D01*
X1545401D01*
X1748575Y2030532D02*
Y2005132D01*
X1799375D01*
Y2030532D01*
X1824775D01*
Y2081332D01*
X1799375D01*
Y2106732D01*
X1748575D01*
Y2081332D01*
X1723175D01*
Y2030532D01*
X1748575D01*
X1659675D02*
Y2005132D01*
X1710475D01*
Y2030532D01*
X1735875D01*
Y2081332D01*
X1710475D01*
Y2106732D01*
X1659675D01*
Y2081332D01*
X1634275D01*
Y2030532D01*
X1659675D01*
X1748575Y1941632D02*
Y1916232D01*
X1799375D01*
Y1941632D01*
X1824775D01*
Y1992432D01*
X1799375D01*
Y2017832D01*
X1748575D01*
Y1992432D01*
X1723175D01*
Y1941632D01*
X1748575D01*
X1659675D02*
Y1916232D01*
X1710475D01*
Y1941632D01*
X1735875D01*
Y1992432D01*
X1710475D01*
Y2017832D01*
X1659675D01*
Y1992432D01*
X1634275D01*
Y1941632D01*
X1659675D01*
X1900375Y2904532D02*
Y2879132D01*
X1951175D01*
Y2904532D01*
X1976575D01*
Y2955332D01*
X1951175D01*
Y2980732D01*
X1900375D01*
Y2955332D01*
X1874975D01*
Y2904532D01*
X1900375D01*
X1811475D02*
Y2879132D01*
X1862275D01*
Y2904532D01*
X1887675D01*
Y2955332D01*
X1862275D01*
Y2980732D01*
X1811475D01*
Y2955332D01*
X1786075D01*
Y2904532D01*
X1811475D01*
X1900375Y2815632D02*
Y2790232D01*
X1951175D01*
Y2815632D01*
X1976575D01*
Y2866432D01*
X1951175D01*
Y2891832D01*
X1900375D01*
Y2866432D01*
X1874975D01*
Y2815632D01*
X1900375D01*
X1811475D02*
Y2790232D01*
X1862275D01*
Y2815632D01*
X1887675D01*
Y2866432D01*
X1862275D01*
Y2891832D01*
X1811475D01*
Y2866432D01*
X1786075D01*
Y2815632D01*
X1811475D01*
X7297375Y2937132D02*
Y2911732D01*
X7348175D01*
Y2937132D01*
X7373575D01*
Y2987932D01*
X7348175D01*
Y3013332D01*
X7297375D01*
Y2987932D01*
X7271975D01*
Y2937132D01*
X7297375D01*
X7208475D02*
Y2911732D01*
X7259275D01*
Y2937132D01*
X7284675D01*
Y2987932D01*
X7259275D01*
Y3013332D01*
X7208475D01*
Y2987932D01*
X7183075D01*
Y2937132D01*
X7208475D01*
X7297375Y2848232D02*
Y2822832D01*
X7348175D01*
Y2848232D01*
X7373575D01*
Y2899032D01*
X7348175D01*
Y2924432D01*
X7297375D01*
Y2899032D01*
X7271975D01*
Y2848232D01*
X7297375D01*
X7208475D02*
Y2822832D01*
X7259275D01*
Y2848232D01*
X7284675D01*
Y2899032D01*
X7259275D01*
Y2924432D01*
X7208475D01*
Y2899032D01*
X7183075D01*
Y2848232D01*
X7208475D01*
X7298075Y1986432D02*
Y1961032D01*
X7348875D01*
Y1986432D01*
X7374275D01*
Y2037232D01*
X7348875D01*
Y2062632D01*
X7298075D01*
Y2037232D01*
X7272675D01*
Y1986432D01*
X7298075D01*
X7209175D02*
Y1961032D01*
X7259975D01*
Y1986432D01*
X7285375D01*
Y2037232D01*
X7259975D01*
Y2062632D01*
X7209175D01*
Y2037232D01*
X7183775D01*
Y1986432D01*
X7209175D01*
X7298075Y1897532D02*
Y1872132D01*
X7348875D01*
Y1897532D01*
X7374275D01*
Y1948332D01*
X7348875D01*
Y1973732D01*
X7298075D01*
Y1948332D01*
X7272675D01*
Y1897532D01*
X7298075D01*
X7209175D02*
Y1872132D01*
X7259975D01*
Y1897532D01*
X7285375D01*
Y1948332D01*
X7259975D01*
Y1973732D01*
X7209175D01*
Y1948332D01*
X7183775D01*
Y1897532D01*
X7209175D01*
X7193800Y1063300D02*
Y1037900D01*
X7244600D01*
Y1063300D01*
X7270000D01*
Y1114100D01*
X7244600D01*
Y1139500D01*
X7193800D01*
Y1114100D01*
X7168400D01*
Y1063300D01*
X7193800D01*
X7004175Y150432D02*
Y125032D01*
X7054975D01*
Y150432D01*
X7080375D01*
Y201232D01*
X7054975D01*
Y226632D01*
X7004175D01*
Y201232D01*
X6978775D01*
Y150432D01*
X7004175D01*
X6915275D02*
Y125032D01*
X6966075D01*
Y150432D01*
X6991475D01*
Y201232D01*
X6966075D01*
Y226632D01*
X6915275D01*
Y201232D01*
X6889875D01*
Y150432D01*
X6915275D01*
X7004175Y61532D02*
Y36132D01*
X7054975D01*
Y61532D01*
X7080375D01*
Y112332D01*
X7054975D01*
Y137732D01*
X7004175D01*
Y112332D01*
X6978775D01*
Y61532D01*
X7004175D01*
X6915275D02*
Y36132D01*
X6966075D01*
Y61532D01*
X6991475D01*
Y112332D01*
X6966075D01*
Y137732D01*
X6915275D01*
Y112332D01*
X6889875D01*
Y61532D01*
X6915275D01*
X5481975Y2346632D02*
Y2321232D01*
X5532775D01*
Y2346632D01*
X5558175D01*
Y2397432D01*
X5532775D01*
Y2422832D01*
X5481975D01*
Y2397432D01*
X5456575D01*
Y2346632D01*
X5481975D01*
X5393075D02*
Y2321232D01*
X5443875D01*
Y2346632D01*
X5469275D01*
Y2397432D01*
X5443875D01*
Y2422832D01*
X5393075D01*
Y2397432D01*
X5367675D01*
Y2346632D01*
X5393075D01*
X5481975Y2257732D02*
Y2232332D01*
X5532775D01*
Y2257732D01*
X5558175D01*
Y2308532D01*
X5532775D01*
Y2333932D01*
X5481975D01*
Y2308532D01*
X5456575D01*
Y2257732D01*
X5481975D01*
X5393075D02*
Y2232332D01*
X5443875D01*
Y2257732D01*
X5469275D01*
Y2308532D01*
X5443875D01*
Y2333932D01*
X5393075D01*
Y2308532D01*
X5367675D01*
Y2257732D01*
X5393075D01*
X4809475Y1511832D02*
Y1486432D01*
X4860275D01*
Y1511832D01*
X4885675D01*
Y1562632D01*
X4860275D01*
Y1588032D01*
X4809475D01*
Y1562632D01*
X4784075D01*
Y1511832D01*
X4809475D01*
X4720575D02*
Y1486432D01*
X4771375D01*
Y1511832D01*
X4796775D01*
Y1562632D01*
X4771375D01*
Y1588032D01*
X4720575D01*
Y1562632D01*
X4695175D01*
Y1511832D01*
X4720575D01*
X4809475Y1422932D02*
Y1397532D01*
X4860275D01*
Y1422932D01*
X4885675D01*
Y1473732D01*
X4860275D01*
Y1499132D01*
X4809475D01*
Y1473732D01*
X4784075D01*
Y1422932D01*
X4809475D01*
X4720575D02*
Y1397532D01*
X4771375D01*
Y1422932D01*
X4796775D01*
Y1473732D01*
X4771375D01*
Y1499132D01*
X4720575D01*
Y1473732D01*
X4695175D01*
Y1422932D01*
X4720575D01*
X4505300Y1510000D02*
Y1484600D01*
X4556100D01*
Y1510000D01*
X4581500D01*
Y1560800D01*
X4556100D01*
Y1586200D01*
X4505300D01*
Y1560800D01*
X4479900D01*
Y1510000D01*
X4505300D01*
X2813000Y1400800D02*
Y1375400D01*
X2863800D01*
Y1400800D01*
X2889200D01*
Y1451600D01*
X2863800D01*
Y1477000D01*
X2813000D01*
Y1451600D01*
X2787600D01*
Y1400800D01*
X2813000D01*
X2911300Y1099600D02*
Y1074200D01*
X2962100D01*
Y1099600D01*
X2987500D01*
Y1150400D01*
X2962100D01*
Y1175800D01*
X2911300D01*
Y1150400D01*
X2885900D01*
Y1099600D01*
X2911300D01*
X3531400Y1493900D02*
Y1468500D01*
X3582200D01*
Y1493900D01*
X3607600D01*
Y1544700D01*
X3582200D01*
Y1570100D01*
X3531400D01*
Y1544700D01*
X3506000D01*
Y1493900D01*
X3531400D01*
X5860700Y2364300D02*
Y2338900D01*
X5911500D01*
Y2364300D01*
X5936900D01*
Y2415100D01*
X5911500D01*
Y2440500D01*
X5860700D01*
Y2415100D01*
X5835300D01*
Y2364300D01*
X5860700D01*
X3054800Y816800D02*
Y791400D01*
X3105600D01*
Y816800D01*
X3131000D01*
Y867600D01*
X3105600D01*
Y893000D01*
X3054800D01*
Y867600D01*
X3029400D01*
Y816800D01*
X3054800D01*
X4800300Y2193600D02*
Y2168200D01*
X4851100D01*
Y2193600D01*
X4876500D01*
Y2244400D01*
X4851100D01*
Y2269800D01*
X4800300D01*
Y2244400D01*
X4774900D01*
Y2193600D01*
X4800300D01*
X5673300Y1996300D02*
Y1970900D01*
X5724100D01*
Y1996300D01*
X5749500D01*
Y2047100D01*
X5724100D01*
Y2072500D01*
X5673300D01*
Y2047100D01*
X5647900D01*
Y1996300D01*
X5673300D01*
X3852400Y2460200D02*
Y2434800D01*
X3903200D01*
Y2460200D01*
X3928600D01*
Y2511000D01*
X3903200D01*
Y2536400D01*
X3852400D01*
Y2511000D01*
X3827000D01*
Y2460200D01*
X3852400D01*
X3385300Y2812000D02*
Y2786600D01*
X3436100D01*
Y2812000D01*
X3461500D01*
Y2862800D01*
X3436100D01*
Y2888200D01*
X3385300D01*
Y2862800D01*
X3359900D01*
Y2812000D01*
X3385300D01*
X3977000Y2536400D02*
Y2511000D01*
X4027800D01*
Y2536400D01*
X4053200D01*
Y2587200D01*
X4027800D01*
Y2612600D01*
X3977000D01*
Y2587200D01*
X3951600D01*
Y2536400D01*
X3977000D01*
X4451300Y2456600D02*
Y2431200D01*
X4502100D01*
Y2456600D01*
X4527500D01*
Y2507400D01*
X4502100D01*
Y2532800D01*
X4451300D01*
Y2507400D01*
X4425900D01*
Y2456600D01*
X4451300D01*
X4279700Y2466200D02*
Y2440800D01*
X4330500D01*
Y2466200D01*
X4355900D01*
Y2517000D01*
X4330500D01*
Y2542400D01*
X4279700D01*
Y2517000D01*
X4254300D01*
Y2466200D01*
X4279700D01*
X4571200Y2039500D02*
Y2014100D01*
X4622000D01*
Y2039500D01*
X4647400D01*
Y2090300D01*
X4622000D01*
Y2115700D01*
X4571200D01*
Y2090300D01*
X4545800D01*
Y2039500D01*
X4571200D01*
X5325700Y1659200D02*
Y1633800D01*
X5376500D01*
Y1659200D01*
X5401900D01*
Y1710000D01*
X5376500D01*
Y1735400D01*
X5325700D01*
Y1710000D01*
X5300300D01*
Y1659200D01*
X5325700D01*
X3551001Y441201D02*
Y415801D01*
X3601801D01*
Y441201D01*
X3627201D01*
Y492001D01*
X3601801D01*
Y517401D01*
X3551001D01*
Y492001D01*
X3525601D01*
Y441201D01*
X3551001D01*
X3094301Y2848701D02*
Y2823301D01*
X3145101D01*
Y2848701D01*
X3170501D01*
Y2899501D01*
X3145101D01*
Y2924901D01*
X3094301D01*
Y2899501D01*
X3068901D01*
Y2848701D01*
X3094301D01*
X2894200Y2855501D02*
Y2830101D01*
X2945000D01*
Y2855501D01*
X2970400D01*
Y2906301D01*
X2945000D01*
Y2931701D01*
X2894200D01*
Y2906301D01*
X2868800D01*
Y2855501D01*
X2894200D01*
X3424501Y442601D02*
Y417201D01*
X3475301D01*
Y442601D01*
X3500701D01*
Y493401D01*
X3475301D01*
Y518801D01*
X3424501D01*
Y493401D01*
X3399101D01*
Y442601D01*
X3424501D01*
X3108899Y1316951D02*
Y1291551D01*
X3159699D01*
Y1316951D01*
X3185099D01*
Y1367751D01*
X3159699D01*
Y1393151D01*
X3108899D01*
Y1367751D01*
X3083499D01*
Y1316951D01*
X3108899D01*
X3108899Y1417601D02*
Y1392201D01*
X3159699D01*
Y1417601D01*
X3185099D01*
Y1468401D01*
X3159699D01*
Y1493801D01*
X3108899D01*
Y1468401D01*
X3083499D01*
Y1417601D01*
X3108899D01*
X3193874Y1216273D02*
Y1190873D01*
X3244674D01*
Y1216273D01*
X3270074D01*
Y1267073D01*
X3244674D01*
Y1292473D01*
X3193874D01*
Y1267073D01*
X3168474D01*
Y1216273D01*
X3193874D01*
X3282773D02*
Y1190873D01*
X3333573D01*
Y1216273D01*
X3358973D01*
Y1267073D01*
X3333573D01*
Y1292473D01*
X3282773D01*
Y1267073D01*
X3257373D01*
Y1216273D01*
X3282773D01*
X3197474Y1417573D02*
Y1392173D01*
X3248274D01*
Y1417573D01*
X3273674D01*
Y1468373D01*
X3248274D01*
Y1493773D01*
X3197474D01*
Y1468373D01*
X3172074D01*
Y1417573D01*
X3197474D01*
X3286373D02*
Y1392173D01*
X3337173D01*
Y1417573D01*
X3362573D01*
Y1468373D01*
X3337173D01*
Y1493773D01*
X3286373D01*
Y1468373D01*
X3260973D01*
Y1417573D01*
X3286373D01*
X3197473Y1316923D02*
Y1291523D01*
X3248273D01*
Y1316923D01*
X3273673D01*
Y1367723D01*
X3248273D01*
Y1393123D01*
X3197473D01*
Y1367723D01*
X3172073D01*
Y1316923D01*
X3197473D01*
X3286373D02*
Y1291523D01*
X3337173D01*
Y1316923D01*
X3362573D01*
Y1367723D01*
X3337173D01*
Y1393123D01*
X3286373D01*
Y1367723D01*
X3260973D01*
Y1316923D01*
X3286373D01*
X4325275Y2027732D02*
Y2002332D01*
X4376075D01*
Y2027732D01*
X4401475D01*
Y2078532D01*
X4376075D01*
Y2103932D01*
X4325275D01*
Y2078532D01*
X4299875D01*
Y2027732D01*
X4325275D01*
X4414175D02*
Y2002332D01*
X4464975D01*
Y2027732D01*
X4490375D01*
Y2078532D01*
X4464975D01*
Y2103932D01*
X4414175D01*
Y2078532D01*
X4388775D01*
Y2027732D01*
X4414175D01*
X4325275Y2116632D02*
Y2091232D01*
X4376075D01*
Y2116632D01*
X4401475D01*
Y2167432D01*
X4376075D01*
Y2192832D01*
X4325275D01*
Y2167432D01*
X4299875D01*
Y2116632D01*
X4325275D01*
X4414175D02*
Y2091232D01*
X4464975D01*
Y2116632D01*
X4490375D01*
Y2167432D01*
X4464975D01*
Y2192832D01*
X4414175D01*
Y2167432D01*
X4388775D01*
Y2116632D01*
X4414175D01*
X5862501Y728601D02*
Y703201D01*
X5913301D01*
Y728601D01*
X5938701D01*
Y779401D01*
X5913301D01*
Y804801D01*
X5862501D01*
Y779401D01*
X5837101D01*
Y728601D01*
X5862501D01*
X7298601Y1639701D02*
Y1614301D01*
X7349401D01*
Y1639701D01*
X7374801D01*
Y1690501D01*
X7349401D01*
Y1715901D01*
X7298601D01*
Y1690501D01*
X7273201D01*
Y1639701D01*
X7298601D01*
X6699301Y1370301D02*
Y1344901D01*
X6750101D01*
Y1370301D01*
X6775501D01*
Y1421101D01*
X6750101D01*
Y1446501D01*
X6699301D01*
Y1421101D01*
X6673901D01*
Y1370301D01*
X6699301D01*
X4575279Y1180622D02*
Y1155222D01*
X4626079D01*
Y1180622D01*
X4651479D01*
Y1231422D01*
X4626079D01*
Y1256822D01*
X4575279D01*
Y1231422D01*
X4549879D01*
Y1180622D01*
X4575279D01*
X6839301Y1950001D02*
Y1924601D01*
X6890101D01*
Y1950001D01*
X6915501D01*
Y2000801D01*
X6890101D01*
Y2026201D01*
X6839301D01*
Y2000801D01*
X6813901D01*
Y1950001D01*
X6839301D01*
X5486301Y1570101D02*
Y1544701D01*
X5537101D01*
Y1570101D01*
X5562501D01*
Y1620901D01*
X5537101D01*
Y1646301D01*
X5486301D01*
Y1620901D01*
X5460901D01*
Y1570101D01*
X5486301D01*
X6976401Y2273601D02*
Y2248201D01*
X7027201D01*
Y2273601D01*
X7052601D01*
Y2324401D01*
X7027201D01*
Y2349801D01*
X6976401D01*
Y2324401D01*
X6951001D01*
Y2273601D01*
X6976401D01*
X6853501Y2857601D02*
Y2832201D01*
X6904301D01*
Y2857601D01*
X6929701D01*
Y2908401D01*
X6904301D01*
Y2933801D01*
X6853501D01*
Y2908401D01*
X6828101D01*
Y2857601D01*
X6853501D01*
X6189701Y2364001D02*
Y2338601D01*
X6240501D01*
Y2364001D01*
X6265901D01*
Y2414801D01*
X6240501D01*
Y2440201D01*
X6189701D01*
Y2414801D01*
X6164301D01*
Y2364001D01*
X6189701D01*
X5862124Y2148101D02*
Y2122701D01*
X5912924D01*
Y2148101D01*
X5938324D01*
Y2198901D01*
X5912924D01*
Y2224301D01*
X5862124D01*
Y2198901D01*
X5836724D01*
Y2148101D01*
X5862124D01*
X4198294Y1051567D02*
Y1026167D01*
X4249094D01*
Y1051567D01*
X4274494D01*
Y1102367D01*
X4249094D01*
Y1127767D01*
X4198294D01*
Y1102367D01*
X4172894D01*
Y1051567D01*
X4198294D01*
X4198295Y1140467D02*
Y1115067D01*
X4249095D01*
Y1140467D01*
X4274495D01*
Y1191267D01*
X4249095D01*
Y1216667D01*
X4198295D01*
Y1191267D01*
X4172895D01*
Y1140467D01*
X4198295D01*
X4199101Y1234001D02*
Y1208601D01*
X4249901D01*
Y1234001D01*
X4275301D01*
Y1284801D01*
X4249901D01*
Y1310201D01*
X4199101D01*
Y1284801D01*
X4173701D01*
Y1234001D01*
X4199101D01*
X4092930Y1236011D02*
Y1210611D01*
X4143730D01*
Y1236011D01*
X4169130D01*
Y1286811D01*
X4143730D01*
Y1312211D01*
X4092930D01*
Y1286811D01*
X4067530D01*
Y1236011D01*
X4092930D01*
X5003901Y1420101D02*
Y1394701D01*
X5054701D01*
Y1420101D01*
X5080101D01*
Y1470901D01*
X5054701D01*
Y1496301D01*
X5003901D01*
Y1470901D01*
X4978501D01*
Y1420101D01*
X5003901D01*
X5323174Y1006573D02*
Y981173D01*
X5373974D01*
Y1006573D01*
X5399374D01*
Y1057373D01*
X5373974D01*
Y1082773D01*
X5323174D01*
Y1057373D01*
X5297774D01*
Y1006573D01*
X5323174D01*
X5234274D02*
Y981173D01*
X5285074D01*
Y1006573D01*
X5310474D01*
Y1057373D01*
X5285074D01*
Y1082773D01*
X5234274D01*
Y1057373D01*
X5208874D01*
Y1006573D01*
X5234274D01*
X5323174Y1095473D02*
Y1070073D01*
X5373974D01*
Y1095473D01*
X5399374D01*
Y1146273D01*
X5373974D01*
Y1171673D01*
X5323174D01*
Y1146273D01*
X5297774D01*
Y1095473D01*
X5323174D01*
X5234274D02*
Y1070073D01*
X5285074D01*
Y1095473D01*
X5310474D01*
Y1146273D01*
X5285074D01*
Y1171673D01*
X5234274D01*
Y1146273D01*
X5208874D01*
Y1095473D01*
X5234274D01*
X5234474Y1942873D02*
Y1917473D01*
X5285274D01*
Y1942873D01*
X5310674D01*
Y1993673D01*
X5285274D01*
Y2019073D01*
X5234474D01*
Y1993673D01*
X5209074D01*
Y1942873D01*
X5234474D01*
X5323374D02*
Y1917473D01*
X5374174D01*
Y1942873D01*
X5399574D01*
Y1993673D01*
X5374174D01*
Y2019073D01*
X5323374D01*
Y1993673D01*
X5297974D01*
Y1942873D01*
X5323374D01*
X5234474Y1853973D02*
Y1828573D01*
X5285274D01*
Y1853973D01*
X5310674D01*
Y1904773D01*
X5285274D01*
Y1930173D01*
X5234474D01*
Y1904773D01*
X5209074D01*
Y1853973D01*
X5234474D01*
X5323374D02*
Y1828573D01*
X5374174D01*
Y1853973D01*
X5399574D01*
Y1904773D01*
X5374174D01*
Y1930173D01*
X5323374D01*
Y1904773D01*
X5297974D01*
Y1853973D01*
X5323374D01*
X6426301Y2029701D02*
Y2004301D01*
X6477101D01*
Y2029701D01*
X6502501D01*
Y2080501D01*
X6477101D01*
Y2105901D01*
X6426301D01*
Y2080501D01*
X6400901D01*
Y2029701D01*
X6426301D01*
X5871601Y1493301D02*
Y1467901D01*
X5922401D01*
Y1493301D01*
X5947801D01*
Y1544101D01*
X5922401D01*
Y1569501D01*
X5871601D01*
Y1544101D01*
X5846201D01*
Y1493301D01*
X5871601D01*
X6849400Y1849800D02*
Y1824400D01*
X6900200D01*
Y1849800D01*
X6925600D01*
Y1900600D01*
X6900200D01*
Y1926000D01*
X6849400D01*
Y1900600D01*
X6824000D01*
Y1849800D01*
X6849400D01*
X7311600Y2686000D02*
Y2660600D01*
X7362400D01*
Y2686000D01*
X7387800D01*
Y2736800D01*
X7362400D01*
Y2762200D01*
X7311600D01*
Y2736800D01*
X7286200D01*
Y2686000D01*
X7311600D01*
X6854300Y2934900D02*
Y2909500D01*
X6905100D01*
Y2934900D01*
X6930500D01*
Y2985700D01*
X6905100D01*
Y3011100D01*
X6854300D01*
Y2985700D01*
X6828900D01*
Y2934900D01*
X6854300D01*
X6618400Y2954400D02*
Y2929000D01*
X6669200D01*
Y2954400D01*
X6694600D01*
Y3005200D01*
X6669200D01*
Y3030600D01*
X6618400D01*
Y3005200D01*
X6593000D01*
Y2954400D01*
X6618400D01*
X5003901Y912101D02*
Y886701D01*
X5054701D01*
Y912101D01*
X5080101D01*
Y962901D01*
X5054701D01*
Y988301D01*
X5003901D01*
Y962901D01*
X4978501D01*
Y912101D01*
X5003901D01*
X5869301Y1625901D02*
Y1600501D01*
X5920101D01*
Y1625901D01*
X5945501D01*
Y1676701D01*
X5920101D01*
Y1702101D01*
X5869301D01*
Y1676701D01*
X5843901D01*
Y1625901D01*
X5869301D01*
X7315301Y810501D02*
Y785101D01*
X7366101D01*
Y810501D01*
X7391501D01*
Y861301D01*
X7366101D01*
Y886701D01*
X7315301D01*
Y861301D01*
X7289901D01*
Y810501D01*
X7315301D01*
X6985101Y835901D02*
Y810501D01*
X7035901D01*
Y835901D01*
X7061301D01*
Y886701D01*
X7035901D01*
Y912101D01*
X6985101D01*
Y886701D01*
X6959701D01*
Y835901D01*
X6985101D01*
X7074001D02*
Y810501D01*
X7124801D01*
Y835901D01*
X7150201D01*
Y886701D01*
X7124801D01*
Y912101D01*
X7074001D01*
Y886701D01*
X7048601D01*
Y835901D01*
X7074001D01*
X6993900Y1739800D02*
Y1714400D01*
X7044700D01*
Y1739800D01*
X7070100D01*
Y1790600D01*
X7044700D01*
Y1816000D01*
X6993900D01*
Y1790600D01*
X6968500D01*
Y1739800D01*
X6993900D01*
X7090100D02*
Y1714400D01*
X7140900D01*
Y1739800D01*
X7166300D01*
Y1790600D01*
X7140900D01*
Y1816000D01*
X7090100D01*
Y1790600D01*
X7064700D01*
Y1739800D01*
X7090100D01*
X7074001Y2626601D02*
Y2601201D01*
X7124801D01*
Y2626601D01*
X7150201D01*
Y2677401D01*
X7124801D01*
Y2702801D01*
X7074001D01*
Y2677401D01*
X7048601D01*
Y2626601D01*
X7074001D01*
X6985101D02*
Y2601201D01*
X7035901D01*
Y2626601D01*
X7061301D01*
Y2677401D01*
X7035901D01*
Y2702801D01*
X6985101D01*
Y2677401D01*
X6959701D01*
Y2626601D01*
X6985101D01*
X2618701Y692501D02*
Y667101D01*
X2669501D01*
Y692501D01*
X2694901D01*
Y743301D01*
X2669501D01*
Y768701D01*
X2618701D01*
Y743301D01*
X2593301D01*
Y692501D01*
X2618701D01*
X2479001D02*
Y667101D01*
X2529801D01*
Y692501D01*
X2555201D01*
Y743301D01*
X2529801D01*
Y768701D01*
X2479001D01*
Y743301D01*
X2453601D01*
Y692501D01*
X2479001D01*
Y489301D02*
Y463901D01*
X2529801D01*
Y489301D01*
X2555201D01*
Y540101D01*
X2529801D01*
Y565501D01*
X2479001D01*
Y540101D01*
X2453601D01*
Y489301D01*
X2479001D01*
Y590901D02*
Y565501D01*
X2529801D01*
Y590901D01*
X2555201D01*
Y641701D01*
X2529801D01*
Y667101D01*
X2479001D01*
Y641701D01*
X2453601D01*
Y590901D01*
X2479001D01*
X2618701Y489301D02*
Y463901D01*
X2669501D01*
Y489301D01*
X2694901D01*
Y540101D01*
X2669501D01*
Y565501D01*
X2618701D01*
Y540101D01*
X2593301D01*
Y489301D01*
X2618701D01*
Y590901D02*
Y565501D01*
X2669501D01*
Y590901D01*
X2694901D01*
Y641701D01*
X2669501D01*
Y667101D01*
X2618701D01*
Y641701D01*
X2593301D01*
Y590901D01*
X2618701D01*
X5850700Y363601D02*
Y338201D01*
X5901500D01*
Y363601D01*
X5926900D01*
Y414401D01*
X5901500D01*
Y439801D01*
X5850700D01*
Y414401D01*
X5825300D01*
Y363601D01*
X5850700D01*
X5854300Y594701D02*
Y569301D01*
X5905100D01*
Y594701D01*
X5930500D01*
Y645501D01*
X5905100D01*
Y670901D01*
X5854300D01*
Y645501D01*
X5828900D01*
Y594701D01*
X5854300D01*
X5865425Y2526001D02*
Y2500601D01*
X5916225D01*
Y2526001D01*
X5941625D01*
Y2576801D01*
X5916225D01*
Y2602201D01*
X5865425D01*
Y2576801D01*
X5840025D01*
Y2526001D01*
X5865425D01*
X406501Y487201D02*
Y461801D01*
X457301D01*
Y487201D01*
X482701D01*
Y538001D01*
X457301D01*
Y563401D01*
X406501D01*
Y538001D01*
X381101D01*
Y487201D01*
X406501D01*
X4920300Y1418701D02*
Y1393301D01*
X4971100D01*
Y1418701D01*
X4996500D01*
Y1469501D01*
X4971100D01*
Y1494901D01*
X4920300D01*
Y1469501D01*
X4894900D01*
Y1418701D01*
X4920300D01*
Y1519200D02*
Y1493800D01*
X4971100D01*
Y1519200D01*
X4996500D01*
Y1570000D01*
X4971100D01*
Y1595400D01*
X4920300D01*
Y1570000D01*
X4894900D01*
Y1519200D01*
X4920300D01*
X2946501Y1788401D02*
Y1763001D01*
X2997301D01*
Y1788401D01*
X3022701D01*
Y1839201D01*
X2997301D01*
Y1864601D01*
X2946501D01*
Y1839201D01*
X2921101D01*
Y1788401D01*
X2946501D01*
Y1970434D02*
Y1945034D01*
X2997301D01*
Y1970434D01*
X3022701D01*
Y2021234D01*
X2997301D01*
Y2046634D01*
X2946501D01*
Y2021234D01*
X2921101D01*
Y1970434D01*
X2946501D01*
Y2152467D02*
Y2127067D01*
X2997301D01*
Y2152467D01*
X3022701D01*
Y2203267D01*
X2997301D01*
Y2228667D01*
X2946501D01*
Y2203267D01*
X2921101D01*
Y2152467D01*
X2946501D01*
Y1606368D02*
Y1580968D01*
X2997301D01*
Y1606368D01*
X3022701D01*
Y1657168D01*
X2997301D01*
Y1682568D01*
X2946501D01*
Y1657168D01*
X2921101D01*
Y1606368D01*
X2946501D01*
X2730601D02*
Y1580968D01*
X2781401D01*
Y1606368D01*
X2806801D01*
Y1657168D01*
X2781401D01*
Y1682568D01*
X2730601D01*
Y1657168D01*
X2705201D01*
Y1606368D01*
X2730601D01*
Y2152467D02*
Y2127067D01*
X2781401D01*
Y2152467D01*
X2806801D01*
Y2203267D01*
X2781401D01*
Y2228667D01*
X2730601D01*
Y2203267D01*
X2705201D01*
Y2152467D01*
X2730601D01*
Y1970434D02*
Y1945034D01*
X2781401D01*
Y1970434D01*
X2806801D01*
Y2021234D01*
X2781401D01*
Y2046634D01*
X2730601D01*
Y2021234D01*
X2705201D01*
Y1970434D01*
X2730601D01*
Y1788401D02*
Y1763001D01*
X2781401D01*
Y1788401D01*
X2806801D01*
Y1839201D01*
X2781401D01*
Y1864601D01*
X2730601D01*
Y1839201D01*
X2705201D01*
Y1788401D01*
X2730601D01*
X7052000Y1159000D02*
Y1133600D01*
X7102800D01*
Y1159000D01*
X7128200D01*
Y1209800D01*
X7102800D01*
Y1235200D01*
X7052000D01*
Y1209800D01*
X7026600D01*
Y1159000D01*
X7052000D01*
X6677700Y1247100D02*
Y1221700D01*
X6728500D01*
Y1247100D01*
X6753900D01*
Y1297900D01*
X6728500D01*
Y1323300D01*
X6677700D01*
Y1297900D01*
X6652300D01*
Y1247100D01*
X6677700D01*
X1134500Y1507700D02*
Y1482300D01*
X1185300D01*
Y1507700D01*
X1210700D01*
Y1558500D01*
X1185300D01*
Y1583900D01*
X1134500D01*
Y1558500D01*
X1109100D01*
Y1507700D01*
X1134500D01*
X1266719D02*
Y1482300D01*
X1317519D01*
Y1507700D01*
X1342919D01*
Y1558500D01*
X1317519D01*
Y1583900D01*
X1266719D01*
Y1558500D01*
X1241319D01*
Y1507700D01*
X1266719D01*
X1541401Y1943201D02*
Y1917801D01*
X1592201D01*
Y1943201D01*
X1617601D01*
Y1994001D01*
X1592201D01*
Y2019401D01*
X1541401D01*
Y1994001D01*
X1516001D01*
Y1943201D01*
X1541401D01*
X1414401D02*
Y1917801D01*
X1465201D01*
Y1943201D01*
X1490601D01*
Y1994001D01*
X1465201D01*
Y2019401D01*
X1414401D01*
Y1994001D01*
X1389001D01*
Y1943201D01*
X1414401D01*
X292201Y487201D02*
Y461801D01*
X343001D01*
Y487201D01*
X368401D01*
Y538001D01*
X343001D01*
Y563401D01*
X292201D01*
Y538001D01*
X266801D01*
Y487201D01*
X292201D01*
X7067901Y268001D02*
Y242601D01*
X7118701D01*
Y268001D01*
X7144101D01*
Y318801D01*
X7118701D01*
Y344201D01*
X7067901D01*
Y318801D01*
X7042501D01*
Y268001D01*
X7067901D01*
X6834600Y276500D02*
Y251100D01*
X6885400D01*
Y276500D01*
X6910800D01*
Y327300D01*
X6885400D01*
Y352700D01*
X6834600D01*
Y327300D01*
X6809200D01*
Y276500D01*
X6834600D01*
X7071001Y2071401D02*
Y2046001D01*
X7121801D01*
Y2071401D01*
X7147201D01*
Y2122201D01*
X7121801D01*
Y2147601D01*
X7071001D01*
Y2122201D01*
X7045601D01*
Y2071401D01*
X7071001D01*
X6674900Y2145800D02*
Y2120400D01*
X6725700D01*
Y2145800D01*
X6751100D01*
Y2196600D01*
X6725700D01*
Y2222000D01*
X6674900D01*
Y2196600D01*
X6649500D01*
Y2145800D01*
X6674900D01*
X5219200Y697000D02*
Y671600D01*
X5270000D01*
Y697000D01*
X5295400D01*
Y747800D01*
X5270000D01*
Y773200D01*
X5219200D01*
Y747800D01*
X5193800D01*
Y697000D01*
X5219200D01*
X5392800Y694800D02*
Y669400D01*
X5443600D01*
Y694800D01*
X5469000D01*
Y745600D01*
X5443600D01*
Y771000D01*
X5392800D01*
Y745600D01*
X5367400D01*
Y694800D01*
X5392800D01*
X3484700Y1609100D02*
Y1583700D01*
X3535500D01*
Y1609100D01*
X3560900D01*
Y1659900D01*
X3535500D01*
Y1685300D01*
X3484700D01*
Y1659900D01*
X3459300D01*
Y1609100D01*
X3484700D01*
X3486200Y1375800D02*
Y1350400D01*
X3537000D01*
Y1375800D01*
X3562400D01*
Y1426600D01*
X3537000D01*
Y1452000D01*
X3486200D01*
Y1426600D01*
X3460800D01*
Y1375800D01*
X3486200D01*
X5003901Y1521701D02*
Y1496301D01*
X5054701D01*
Y1521701D01*
X5080101D01*
Y1572501D01*
X5054701D01*
Y1597901D01*
X5003901D01*
Y1572501D01*
X4978501D01*
Y1521701D01*
X5003901D01*
X7315277Y2592201D02*
Y2566801D01*
X7366077D01*
Y2592201D01*
X7391477D01*
Y2643001D01*
X7366077D01*
Y2668401D01*
X7315277D01*
Y2643001D01*
X7289877D01*
Y2592201D01*
X7315277D01*
X6667601Y480301D02*
Y454901D01*
X6718401D01*
Y480301D01*
X6743801D01*
Y531101D01*
X6718401D01*
Y556501D01*
X6667601D01*
Y531101D01*
X6642201D01*
Y480301D01*
X6667601D01*
D85*
X5524601Y2779001D02*
G03*
X5524601Y2779001I-50800J0D01*
G01*
X5270601D02*
G03*
X5270601Y2779001I-50800J0D01*
G01*
X5016601D02*
G03*
X5016601Y2779001I-50800J0D01*
G01*
X4762601D02*
G03*
X4762601Y2779001I-50800J0D01*
G01*
%TF.MD5,112a6d3161037b53de3761acaab35ee1*%
M02*
