%TF.GenerationSoftware,Altium Limited,Altium Designer,22.5.1 (42)*%
G04 Layer_Color=16711935*
%FSLAX45Y45*%
%MOMM*%
%TF.SameCoordinates,F63A7803-94E7-494B-9888-F8709FA5C5B4*%
%TF.FilePolarity,Positive*%
%TF.FileFunction,Other,Mechanical_13*%
%TF.Part,Single*%
G01*
G75*
%TA.AperFunction,NonConductor*%
%ADD39C,0.20000*%
%ADD50C,0.12700*%
D39*
X4203000Y1791301D02*
G03*
X4203000Y1791301I-15000J0D01*
G01*
X6182301Y1707701D02*
G03*
X6182301Y1707701I-10000J0D01*
G01*
Y2609401D02*
G03*
X6182301Y2609401I-10000J0D01*
G01*
X6879300Y1827701D02*
G03*
X6879300Y1827701I-10000J0D01*
G01*
X6904700Y2729401D02*
G03*
X6904700Y2729401I-10000J0D01*
G01*
X6182301Y818701D02*
G03*
X6182301Y818701I-10000J0D01*
G01*
X6905501Y925601D02*
G03*
X6905501Y925601I-10000J0D01*
G01*
X3289301Y2890401D02*
X3539301Y2890401D01*
X3289301Y2590401D02*
Y2890401D01*
Y2590401D02*
X3539301Y2590400D01*
Y2890401D01*
X3638601Y2592001D02*
X3888601Y2592000D01*
X3888601Y2892001D02*
X3888601Y2592000D01*
X3638601Y2892001D02*
X3888601D01*
X3638601Y2592001D02*
Y2892001D01*
D50*
X4428001Y1136301D02*
Y1856301D01*
Y1136301D02*
X5148001D01*
Y1856301D01*
X4428001D02*
X5148001D01*
X3954000Y1105801D02*
Y1205801D01*
X4134001Y1105801D02*
Y1205801D01*
X3954000Y1105801D02*
X4134001Y1105801D01*
X3954000Y1205801D02*
X4134001Y1205801D01*
X5461001Y1751101D02*
X5641000Y1751101D01*
X5461001Y1851101D02*
X5641000D01*
X5461001Y1751101D02*
Y1851101D01*
X5641000Y1751101D02*
Y1851101D01*
X6816801Y1208201D02*
Y1708201D01*
X6416800Y1208201D02*
Y1708201D01*
Y1208201D02*
X6816801D01*
X6416800Y1708201D02*
X6816801D01*
Y2109901D02*
Y2609901D01*
X6416800Y2109901D02*
Y2609901D01*
Y2109901D02*
X6816801D01*
X6416800Y2609901D02*
X6816801D01*
X6501801Y1802701D02*
Y2002701D01*
X6731801Y1802701D02*
Y2002701D01*
X6501801D02*
X6731801D01*
X6501801Y1802701D02*
X6731801D01*
X6527201Y2704401D02*
X6757201D01*
X6527201Y2904401D02*
X6757201D01*
Y2704401D02*
Y2904401D01*
X6527201Y2704401D02*
Y2904401D01*
X4254901Y2419201D02*
X4354901D01*
X4254901Y2239200D02*
X4354901D01*
X4254901D02*
Y2419201D01*
X4354901Y2239200D02*
Y2419201D01*
X5367300Y795701D02*
X5467300D01*
X5367300Y975701D02*
X5467300D01*
Y795701D02*
Y975701D01*
X5367300Y795701D02*
Y975701D01*
X6816801Y319201D02*
Y819201D01*
X6416800Y319201D02*
Y819201D01*
Y319201D02*
X6816801D01*
X6416800Y819201D02*
X6816801D01*
X6528001Y900601D02*
Y1100601D01*
X6758001Y900601D02*
Y1100601D01*
X6528001D02*
X6758001D01*
X6528001Y900601D02*
X6758001D01*
%TF.MD5,faec6e3d6c22c3e3076dcd90c641c2d8*%
M02*
