%TF.GenerationSoftware,Altium Limited,Altium Designer,22.5.1 (42)*%
G04 Layer_Color=128*
%FSLAX45Y45*%
%MOMM*%
%TF.SameCoordinates,F63A7803-94E7-494B-9888-F8709FA5C5B4*%
%TF.FilePolarity,Positive*%
%TF.FileFunction,Drillmap*%
%TF.Part,Single*%
G01*
G75*
%TA.AperFunction,NonConductor*%
%ADD50C,0.12700*%
D50*
X5418799Y2779001D02*
X5528802D01*
X5473801Y2724000D02*
Y2834002D01*
X5164799Y2779001D02*
X5274802D01*
X5219801Y2724000D02*
Y2834002D01*
X4910799Y2779001D02*
X5020802D01*
X4965801Y2724000D02*
Y2834002D01*
X4656799Y2779001D02*
X4766802D01*
X4711801Y2724000D02*
Y2834002D01*
X428101Y1293101D02*
X588100D01*
X508101Y1213101D02*
Y1373101D01*
X428101Y1801101D02*
X588100D01*
X508101Y1721101D02*
Y1881101D01*
X2768401Y270201D02*
X2868400D01*
X2818401Y220201D02*
Y320201D01*
X2768401Y524201D02*
X2868400D01*
X2818401Y474201D02*
Y574201D01*
X1092240Y2926400D02*
X1192240D01*
X1142240Y2876400D02*
Y2976400D01*
X1092241Y2672400D02*
X1192240D01*
X1142241Y2622400D02*
Y2722400D01*
X419940Y2938401D02*
X519940D01*
X469940Y2888401D02*
Y2988400D01*
X419941Y2684400D02*
X519941D01*
X469941Y2634400D02*
Y2734400D01*
X7951499Y315201D02*
X8101502D01*
X8026501Y240199D02*
Y390202D01*
X7951499Y823201D02*
X8101502D01*
X8026501Y748200D02*
Y898202D01*
X7951499Y1331201D02*
X8101502D01*
X8026501Y1256200D02*
Y1406202D01*
X7951499Y1839201D02*
X8101502D01*
X8026501Y1764200D02*
Y1914202D01*
X7951499Y2347201D02*
X8101502D01*
X8026501Y2272200D02*
Y2422202D01*
X7951499Y2855201D02*
X8101502D01*
X8026501Y2780200D02*
Y2930202D01*
X6213050Y1511950D02*
X6243050D01*
X6228050Y1496950D02*
Y1526950D01*
X4137700Y1661900D02*
X4167700D01*
X4152700Y1646900D02*
Y1676900D01*
X3906900Y1340800D02*
X3936900D01*
X3921900Y1325800D02*
Y1355800D01*
X3808000Y1547400D02*
X3838000D01*
X3823000Y1532400D02*
Y1562400D01*
X4510700Y1425100D02*
X4540700D01*
X4525700Y1410100D02*
Y1440100D01*
X4494950Y1286550D02*
X4524950D01*
X4509950Y1271550D02*
Y1301550D01*
X4638767Y1329112D02*
X4668767D01*
X4653767Y1314112D02*
Y1344112D01*
X4730700Y1331600D02*
X4760700D01*
X4745700Y1316600D02*
Y1346600D01*
X5694600Y820700D02*
X5724600D01*
X5709600Y805700D02*
Y835700D01*
X6610900Y1093700D02*
X6640900D01*
X6625900Y1078700D02*
Y1108700D01*
X6602100Y952500D02*
X6632100D01*
X6617100Y937500D02*
Y967500D01*
X5838500Y1367600D02*
X5868500D01*
X5853500Y1352600D02*
Y1382600D01*
X6627400Y2045900D02*
X6657400D01*
X6642400Y2030900D02*
Y2060900D01*
X6322800Y2881800D02*
X6352800D01*
X6337800Y2866800D02*
Y2896800D01*
X6387301Y2772501D02*
X6417301D01*
X6402301Y2757501D02*
Y2787501D01*
X6635600Y2900200D02*
X6665600D01*
X6650600Y2885200D02*
Y2915200D01*
X6872100Y2770700D02*
X6902100D01*
X6887100Y2755700D02*
Y2785700D01*
X5689800Y1812200D02*
X5719800D01*
X5704800Y1797200D02*
Y1827200D01*
X6184200Y921700D02*
X6214200D01*
X6199200Y906700D02*
Y936700D01*
X6005300Y923800D02*
X6035300D01*
X6020300Y908800D02*
Y938800D01*
X6913700Y959400D02*
X6943700D01*
X6928700Y944400D02*
Y974400D01*
X7206600Y950500D02*
X7236600D01*
X7221600Y935500D02*
Y965500D01*
X7298700Y946600D02*
X7328700D01*
X7313700Y931600D02*
Y961600D01*
X7393700Y1030600D02*
X7423700D01*
X7408700Y1015600D02*
Y1045600D01*
X7295875Y1084900D02*
X7325875D01*
X7310875Y1069900D02*
Y1099900D01*
X6347801Y1877301D02*
X6377801D01*
X6362801Y1862301D02*
Y1892301D01*
X5698200Y1924200D02*
X5728200D01*
X5713200Y1909200D02*
Y1939200D01*
X3579301Y1083301D02*
X3609301D01*
X3594301Y1068301D02*
Y1098301D01*
X3693601Y1083301D02*
X3723601D01*
X3708601Y1068301D02*
Y1098301D01*
X3693600Y980400D02*
X3723600D01*
X3708600Y965400D02*
Y995400D01*
X3575201Y983101D02*
X3605201D01*
X3590201Y968101D02*
Y998101D01*
X1156101Y1404701D02*
X1186100D01*
X1171101Y1389701D02*
Y1419701D01*
X1270401Y1404701D02*
X1300400D01*
X1285401Y1389701D02*
Y1419701D01*
X1270400Y1301800D02*
X1300400D01*
X1285400Y1286800D02*
Y1316800D01*
X1152000Y1304501D02*
X1182000D01*
X1167000Y1289501D02*
Y1319501D01*
X313101Y974801D02*
X343101D01*
X328101Y959801D02*
Y989801D01*
X427401Y974801D02*
X457401D01*
X442401Y959801D02*
Y989801D01*
X427400Y871900D02*
X457400D01*
X442400Y856900D02*
Y886900D01*
X309001Y874601D02*
X339001D01*
X324001Y859601D02*
Y889601D01*
X298501Y412401D02*
X328500D01*
X313501Y397401D02*
Y427401D01*
X416900Y409700D02*
X446900D01*
X431900Y394700D02*
Y424700D01*
X1428801Y2064801D02*
X1458800D01*
X1443801Y2049801D02*
Y2079801D01*
X1555801Y2064801D02*
X1585800D01*
X1570801Y2049801D02*
Y2079801D01*
X1758975Y2055932D02*
X1788975D01*
X1773975Y2040932D02*
Y2070932D01*
X1670075Y2055932D02*
X1700075D01*
X1685075Y2040932D02*
Y2070932D01*
X1758975Y1967032D02*
X1788975D01*
X1773975Y1952032D02*
Y1982032D01*
X1670075Y1967032D02*
X1700075D01*
X1685075Y1952032D02*
Y1982032D01*
X1910775Y2929932D02*
X1940775D01*
X1925775Y2914932D02*
Y2944932D01*
X1821875Y2929932D02*
X1851875D01*
X1836875Y2914932D02*
Y2944932D01*
X1910775Y2841032D02*
X1940775D01*
X1925775Y2826032D02*
Y2856032D01*
X1821875Y2841032D02*
X1851875D01*
X1836875Y2826032D02*
Y2856032D01*
X7307775Y2962532D02*
X7337775D01*
X7322775Y2947532D02*
Y2977532D01*
X7218875Y2962532D02*
X7248875D01*
X7233875Y2947532D02*
Y2977532D01*
X7307775Y2873632D02*
X7337775D01*
X7322775Y2858632D02*
Y2888632D01*
X7218875Y2873632D02*
X7248875D01*
X7233875Y2858632D02*
Y2888632D01*
X7308475Y2011832D02*
X7338475D01*
X7323475Y1996832D02*
Y2026832D01*
X7219575Y2011832D02*
X7249575D01*
X7234575Y1996832D02*
Y2026832D01*
X7308475Y1922932D02*
X7338475D01*
X7323475Y1907932D02*
Y1937932D01*
X7219575Y1922932D02*
X7249575D01*
X7234575Y1907932D02*
Y1937932D01*
X7204200Y1088700D02*
X7234200D01*
X7219200Y1073700D02*
Y1103700D01*
X7014575Y175832D02*
X7044575D01*
X7029575Y160832D02*
Y190832D01*
X6925675Y175832D02*
X6955675D01*
X6940675Y160832D02*
Y190832D01*
X7014575Y86932D02*
X7044575D01*
X7029575Y71932D02*
Y101932D01*
X6925675Y86932D02*
X6955675D01*
X6940675Y71932D02*
Y101932D01*
X5492375Y2372032D02*
X5522375D01*
X5507375Y2357032D02*
Y2387032D01*
X5403475Y2372032D02*
X5433475D01*
X5418475Y2357032D02*
Y2387032D01*
X5492375Y2283132D02*
X5522375D01*
X5507375Y2268132D02*
Y2298132D01*
X5403475Y2283132D02*
X5433475D01*
X5418475Y2268132D02*
Y2298132D01*
X4819875Y1537232D02*
X4849875D01*
X4834875Y1522232D02*
Y1552232D01*
X4730975Y1537232D02*
X4760975D01*
X4745975Y1522232D02*
Y1552232D01*
X4819875Y1448332D02*
X4849875D01*
X4834875Y1433332D02*
Y1463332D01*
X4730975Y1448332D02*
X4760975D01*
X4745975Y1433332D02*
Y1463332D01*
X4515700Y1535400D02*
X4545700D01*
X4530700Y1520400D02*
Y1550400D01*
X2823400Y1426200D02*
X2853400D01*
X2838400Y1411200D02*
Y1441200D01*
X2921700Y1125000D02*
X2951700D01*
X2936700Y1110000D02*
Y1140000D01*
X3541800Y1519300D02*
X3571800D01*
X3556800Y1504300D02*
Y1534300D01*
X5871100Y2389700D02*
X5901100D01*
X5886100Y2374700D02*
Y2404700D01*
X3065200Y842200D02*
X3095200D01*
X3080200Y827200D02*
Y857200D01*
X4810700Y2219000D02*
X4840700D01*
X4825700Y2204000D02*
Y2234000D01*
X5683700Y2021700D02*
X5713700D01*
X5698700Y2006700D02*
Y2036700D01*
X3862800Y2485600D02*
X3892800D01*
X3877800Y2470600D02*
Y2500600D01*
X3395700Y2837400D02*
X3425700D01*
X3410700Y2822400D02*
Y2852400D01*
X3987400Y2561800D02*
X4017400D01*
X4002400Y2546800D02*
Y2576800D01*
X4461700Y2482000D02*
X4491700D01*
X4476700Y2467000D02*
Y2497000D01*
X4290100Y2491600D02*
X4320100D01*
X4305100Y2476600D02*
Y2506600D01*
X4581600Y2064900D02*
X4611600D01*
X4596600Y2049900D02*
Y2079900D01*
X5336100Y1684600D02*
X5366100D01*
X5351100Y1669600D02*
Y1699600D01*
X3561401Y466601D02*
X3591401D01*
X3576401Y451601D02*
Y481601D01*
X3104701Y2874101D02*
X3134701D01*
X3119701Y2859101D02*
Y2889101D01*
X2904600Y2880901D02*
X2934600D01*
X2919600Y2865901D02*
Y2895901D01*
X3434901Y468001D02*
X3464901D01*
X3449901Y453001D02*
Y483001D01*
X3119299Y1342351D02*
X3149299D01*
X3134299Y1327351D02*
Y1357351D01*
X3119299Y1443001D02*
X3149299D01*
X3134299Y1428001D02*
Y1458001D01*
X3204274Y1241673D02*
X3234274D01*
X3219274Y1226673D02*
Y1256673D01*
X3293173Y1241673D02*
X3323173D01*
X3308173Y1226673D02*
Y1256673D01*
X3207874Y1442973D02*
X3237874D01*
X3222874Y1427973D02*
Y1457973D01*
X3296773Y1442973D02*
X3326773D01*
X3311773Y1427973D02*
Y1457973D01*
X3207873Y1342323D02*
X3237873D01*
X3222873Y1327323D02*
Y1357323D01*
X3296773Y1342323D02*
X3326773D01*
X3311773Y1327323D02*
Y1357323D01*
X4335675Y2053132D02*
X4365675D01*
X4350675Y2038132D02*
Y2068132D01*
X4424575Y2053132D02*
X4454575D01*
X4439575Y2038132D02*
Y2068132D01*
X4335675Y2142032D02*
X4365675D01*
X4350675Y2127032D02*
Y2157032D01*
X4424575Y2142032D02*
X4454575D01*
X4439575Y2127032D02*
Y2157032D01*
X5872901Y754001D02*
X5902901D01*
X5887901Y739001D02*
Y769001D01*
X7309001Y1665101D02*
X7339001D01*
X7324001Y1650101D02*
Y1680101D01*
X6709701Y1395701D02*
X6739701D01*
X6724701Y1380701D02*
Y1410701D01*
X4585679Y1206022D02*
X4615679D01*
X4600679Y1191022D02*
Y1221022D01*
X6849701Y1975401D02*
X6879700D01*
X6864701Y1960401D02*
Y1990401D01*
X5496701Y1595501D02*
X5526701D01*
X5511701Y1580501D02*
Y1610501D01*
X6986801Y2299001D02*
X7016801D01*
X7001801Y2284001D02*
Y2314001D01*
X6863901Y2883001D02*
X6893901D01*
X6878901Y2868001D02*
Y2898001D01*
X6200101Y2389401D02*
X6230101D01*
X6215101Y2374401D02*
Y2404401D01*
X5872524Y2173501D02*
X5902524D01*
X5887524Y2158501D02*
Y2188501D01*
X4208694Y1076967D02*
X4238694D01*
X4223694Y1061967D02*
Y1091967D01*
X4208695Y1165867D02*
X4238695D01*
X4223695Y1150867D02*
Y1180867D01*
X4209501Y1259401D02*
X4239501D01*
X4224501Y1244401D02*
Y1274401D01*
X4103330Y1261411D02*
X4133330D01*
X4118330Y1246411D02*
Y1276411D01*
X5014301Y1445501D02*
X5044301D01*
X5029301Y1430501D02*
Y1460501D01*
X5333574Y1031973D02*
X5363573D01*
X5348574Y1016973D02*
Y1046973D01*
X5244674Y1031973D02*
X5274673D01*
X5259674Y1016973D02*
Y1046973D01*
X5333574Y1120873D02*
X5363573D01*
X5348574Y1105873D02*
Y1135873D01*
X5244674Y1120873D02*
X5274674D01*
X5259674Y1105873D02*
Y1135873D01*
X5244874Y1968273D02*
X5274874D01*
X5259874Y1953273D02*
Y1983273D01*
X5333774Y1968273D02*
X5363774D01*
X5348774Y1953273D02*
Y1983273D01*
X5244874Y1879373D02*
X5274874D01*
X5259874Y1864373D02*
Y1894373D01*
X5333774Y1879373D02*
X5363774D01*
X5348774Y1864373D02*
Y1894373D01*
X6436701Y2055101D02*
X6466701D01*
X6451701Y2040101D02*
Y2070101D01*
X5882001Y1518701D02*
X5912001D01*
X5897001Y1503701D02*
Y1533701D01*
X6859800Y1875200D02*
X6889800D01*
X6874800Y1860200D02*
Y1890200D01*
X7322000Y2711400D02*
X7352000D01*
X7337000Y2696400D02*
Y2726400D01*
X6864700Y2960300D02*
X6894700D01*
X6879700Y2945300D02*
Y2975300D01*
X6628800Y2979800D02*
X6658800D01*
X6643800Y2964800D02*
Y2994800D01*
X5014301Y937501D02*
X5044301D01*
X5029301Y922501D02*
Y952501D01*
X5879701Y1651301D02*
X5909701D01*
X5894701Y1636301D02*
Y1666301D01*
X7325701Y835901D02*
X7355701D01*
X7340701Y820901D02*
Y850901D01*
X6995501Y861301D02*
X7025501D01*
X7010501Y846301D02*
Y876301D01*
X7084401Y861301D02*
X7114401D01*
X7099401Y846301D02*
Y876301D01*
X7004300Y1765200D02*
X7034300D01*
X7019300Y1750200D02*
Y1780200D01*
X7100500Y1765200D02*
X7130500D01*
X7115500Y1750200D02*
Y1780200D01*
X7084401Y2652001D02*
X7114401D01*
X7099401Y2637001D02*
Y2667001D01*
X6995501Y2652001D02*
X7025501D01*
X7010501Y2637001D02*
Y2667001D01*
X2629101Y717901D02*
X2659101D01*
X2644101Y702901D02*
Y732901D01*
X2489401Y717901D02*
X2519401D01*
X2504401Y702901D02*
Y732901D01*
X2489401Y514701D02*
X2519401D01*
X2504401Y499701D02*
Y529701D01*
X2489401Y616301D02*
X2519401D01*
X2504401Y601301D02*
Y631301D01*
X2629101Y514701D02*
X2659101D01*
X2644101Y499701D02*
Y529701D01*
X2629101Y616301D02*
X2659101D01*
X2644101Y601301D02*
Y631301D01*
X5861100Y389001D02*
X5891100D01*
X5876100Y374001D02*
Y404001D01*
X5864700Y620101D02*
X5894700D01*
X5879700Y605101D02*
Y635101D01*
X5875825Y2551401D02*
X5905825D01*
X5890825Y2536401D02*
Y2566401D01*
X416901Y512601D02*
X446901D01*
X431901Y497601D02*
Y527601D01*
X4930700Y1444101D02*
X4960700D01*
X4945700Y1429101D02*
Y1459101D01*
X4930700Y1544600D02*
X4960700D01*
X4945700Y1529600D02*
Y1559600D01*
X2956901Y1813801D02*
X2986901D01*
X2971901Y1798801D02*
Y1828801D01*
X2956901Y1995834D02*
X2986901D01*
X2971901Y1980834D02*
Y2010834D01*
X2956901Y2177867D02*
X2986901D01*
X2971901Y2162867D02*
Y2192867D01*
X2956901Y1631768D02*
X2986901D01*
X2971901Y1616768D02*
Y1646768D01*
X2741001Y1631768D02*
X2771001D01*
X2756001Y1616768D02*
Y1646768D01*
X2741001Y2177867D02*
X2771001D01*
X2756001Y2162867D02*
Y2192867D01*
X2741001Y1995834D02*
X2771001D01*
X2756001Y1980834D02*
Y2010834D01*
X2741001Y1813801D02*
X2771001D01*
X2756001Y1798801D02*
Y1828801D01*
X7062400Y1184400D02*
X7092400D01*
X7077400Y1169400D02*
Y1199400D01*
X6688100Y1272500D02*
X6718100D01*
X6703100Y1257500D02*
Y1287500D01*
X1144900Y1533100D02*
X1174900D01*
X1159900Y1518100D02*
Y1548100D01*
X1277119Y1533100D02*
X1307119D01*
X1292119Y1518100D02*
Y1548100D01*
X1551801Y1968601D02*
X1581800D01*
X1566801Y1953601D02*
Y1983601D01*
X1424801Y1968601D02*
X1454800D01*
X1439801Y1953601D02*
Y1983601D01*
X302601Y512601D02*
X332601D01*
X317601Y497601D02*
Y527601D01*
X7078301Y293401D02*
X7108300D01*
X7093301Y278401D02*
Y308401D01*
X6845000Y301900D02*
X6875000D01*
X6860000Y286900D02*
Y316900D01*
X7081401Y2096801D02*
X7111401D01*
X7096401Y2081801D02*
Y2111801D01*
X6685300Y2171200D02*
X6715300D01*
X6700300Y2156200D02*
Y2186200D01*
X5229600Y722400D02*
X5259600D01*
X5244600Y707400D02*
Y737400D01*
X5403200Y720200D02*
X5433200D01*
X5418200Y705200D02*
Y735200D01*
X3495100Y1634500D02*
X3525100D01*
X3510100Y1619500D02*
Y1649500D01*
X3496600Y1401200D02*
X3526600D01*
X3511600Y1386200D02*
Y1416200D01*
X5014301Y1547101D02*
X5044301D01*
X5029301Y1532101D02*
Y1562101D01*
X7325678Y2617601D02*
X7355677D01*
X7340677Y2602601D02*
Y2632601D01*
X6678001Y505701D02*
X6708001D01*
X6693001Y490701D02*
Y520701D01*
%TF.MD5,e2a34dd9733906c7ea01713bb2529516*%
M02*
