%TF.GenerationSoftware,Altium Limited,Altium Designer,22.5.1 (42)*%
G04 Layer_Physical_Order=3*
G04 Layer_Color=16440176*
%FSLAX45Y45*%
%MOMM*%
%TF.SameCoordinates,F63A7803-94E7-494B-9888-F8709FA5C5B4*%
%TF.FilePolarity,Positive*%
%TF.FileFunction,Copper,L3,Inr,Signal*%
%TF.Part,Single*%
G01*
G75*
%TA.AperFunction,ComponentPad*%
%ADD33R,1.70000X1.70000*%
%ADD34C,1.70000*%
%ADD35C,2.40000*%
%ADD36C,1.60000*%
%ADD37C,2.30000*%
%TA.AperFunction,ViaPad*%
%ADD38C,0.60000*%
G36*
X8560000Y0D02*
X6780000D01*
Y50000D01*
X6080000D01*
Y0D01*
X5980000D01*
Y180000D01*
X5730000D01*
Y0D01*
X5630000D01*
Y180000D01*
X4580000D01*
Y0D01*
X4480000D01*
Y180000D01*
X4230000D01*
Y0D01*
X2480000D01*
Y50000D01*
X1780000D01*
Y0D01*
X0D01*
Y3160000D01*
X1780000D01*
Y3109999D01*
X2480000D01*
Y3160000D01*
X4230000D01*
Y2980000D01*
X4480000D01*
Y3160000D01*
X4580000D01*
Y2980000D01*
X5630000D01*
Y3160000D01*
X5730000D01*
Y2980000D01*
X5980000D01*
Y3160000D01*
X6080000D01*
Y3109999D01*
X6780000D01*
Y3160000D01*
X8560000D01*
Y0D01*
D02*
G37*
%LPC*%
G36*
X6661620Y2955600D02*
X6639580D01*
X6619219Y2947166D01*
X6603634Y2931581D01*
X6595200Y2911220D01*
Y2889180D01*
X6603634Y2868818D01*
X6619219Y2853234D01*
X6639580Y2844800D01*
X6661620D01*
X6681982Y2853234D01*
X6697566Y2868818D01*
X6706000Y2889180D01*
Y2911220D01*
X6697566Y2931581D01*
X6681982Y2947166D01*
X6661620Y2955600D01*
D02*
G37*
G36*
X6889920Y2938401D02*
X6867881D01*
X6847519Y2929967D01*
X6831935Y2914382D01*
X6823501Y2894021D01*
Y2871981D01*
X6831935Y2851619D01*
X6847519Y2836035D01*
X6867881Y2827601D01*
X6889920D01*
X6910282Y2836035D01*
X6925867Y2851619D01*
X6934301Y2871981D01*
Y2894021D01*
X6925867Y2914382D01*
X6910282Y2929967D01*
X6889920Y2938401D01*
D02*
G37*
G36*
X6348820Y2937200D02*
X6326780D01*
X6306418Y2928766D01*
X6290834Y2913181D01*
X6282400Y2892820D01*
Y2870780D01*
X6290834Y2850418D01*
X6306418Y2834834D01*
X6326780Y2826400D01*
X6348820D01*
X6369181Y2834834D01*
X6384766Y2850418D01*
X6393200Y2870780D01*
Y2892820D01*
X6384766Y2913181D01*
X6369181Y2928766D01*
X6348820Y2937200D01*
D02*
G37*
G36*
X2930620Y2936301D02*
X2908581D01*
X2888219Y2927867D01*
X2872635Y2912282D01*
X2864201Y2891921D01*
Y2869881D01*
X2872635Y2849519D01*
X2888219Y2833935D01*
X2908581Y2825501D01*
X2930620D01*
X2950982Y2833935D01*
X2966566Y2849519D01*
X2975000Y2869881D01*
Y2891921D01*
X2966566Y2912282D01*
X2950982Y2927867D01*
X2930620Y2936301D01*
D02*
G37*
G36*
X6413320Y2827901D02*
X6391281D01*
X6370919Y2819467D01*
X6355335Y2803882D01*
X6346901Y2783521D01*
Y2761481D01*
X6355335Y2741119D01*
X6370919Y2725535D01*
X6391281Y2717101D01*
X6413320D01*
X6433682Y2725535D01*
X6449267Y2741119D01*
X6457701Y2761481D01*
Y2783521D01*
X6449267Y2803882D01*
X6433682Y2819467D01*
X6413320Y2827901D01*
D02*
G37*
G36*
X8044985Y2995601D02*
X8008016D01*
X7972308Y2986033D01*
X7940293Y2967549D01*
X7914153Y2941408D01*
X7895669Y2909393D01*
X7886101Y2873685D01*
Y2836717D01*
X7895669Y2801008D01*
X7914153Y2768993D01*
X7940293Y2742853D01*
X7972308Y2724369D01*
X8008016Y2714801D01*
X8044985D01*
X8080693Y2724369D01*
X8112708Y2742853D01*
X8138848Y2768993D01*
X8157332Y2801008D01*
X8166900Y2836717D01*
Y2873685D01*
X8157332Y2909393D01*
X8138848Y2941408D01*
X8112708Y2967549D01*
X8080693Y2986033D01*
X8044985Y2995601D01*
D02*
G37*
G36*
X7110420Y2707401D02*
X7088381D01*
X7068019Y2698967D01*
X7054951Y2685898D01*
X7041882Y2698967D01*
X7021520Y2707401D01*
X6999481D01*
X6979119Y2698967D01*
X6963535Y2683382D01*
X6955101Y2663021D01*
Y2640981D01*
X6963535Y2620619D01*
X6979119Y2605035D01*
X6999481Y2596601D01*
X7021520D01*
X7041882Y2605035D01*
X7054951Y2618103D01*
X7068019Y2605035D01*
X7088381Y2596601D01*
X7110420D01*
X7130782Y2605035D01*
X7146366Y2620619D01*
X7154801Y2640981D01*
Y2663021D01*
X7146366Y2683382D01*
X7130782Y2698967D01*
X7110420Y2707401D01*
D02*
G37*
G36*
X5584200Y2889401D02*
X5363401D01*
Y2668601D01*
X5584200D01*
Y2889401D01*
D02*
G37*
G36*
X5234335D02*
X5205266D01*
X5177188Y2881877D01*
X5152013Y2867343D01*
X5131459Y2846788D01*
X5116924Y2821614D01*
X5109401Y2793535D01*
Y2764466D01*
X5116924Y2736388D01*
X5131459Y2711214D01*
X5152013Y2690659D01*
X5177188Y2676124D01*
X5205266Y2668601D01*
X5234335D01*
X5262413Y2676124D01*
X5287588Y2690659D01*
X5308143Y2711214D01*
X5322677Y2736388D01*
X5330200Y2764466D01*
Y2793535D01*
X5322677Y2821614D01*
X5308143Y2846788D01*
X5287588Y2867343D01*
X5262413Y2881877D01*
X5234335Y2889401D01*
D02*
G37*
G36*
X4980335D02*
X4951266D01*
X4923188Y2881877D01*
X4898013Y2867343D01*
X4877459Y2846788D01*
X4862924Y2821614D01*
X4855401Y2793535D01*
Y2764466D01*
X4862924Y2736388D01*
X4877459Y2711214D01*
X4898013Y2690659D01*
X4923188Y2676124D01*
X4951266Y2668601D01*
X4980335D01*
X5008413Y2676124D01*
X5033588Y2690659D01*
X5054143Y2711214D01*
X5068677Y2736388D01*
X5076200Y2764466D01*
Y2793535D01*
X5068677Y2821614D01*
X5054143Y2846788D01*
X5033588Y2867343D01*
X5008413Y2881877D01*
X4980335Y2889401D01*
D02*
G37*
G36*
X483817Y2789800D02*
X456064D01*
X429258Y2782617D01*
X405223Y2768741D01*
X385600Y2749117D01*
X371724Y2725083D01*
X364541Y2698277D01*
Y2670524D01*
X371724Y2643717D01*
X385600Y2619683D01*
X405223Y2600059D01*
X429258Y2586183D01*
X456064Y2579000D01*
X483817D01*
X510624Y2586183D01*
X534658Y2600059D01*
X554282Y2619683D01*
X568158Y2643717D01*
X575340Y2670524D01*
Y2698277D01*
X568158Y2725083D01*
X554282Y2749117D01*
X534658Y2768741D01*
X510624Y2782617D01*
X483817Y2789800D01*
D02*
G37*
G36*
X1156117Y2777800D02*
X1128364D01*
X1101558Y2770617D01*
X1077523Y2756741D01*
X1057900Y2737117D01*
X1044024Y2713083D01*
X1036841Y2686277D01*
Y2658524D01*
X1044024Y2631717D01*
X1057900Y2607683D01*
X1077523Y2588059D01*
X1101558Y2574183D01*
X1128364Y2567000D01*
X1156117D01*
X1182923Y2574183D01*
X1206958Y2588059D01*
X1226581Y2607683D01*
X1240458Y2631717D01*
X1247640Y2658524D01*
Y2686277D01*
X1240458Y2713083D01*
X1226581Y2737117D01*
X1206958Y2756741D01*
X1182923Y2770617D01*
X1156117Y2777800D01*
D02*
G37*
G36*
X7351697Y2673001D02*
X7329658D01*
X7309296Y2664567D01*
X7293712Y2648982D01*
X7285278Y2628621D01*
Y2606581D01*
X7293712Y2586219D01*
X7309296Y2570635D01*
X7329658Y2562201D01*
X7351697D01*
X7372059Y2570635D01*
X7387643Y2586219D01*
X7396077Y2606581D01*
Y2628621D01*
X7387643Y2648982D01*
X7372059Y2664567D01*
X7351697Y2673001D01*
D02*
G37*
G36*
X5901844Y2606801D02*
X5879805D01*
X5859443Y2598367D01*
X5843859Y2582782D01*
X5835425Y2562421D01*
Y2540381D01*
X5843859Y2520019D01*
X5859443Y2504435D01*
X5879805Y2496001D01*
X5901844D01*
X5922206Y2504435D01*
X5937791Y2520019D01*
X5946225Y2540381D01*
Y2562421D01*
X5937791Y2582782D01*
X5922206Y2598367D01*
X5901844Y2606801D01*
D02*
G37*
G36*
X3888820Y2541000D02*
X3866780D01*
X3846419Y2532566D01*
X3830834Y2516982D01*
X3822400Y2496620D01*
Y2474580D01*
X3830834Y2454219D01*
X3846419Y2438634D01*
X3866780Y2430200D01*
X3888820D01*
X3909181Y2438634D01*
X3924766Y2454219D01*
X3933200Y2474580D01*
Y2496620D01*
X3924766Y2516982D01*
X3909181Y2532566D01*
X3888820Y2541000D01*
D02*
G37*
G36*
X5897120Y2445100D02*
X5875080D01*
X5854719Y2436666D01*
X5839134Y2421082D01*
X5830700Y2400720D01*
Y2378680D01*
X5839134Y2358319D01*
X5854719Y2342734D01*
X5875080Y2334300D01*
X5897120D01*
X5917481Y2342734D01*
X5933066Y2358319D01*
X5941500Y2378680D01*
Y2400720D01*
X5933066Y2421082D01*
X5917481Y2436666D01*
X5897120Y2445100D01*
D02*
G37*
G36*
X6226120Y2444801D02*
X6204081D01*
X6183719Y2436367D01*
X6168135Y2420782D01*
X6159701Y2400421D01*
Y2378381D01*
X6168135Y2358019D01*
X6183719Y2342435D01*
X6204081Y2334001D01*
X6226120D01*
X6246482Y2342435D01*
X6262066Y2358019D01*
X6270501Y2378381D01*
Y2400421D01*
X6262066Y2420782D01*
X6246482Y2436367D01*
X6226120Y2444801D01*
D02*
G37*
G36*
X7012820Y2354401D02*
X6990781D01*
X6970419Y2345967D01*
X6954835Y2330382D01*
X6946401Y2310021D01*
Y2287981D01*
X6954835Y2267619D01*
X6970419Y2252035D01*
X6990781Y2243601D01*
X7012820D01*
X7033182Y2252035D01*
X7048766Y2267619D01*
X7057201Y2287981D01*
Y2310021D01*
X7048766Y2330382D01*
X7033182Y2345967D01*
X7012820Y2354401D01*
D02*
G37*
G36*
X8044985Y2487601D02*
X8008016D01*
X7972308Y2478033D01*
X7940293Y2459549D01*
X7914153Y2433408D01*
X7895669Y2401393D01*
X7886101Y2365685D01*
Y2328717D01*
X7895669Y2293008D01*
X7914153Y2260993D01*
X7940293Y2234853D01*
X7972308Y2216369D01*
X8008016Y2206801D01*
X8044985D01*
X8080693Y2216369D01*
X8112708Y2234853D01*
X8138848Y2260993D01*
X8157332Y2293008D01*
X8166900Y2328717D01*
Y2365685D01*
X8157332Y2401393D01*
X8138848Y2433408D01*
X8112708Y2459549D01*
X8080693Y2478033D01*
X8044985Y2487601D01*
D02*
G37*
G36*
X4450595Y2197432D02*
X4428555D01*
X4408193Y2188998D01*
X4395125Y2175930D01*
X4382057Y2188998D01*
X4361695Y2197432D01*
X4339655D01*
X4319294Y2188998D01*
X4303709Y2173413D01*
X4295275Y2153052D01*
Y2131012D01*
X4303709Y2110651D01*
X4316778Y2097582D01*
X4303709Y2084513D01*
X4295275Y2064152D01*
Y2042112D01*
X4303709Y2021751D01*
X4319293Y2006166D01*
X4339655Y1997732D01*
X4361695D01*
X4382056Y2006166D01*
X4395125Y2019235D01*
X4408193Y2006166D01*
X4428555Y1997732D01*
X4450595D01*
X4470956Y2006166D01*
X4486541Y2021751D01*
X4494975Y2042112D01*
Y2064152D01*
X4486541Y2084513D01*
X4473472Y2097582D01*
X4486541Y2110651D01*
X4494975Y2131012D01*
Y2153052D01*
X4486541Y2173413D01*
X4470956Y2188998D01*
X4450595Y2197432D01*
D02*
G37*
G36*
X5898544Y2228901D02*
X5876505D01*
X5856143Y2220466D01*
X5840559Y2204882D01*
X5832124Y2184520D01*
Y2162481D01*
X5840559Y2142119D01*
X5856143Y2126535D01*
X5876505Y2118101D01*
X5898544D01*
X5918906Y2126535D01*
X5934490Y2142119D01*
X5942924Y2162481D01*
Y2184520D01*
X5934490Y2204882D01*
X5918906Y2220466D01*
X5898544Y2228901D01*
D02*
G37*
G36*
X5359793Y2023673D02*
X5337754D01*
X5317392Y2015239D01*
X5304324Y2002171D01*
X5291255Y2015239D01*
X5270894Y2023673D01*
X5248854D01*
X5228492Y2015239D01*
X5212908Y1999655D01*
X5204474Y1979293D01*
Y1957254D01*
X5212908Y1936892D01*
X5225976Y1923823D01*
X5212908Y1910755D01*
X5204474Y1890393D01*
Y1868354D01*
X5212908Y1847992D01*
X5228492Y1832408D01*
X5248854Y1823973D01*
X5270893D01*
X5291255Y1832408D01*
X5304324Y1845476D01*
X5317392Y1832408D01*
X5337754Y1823973D01*
X5359793D01*
X5380155Y1832408D01*
X5395740Y1847992D01*
X5404174Y1868354D01*
Y1890393D01*
X5395740Y1910755D01*
X5382671Y1923823D01*
X5395740Y1936892D01*
X5404174Y1957254D01*
Y1979293D01*
X5395740Y1999655D01*
X5380155Y2015239D01*
X5359793Y2023673D01*
D02*
G37*
G36*
X6653420Y2101300D02*
X6631380D01*
X6611019Y2092866D01*
X6595434Y2077281D01*
X6587000Y2056920D01*
Y2034880D01*
X6595434Y2014518D01*
X6611019Y1998934D01*
X6631380Y1990500D01*
X6653420D01*
X6673781Y1998934D01*
X6689366Y2014518D01*
X6697800Y2034880D01*
Y2056920D01*
X6689366Y2077281D01*
X6673781Y2092866D01*
X6653420Y2101300D01*
D02*
G37*
G36*
X6875720Y2030801D02*
X6853681D01*
X6833319Y2022367D01*
X6817735Y2006782D01*
X6809301Y1986420D01*
Y1964381D01*
X6817735Y1944019D01*
X6833319Y1928435D01*
X6853681Y1920001D01*
X6875720D01*
X6896082Y1928435D01*
X6911666Y1944019D01*
X6920100Y1964381D01*
Y1986420D01*
X6911666Y2006782D01*
X6896082Y2022367D01*
X6875720Y2030801D01*
D02*
G37*
G36*
X5724220Y1979600D02*
X5702180D01*
X5681818Y1971166D01*
X5666234Y1955582D01*
X5657800Y1935220D01*
Y1913180D01*
X5666234Y1892819D01*
X5681818Y1877234D01*
X5702180Y1868800D01*
X5724220D01*
X5744581Y1877234D01*
X5760166Y1892819D01*
X5768600Y1913180D01*
Y1935220D01*
X5760166Y1955582D01*
X5744581Y1971166D01*
X5724220Y1979600D01*
D02*
G37*
G36*
X6373820Y1932701D02*
X6351781D01*
X6331419Y1924267D01*
X6315835Y1908682D01*
X6307401Y1888321D01*
Y1866281D01*
X6315835Y1845919D01*
X6331419Y1830335D01*
X6351781Y1821901D01*
X6373820D01*
X6394182Y1830335D01*
X6409766Y1845919D01*
X6418201Y1866281D01*
Y1888321D01*
X6409766Y1908682D01*
X6394182Y1924267D01*
X6373820Y1932701D01*
D02*
G37*
G36*
X7126520Y1820600D02*
X7104480D01*
X7084118Y1812166D01*
X7075697Y1803744D01*
X7067400Y1797443D01*
X7059103Y1803744D01*
X7050681Y1812166D01*
X7030320Y1820600D01*
X7008280D01*
X6987918Y1812166D01*
X6972334Y1796581D01*
X6963900Y1776220D01*
Y1754180D01*
X6972334Y1733818D01*
X6987918Y1718234D01*
X7008280Y1709800D01*
X7030320D01*
X7050681Y1718234D01*
X7059103Y1726656D01*
X7067400Y1732957D01*
X7075697Y1726656D01*
X7084118Y1718234D01*
X7104480Y1709800D01*
X7126520D01*
X7146881Y1718234D01*
X7162466Y1733818D01*
X7170900Y1754180D01*
Y1776220D01*
X7162466Y1796581D01*
X7146881Y1812166D01*
X7126520Y1820600D01*
D02*
G37*
G36*
X8044985Y1979601D02*
X8008016D01*
X7972308Y1970033D01*
X7940293Y1951549D01*
X7914153Y1925408D01*
X7895669Y1893393D01*
X7886101Y1857685D01*
Y1820717D01*
X7895669Y1785008D01*
X7914153Y1752993D01*
X7940293Y1726853D01*
X7972308Y1708369D01*
X8008016Y1698801D01*
X8044985D01*
X8080693Y1708369D01*
X8112708Y1726853D01*
X8138848Y1752993D01*
X8157332Y1785008D01*
X8166900Y1820717D01*
Y1857685D01*
X8157332Y1893393D01*
X8138848Y1925408D01*
X8112708Y1951549D01*
X8080693Y1970033D01*
X8044985Y1979601D01*
D02*
G37*
G36*
X527243Y1946501D02*
X488958D01*
X451978Y1936592D01*
X418823Y1917450D01*
X391752Y1890378D01*
X372609Y1857223D01*
X362701Y1820243D01*
Y1781959D01*
X372609Y1744978D01*
X391752Y1711823D01*
X418823Y1684752D01*
X451978Y1665610D01*
X488958Y1655701D01*
X527243D01*
X564223Y1665610D01*
X597378Y1684752D01*
X624449Y1711823D01*
X643592Y1744978D01*
X653500Y1781959D01*
Y1820243D01*
X643592Y1857223D01*
X624449Y1890378D01*
X597378Y1917450D01*
X564223Y1936592D01*
X527243Y1946501D01*
D02*
G37*
G36*
X7335020Y1720501D02*
X7312981D01*
X7292619Y1712067D01*
X7277035Y1696482D01*
X7268601Y1676121D01*
Y1654081D01*
X7277035Y1633719D01*
X7292619Y1618135D01*
X7312981Y1609701D01*
X7335020D01*
X7355382Y1618135D01*
X7370966Y1633719D01*
X7379401Y1654081D01*
Y1676121D01*
X7370966Y1696482D01*
X7355382Y1712067D01*
X7335020Y1720501D01*
D02*
G37*
G36*
X4163720Y1717300D02*
X4141680D01*
X4121319Y1708866D01*
X4105734Y1693281D01*
X4097300Y1672920D01*
Y1650880D01*
X4105734Y1630518D01*
X4121319Y1614934D01*
X4141680Y1606500D01*
X4163720D01*
X4184082Y1614934D01*
X4199666Y1630518D01*
X4208100Y1650880D01*
Y1672920D01*
X4199666Y1693281D01*
X4184082Y1708866D01*
X4163720Y1717300D01*
D02*
G37*
G36*
X5905720Y1706701D02*
X5883681D01*
X5863319Y1698267D01*
X5847735Y1682682D01*
X5839301Y1662321D01*
Y1640281D01*
X5847735Y1619919D01*
X5863319Y1604335D01*
X5883681Y1595901D01*
X5905720D01*
X5926082Y1604335D01*
X5941667Y1619919D01*
X5950101Y1640281D01*
Y1662321D01*
X5941667Y1682682D01*
X5926082Y1698267D01*
X5905720Y1706701D01*
D02*
G37*
G36*
X5522720Y1650901D02*
X5500681D01*
X5480319Y1642467D01*
X5464735Y1626882D01*
X5456301Y1606521D01*
Y1584481D01*
X5464735Y1564119D01*
X5480319Y1548535D01*
X5500681Y1540101D01*
X5522720D01*
X5543082Y1548535D01*
X5558667Y1564119D01*
X5567101Y1584481D01*
Y1606521D01*
X5558667Y1626882D01*
X5543082Y1642467D01*
X5522720Y1650901D01*
D02*
G37*
G36*
X5908020Y1574101D02*
X5885981D01*
X5865619Y1565667D01*
X5850035Y1550082D01*
X5841601Y1529721D01*
Y1507681D01*
X5850035Y1487319D01*
X5865619Y1471735D01*
X5885981Y1463301D01*
X5908020D01*
X5928382Y1471735D01*
X5943967Y1487319D01*
X5952401Y1507681D01*
Y1529721D01*
X5943967Y1550082D01*
X5928382Y1565667D01*
X5908020Y1574101D01*
D02*
G37*
G36*
X6239070Y1567350D02*
X6217030D01*
X6196668Y1558916D01*
X6181084Y1543331D01*
X6172650Y1522970D01*
Y1500930D01*
X6181084Y1480569D01*
X6196668Y1464984D01*
X6217030Y1456550D01*
X6239070D01*
X6259431Y1464984D01*
X6275016Y1480569D01*
X6283450Y1500930D01*
Y1522970D01*
X6275016Y1543331D01*
X6259431Y1558916D01*
X6239070Y1567350D01*
D02*
G37*
G36*
X5040320Y1602501D02*
X5018281D01*
X4997919Y1594067D01*
X4982335Y1578482D01*
X4973901Y1558121D01*
Y1536081D01*
X4982335Y1515719D01*
X4993621Y1504433D01*
X4996542Y1496301D01*
X4993621Y1488169D01*
X4982335Y1476882D01*
X4973901Y1456521D01*
Y1434481D01*
X4982335Y1414119D01*
X4997919Y1398535D01*
X5018281Y1390101D01*
X5040320D01*
X5060682Y1398535D01*
X5076266Y1414119D01*
X5084701Y1434481D01*
Y1456521D01*
X5076266Y1476882D01*
X5064980Y1488169D01*
X5062059Y1496301D01*
X5064980Y1504433D01*
X5076266Y1515719D01*
X5084701Y1536081D01*
Y1558121D01*
X5076266Y1578482D01*
X5060682Y1594067D01*
X5040320Y1602501D01*
D02*
G37*
G36*
X6735720Y1451101D02*
X6713681D01*
X6693319Y1442667D01*
X6677735Y1427082D01*
X6669301Y1406721D01*
Y1384681D01*
X6677735Y1364319D01*
X6693319Y1348735D01*
X6713681Y1340301D01*
X6735720D01*
X6756082Y1348735D01*
X6771666Y1364319D01*
X6780100Y1384681D01*
Y1406721D01*
X6771666Y1427082D01*
X6756082Y1442667D01*
X6735720Y1451101D01*
D02*
G37*
G36*
X5864520Y1423000D02*
X5842480D01*
X5822119Y1414566D01*
X5806534Y1398981D01*
X5798100Y1378620D01*
Y1356580D01*
X5806534Y1336219D01*
X5822119Y1320634D01*
X5842480Y1312200D01*
X5864520D01*
X5884882Y1320634D01*
X5900466Y1336219D01*
X5908900Y1356580D01*
Y1378620D01*
X5900466Y1398981D01*
X5884882Y1414566D01*
X5864520Y1423000D01*
D02*
G37*
G36*
X3932920Y1396200D02*
X3910880D01*
X3890519Y1387766D01*
X3874934Y1372181D01*
X3866500Y1351820D01*
Y1329780D01*
X3874934Y1309419D01*
X3890519Y1293834D01*
X3910880Y1285400D01*
X3932920D01*
X3953281Y1293834D01*
X3968866Y1309419D01*
X3977300Y1329780D01*
Y1351820D01*
X3968866Y1372181D01*
X3953281Y1387766D01*
X3932920Y1396200D01*
D02*
G37*
G36*
X4664787Y1384512D02*
X4642747D01*
X4622385Y1376078D01*
X4606801Y1360494D01*
X4598367Y1340132D01*
Y1318092D01*
X4606801Y1297731D01*
X4622385Y1282146D01*
X4642747Y1273712D01*
X4664787D01*
X4685148Y1282146D01*
X4700733Y1297731D01*
X4709167Y1318092D01*
Y1340132D01*
X4700733Y1360494D01*
X4685148Y1376078D01*
X4664787Y1384512D01*
D02*
G37*
G36*
X8044985Y1471601D02*
X8008016D01*
X7972308Y1462033D01*
X7940293Y1443549D01*
X7914153Y1417409D01*
X7895669Y1385393D01*
X7886101Y1349685D01*
Y1312717D01*
X7895669Y1277009D01*
X7914153Y1244993D01*
X7940293Y1218853D01*
X7972308Y1200369D01*
X8008016Y1190801D01*
X8044985D01*
X8080693Y1200369D01*
X8112708Y1218853D01*
X8138848Y1244993D01*
X8157332Y1277009D01*
X8166900Y1312717D01*
Y1349685D01*
X8157332Y1385393D01*
X8138848Y1417409D01*
X8112708Y1443549D01*
X8080693Y1462033D01*
X8044985Y1471601D01*
D02*
G37*
G36*
X3145319Y1498401D02*
X3123280D01*
X3102918Y1489967D01*
X3087333Y1474382D01*
X3078899Y1454020D01*
Y1431981D01*
X3087333Y1411619D01*
X3097980Y1400973D01*
X3101495Y1392675D01*
X3097980Y1384379D01*
X3087333Y1373732D01*
X3078899Y1353370D01*
Y1331331D01*
X3087333Y1310969D01*
X3102918Y1295385D01*
X3123279Y1286951D01*
X3145319D01*
X3165680Y1295385D01*
X3173958Y1303662D01*
X3181787Y1299943D01*
X3185216Y1286176D01*
X3184755Y1285501D01*
X3172308Y1273055D01*
X3163874Y1252693D01*
Y1230653D01*
X3172308Y1210292D01*
X3187892Y1194707D01*
X3208254Y1186273D01*
X3230294D01*
X3250655Y1194707D01*
X3263724Y1207776D01*
X3276792Y1194707D01*
X3297154Y1186273D01*
X3319193D01*
X3339555Y1194707D01*
X3355139Y1210292D01*
X3363573Y1230653D01*
Y1252693D01*
X3355139Y1273055D01*
X3345579Y1282615D01*
X3343371Y1294221D01*
X3346293Y1298495D01*
X3358739Y1310942D01*
X3367173Y1331303D01*
Y1353343D01*
X3358739Y1373705D01*
X3348092Y1384352D01*
X3344578Y1392648D01*
X3348092Y1400945D01*
X3358739Y1411592D01*
X3367173Y1431953D01*
Y1453993D01*
X3358739Y1474355D01*
X3343155Y1489939D01*
X3322793Y1498373D01*
X3300754D01*
X3280392Y1489939D01*
X3267323Y1476871D01*
X3254255Y1489939D01*
X3233893Y1498373D01*
X3211854D01*
X3191492Y1489939D01*
X3178600Y1477047D01*
X3165681Y1489967D01*
X3145319Y1498401D01*
D02*
G37*
G36*
X5359593Y1176273D02*
X5337554D01*
X5317192Y1167839D01*
X5304124Y1154771D01*
X5291055Y1167839D01*
X5270694Y1176273D01*
X5248654D01*
X5228292Y1167839D01*
X5212708Y1152255D01*
X5204274Y1131893D01*
Y1109854D01*
X5212708Y1089492D01*
X5225776Y1076424D01*
X5212708Y1063355D01*
X5204274Y1042993D01*
Y1020954D01*
X5212708Y1000592D01*
X5228292Y985007D01*
X5248654Y976573D01*
X5270693D01*
X5291055Y985007D01*
X5304124Y998076D01*
X5317192Y985007D01*
X5337554Y976573D01*
X5359593D01*
X5379955Y985007D01*
X5395539Y1000592D01*
X5403973Y1020954D01*
Y1042993D01*
X5395539Y1063355D01*
X5382471Y1076423D01*
X5395539Y1089492D01*
X5403973Y1109854D01*
Y1131893D01*
X5395539Y1152255D01*
X5379955Y1167839D01*
X5359593Y1176273D01*
D02*
G37*
G36*
X4520970Y1341950D02*
X4498930D01*
X4478568Y1333515D01*
X4462984Y1317931D01*
X4454550Y1297569D01*
Y1275530D01*
X4462984Y1255168D01*
X4478568Y1239584D01*
X4498930Y1231150D01*
X4520970D01*
X4540775Y1239353D01*
X4542829Y1238386D01*
X4551311Y1231603D01*
X4545279Y1217042D01*
Y1195002D01*
X4553714Y1174640D01*
X4569298Y1159056D01*
X4589660Y1150622D01*
X4611699D01*
X4632061Y1159056D01*
X4647645Y1174640D01*
X4656079Y1195002D01*
Y1217042D01*
X4647645Y1237403D01*
X4632061Y1252988D01*
X4611699Y1261422D01*
X4589660D01*
X4569854Y1253218D01*
X4567801Y1254185D01*
X4559318Y1260969D01*
X4565350Y1275530D01*
Y1297569D01*
X4556916Y1317931D01*
X4541331Y1333515D01*
X4520970Y1341950D01*
D02*
G37*
G36*
X6636920Y1149100D02*
X6614880D01*
X6594518Y1140666D01*
X6578934Y1125082D01*
X6570500Y1104720D01*
Y1082680D01*
X6578934Y1062319D01*
X6594518Y1046734D01*
X6614880Y1038300D01*
X6636920D01*
X6657281Y1046734D01*
X6672866Y1062319D01*
X6681300Y1082680D01*
Y1104720D01*
X6672866Y1125082D01*
X6657281Y1140666D01*
X6636920Y1149100D01*
D02*
G37*
G36*
X4129350Y1316811D02*
X4107311D01*
X4086949Y1308377D01*
X4071364Y1292792D01*
X4062930Y1272431D01*
Y1250391D01*
X4071364Y1230030D01*
X4086949Y1214445D01*
X4107311Y1206011D01*
X4129350D01*
X4149712Y1214445D01*
X4163641Y1228374D01*
X4173622Y1228442D01*
X4183616Y1218377D01*
X4183594Y1204113D01*
X4176729Y1197248D01*
X4168295Y1176886D01*
Y1154847D01*
X4176729Y1134485D01*
X4189797Y1121417D01*
X4176729Y1108348D01*
X4168294Y1087986D01*
Y1065947D01*
X4176729Y1045585D01*
X4192313Y1030001D01*
X4212675Y1021567D01*
X4234714D01*
X4255076Y1030001D01*
X4270660Y1045585D01*
X4279094Y1065947D01*
Y1087986D01*
X4270660Y1108348D01*
X4257592Y1121417D01*
X4270660Y1134485D01*
X4279095Y1154847D01*
Y1176886D01*
X4270660Y1197248D01*
X4264573Y1203335D01*
X4264602Y1221155D01*
X4271466Y1228019D01*
X4279901Y1248381D01*
Y1270421D01*
X4271466Y1290782D01*
X4255882Y1306367D01*
X4235520Y1314801D01*
X4213481D01*
X4193119Y1306367D01*
X4179190Y1292437D01*
X4165482Y1292345D01*
X4165296Y1292792D01*
X4149712Y1308377D01*
X4129350Y1316811D01*
D02*
G37*
G36*
X7419720Y1086000D02*
X7397680D01*
X7377318Y1077566D01*
X7361734Y1061981D01*
X7353300Y1041620D01*
Y1019580D01*
X7361734Y999218D01*
X7377318Y983634D01*
X7397680Y975200D01*
X7419720D01*
X7440081Y983634D01*
X7455666Y999218D01*
X7464100Y1019580D01*
Y1041620D01*
X7455666Y1061981D01*
X7440081Y1077566D01*
X7419720Y1086000D01*
D02*
G37*
G36*
X6628120Y1007900D02*
X6606080D01*
X6585719Y999466D01*
X6570134Y983881D01*
X6561700Y963520D01*
Y941480D01*
X6570134Y921119D01*
X6585719Y905534D01*
X6606080Y897100D01*
X6628120D01*
X6648481Y905534D01*
X6664066Y921119D01*
X6672500Y941480D01*
Y963520D01*
X6664066Y983881D01*
X6648481Y999466D01*
X6628120Y1007900D01*
D02*
G37*
G36*
X7110420Y916701D02*
X7088381D01*
X7068019Y908267D01*
X7054951Y895198D01*
X7041882Y908267D01*
X7021520Y916701D01*
X6999481D01*
X6979119Y908267D01*
X6963535Y892682D01*
X6955101Y872321D01*
Y850281D01*
X6963535Y829919D01*
X6979119Y814335D01*
X6999481Y805901D01*
X7021520D01*
X7041882Y814335D01*
X7054951Y827403D01*
X7068019Y814335D01*
X7088381Y805901D01*
X7110420D01*
X7130782Y814335D01*
X7146366Y829919D01*
X7154801Y850281D01*
Y872321D01*
X7146366Y892682D01*
X7130782Y908267D01*
X7110420Y916701D01*
D02*
G37*
G36*
X7351720Y891301D02*
X7329681D01*
X7309319Y882867D01*
X7293735Y867282D01*
X7285301Y846921D01*
Y824881D01*
X7293735Y804519D01*
X7309319Y788935D01*
X7329681Y780501D01*
X7351720D01*
X7372082Y788935D01*
X7387666Y804519D01*
X7396101Y824881D01*
Y846921D01*
X7387666Y867282D01*
X7372082Y882867D01*
X7351720Y891301D01*
D02*
G37*
G36*
X5720620Y876100D02*
X5698580D01*
X5678219Y867666D01*
X5662634Y852081D01*
X5654200Y831720D01*
Y809680D01*
X5662634Y789318D01*
X5678219Y773734D01*
X5698580Y765300D01*
X5720620D01*
X5740981Y773734D01*
X5756566Y789318D01*
X5765000Y809680D01*
Y831720D01*
X5756566Y852081D01*
X5740981Y867666D01*
X5720620Y876100D01*
D02*
G37*
G36*
X5898920Y809401D02*
X5876881D01*
X5856519Y800967D01*
X5840935Y785382D01*
X5832501Y765021D01*
Y742981D01*
X5840935Y722619D01*
X5856519Y707035D01*
X5876881Y698601D01*
X5898920D01*
X5919282Y707035D01*
X5934866Y722619D01*
X5943301Y742981D01*
Y765021D01*
X5934866Y785382D01*
X5919282Y800967D01*
X5898920Y809401D01*
D02*
G37*
G36*
X8044985Y963601D02*
X8008016D01*
X7972308Y954033D01*
X7940293Y935549D01*
X7914153Y909408D01*
X7895669Y877393D01*
X7886101Y841685D01*
Y804717D01*
X7895669Y769008D01*
X7914153Y736993D01*
X7940293Y710853D01*
X7972308Y692369D01*
X8008016Y682801D01*
X8044985D01*
X8080693Y692369D01*
X8112708Y710853D01*
X8138848Y736993D01*
X8157332Y769008D01*
X8166900Y804717D01*
Y841685D01*
X8157332Y877393D01*
X8138848Y909408D01*
X8112708Y935549D01*
X8080693Y954033D01*
X8044985Y963601D01*
D02*
G37*
G36*
X5890720Y675501D02*
X5868681D01*
X5848319Y667066D01*
X5832735Y651482D01*
X5824301Y631120D01*
Y609081D01*
X5832735Y588719D01*
X5848319Y573135D01*
X5868681Y564701D01*
X5890720D01*
X5911082Y573135D01*
X5926666Y588719D01*
X5935100Y609081D01*
Y631120D01*
X5926666Y651482D01*
X5911082Y667066D01*
X5890720Y675501D01*
D02*
G37*
G36*
X2655120Y773301D02*
X2633081D01*
X2612719Y764867D01*
X2597135Y749282D01*
X2588701Y728921D01*
Y706881D01*
X2597135Y686519D01*
X2608421Y675233D01*
X2611342Y667101D01*
X2608421Y658969D01*
X2597135Y647682D01*
X2588701Y627321D01*
Y605281D01*
X2597135Y584920D01*
X2608421Y573633D01*
X2611342Y565501D01*
X2608421Y557369D01*
X2597135Y546082D01*
X2588701Y525721D01*
Y503681D01*
X2597135Y483320D01*
X2612719Y467735D01*
X2633081Y459301D01*
X2655120D01*
X2675482Y467735D01*
X2691066Y483320D01*
X2699501Y503681D01*
Y525721D01*
X2691066Y546082D01*
X2679780Y557369D01*
X2676859Y565501D01*
X2679780Y573633D01*
X2691066Y584920D01*
X2699501Y605281D01*
Y627321D01*
X2691066Y647682D01*
X2679780Y658969D01*
X2676859Y667101D01*
X2679780Y675233D01*
X2691066Y686519D01*
X2699501Y706881D01*
Y728921D01*
X2691066Y749282D01*
X2675482Y764867D01*
X2655120Y773301D01*
D02*
G37*
G36*
X2515420D02*
X2493381D01*
X2473019Y764867D01*
X2457435Y749282D01*
X2449001Y728921D01*
Y706881D01*
X2457435Y686519D01*
X2468721Y675233D01*
X2471642Y667101D01*
X2468721Y658969D01*
X2457435Y647682D01*
X2449001Y627321D01*
Y605281D01*
X2457435Y584920D01*
X2468721Y573633D01*
X2471642Y565501D01*
X2468721Y557369D01*
X2457435Y546082D01*
X2449001Y525721D01*
Y503681D01*
X2457435Y483320D01*
X2473019Y467735D01*
X2493381Y459301D01*
X2515420D01*
X2535782Y467735D01*
X2551366Y483320D01*
X2559801Y503681D01*
Y525721D01*
X2551366Y546082D01*
X2540080Y557369D01*
X2537159Y565501D01*
X2540080Y573633D01*
X2551366Y584920D01*
X2559801Y605281D01*
Y627321D01*
X2551366Y647682D01*
X2540080Y658969D01*
X2537159Y667101D01*
X2540080Y675233D01*
X2551366Y686519D01*
X2559801Y706881D01*
Y728921D01*
X2551366Y749282D01*
X2535782Y764867D01*
X2515420Y773301D01*
D02*
G37*
G36*
X6704020Y561101D02*
X6681981D01*
X6661619Y552667D01*
X6646035Y537082D01*
X6637601Y516721D01*
Y494681D01*
X6646035Y474319D01*
X6661619Y458735D01*
X6681981Y450301D01*
X6704020D01*
X6724382Y458735D01*
X6739966Y474319D01*
X6748401Y494681D01*
Y516721D01*
X6739966Y537082D01*
X6724382Y552667D01*
X6704020Y561101D01*
D02*
G37*
G36*
X2832277Y629601D02*
X2804524D01*
X2777718Y622418D01*
X2753683Y608542D01*
X2734060Y588918D01*
X2720184Y564884D01*
X2713001Y538077D01*
Y510325D01*
X2720184Y483518D01*
X2734060Y459484D01*
X2753683Y439860D01*
X2777718Y425984D01*
X2804524Y418801D01*
X2832277D01*
X2859083Y425984D01*
X2883118Y439860D01*
X2902741Y459484D01*
X2916617Y483518D01*
X2923800Y510325D01*
Y538077D01*
X2916617Y564884D01*
X2902741Y588918D01*
X2883118Y608542D01*
X2859083Y622418D01*
X2832277Y629601D01*
D02*
G37*
G36*
X3460920Y523401D02*
X3438881D01*
X3418519Y514967D01*
X3402935Y499382D01*
X3394501Y479021D01*
Y456981D01*
X3402935Y436619D01*
X3418519Y421035D01*
X3438881Y412601D01*
X3460920D01*
X3481282Y421035D01*
X3496867Y436619D01*
X3505301Y456981D01*
Y479021D01*
X3496867Y499382D01*
X3481282Y514967D01*
X3460920Y523401D01*
D02*
G37*
G36*
X5887120Y444401D02*
X5865080D01*
X5844719Y435967D01*
X5829134Y420382D01*
X5820700Y400021D01*
Y377981D01*
X5829134Y357619D01*
X5844719Y342035D01*
X5865080Y333601D01*
X5887120D01*
X5907482Y342035D01*
X5923066Y357619D01*
X5931500Y377981D01*
Y400021D01*
X5923066Y420382D01*
X5907482Y435967D01*
X5887120Y444401D01*
D02*
G37*
G36*
X8044985Y455600D02*
X8008016D01*
X7972308Y446032D01*
X7940293Y427548D01*
X7914153Y401408D01*
X7895669Y369393D01*
X7886101Y333685D01*
Y296716D01*
X7895669Y261008D01*
X7914153Y228993D01*
X7940293Y202853D01*
X7972308Y184369D01*
X8008016Y174801D01*
X8044985D01*
X8080693Y184369D01*
X8112708Y202853D01*
X8138848Y228993D01*
X8157332Y261008D01*
X8166900Y296716D01*
Y333685D01*
X8157332Y369393D01*
X8138848Y401408D01*
X8112708Y427548D01*
X8080693Y446032D01*
X8044985Y455600D01*
D02*
G37*
%LPD*%
D33*
X5473801Y2779001D02*
D03*
D34*
X5219801D02*
D03*
X4965801D02*
D03*
X4711801D02*
D03*
D35*
X508101Y1293101D02*
D03*
Y1801101D02*
D03*
D36*
X2818401Y270201D02*
D03*
Y524201D02*
D03*
X1142240Y2926400D02*
D03*
X1142241Y2672400D02*
D03*
X469940Y2938401D02*
D03*
X469941Y2684400D02*
D03*
D37*
X8026501Y315201D02*
D03*
Y823201D02*
D03*
Y1331201D02*
D03*
Y1839201D02*
D03*
Y2347201D02*
D03*
Y2855201D02*
D03*
D38*
X6228050Y1511950D02*
D03*
X4152700Y1661900D02*
D03*
X3921900Y1340800D02*
D03*
X3823000Y1547400D02*
D03*
X4525700Y1425100D02*
D03*
X4509950Y1286550D02*
D03*
X4653767Y1329112D02*
D03*
X4745700Y1331600D02*
D03*
X5709600Y820700D02*
D03*
X6625900Y1093700D02*
D03*
X6617100Y952500D02*
D03*
X5853500Y1367600D02*
D03*
X6642400Y2045900D02*
D03*
X6337800Y2881800D02*
D03*
X6402301Y2772501D02*
D03*
X6650600Y2900200D02*
D03*
X6887100Y2770700D02*
D03*
X5704800Y1812200D02*
D03*
X6199200Y921700D02*
D03*
X6020300Y923800D02*
D03*
X6928700Y959400D02*
D03*
X7221600Y950500D02*
D03*
X7313700Y946600D02*
D03*
X7408700Y1030600D02*
D03*
X7310875Y1084900D02*
D03*
X6362801Y1877301D02*
D03*
X5713200Y1924200D02*
D03*
X3594301Y1083301D02*
D03*
X3708601D02*
D03*
X3708600Y980400D02*
D03*
X3590201Y983101D02*
D03*
X1171101Y1404701D02*
D03*
X1285401D02*
D03*
X1285400Y1301800D02*
D03*
X1167000Y1304501D02*
D03*
X328101Y974801D02*
D03*
X442401D02*
D03*
X442400Y871900D02*
D03*
X324001Y874601D02*
D03*
X313501Y412401D02*
D03*
X431900Y409700D02*
D03*
X1443801Y2064801D02*
D03*
X1570801D02*
D03*
X1773975Y2055932D02*
D03*
X1685075D02*
D03*
X1773975Y1967032D02*
D03*
X1685075D02*
D03*
X1925775Y2929932D02*
D03*
X1836875D02*
D03*
X1925775Y2841032D02*
D03*
X1836875D02*
D03*
X7322775Y2962532D02*
D03*
X7233875D02*
D03*
X7322775Y2873632D02*
D03*
X7233875D02*
D03*
X7323475Y2011832D02*
D03*
X7234575D02*
D03*
X7323475Y1922932D02*
D03*
X7234575D02*
D03*
X7219200Y1088700D02*
D03*
X7029575Y175832D02*
D03*
X6940675D02*
D03*
X7029575Y86932D02*
D03*
X6940675D02*
D03*
X5507375Y2372032D02*
D03*
X5418475D02*
D03*
X5507375Y2283132D02*
D03*
X5418475D02*
D03*
X4834875Y1537232D02*
D03*
X4745975D02*
D03*
X4834875Y1448332D02*
D03*
X4745975D02*
D03*
X4530700Y1535400D02*
D03*
X2838400Y1426200D02*
D03*
X2936700Y1125000D02*
D03*
X3556800Y1519300D02*
D03*
X5886100Y2389700D02*
D03*
X3080200Y842200D02*
D03*
X4825700Y2219000D02*
D03*
X5698700Y2021700D02*
D03*
X3877800Y2485600D02*
D03*
X3410700Y2837400D02*
D03*
X4002400Y2561800D02*
D03*
X4476700Y2482000D02*
D03*
X4305100Y2491600D02*
D03*
X4596600Y2064900D02*
D03*
X5351100Y1684600D02*
D03*
X3576401Y466601D02*
D03*
X3119701Y2874101D02*
D03*
X2919600Y2880901D02*
D03*
X3449901Y468001D02*
D03*
X3134299Y1342351D02*
D03*
X3134299Y1443001D02*
D03*
X3219274Y1241673D02*
D03*
X3308173D02*
D03*
X3222874Y1442973D02*
D03*
X3311773D02*
D03*
X3222873Y1342323D02*
D03*
X3311773D02*
D03*
X4350675Y2053132D02*
D03*
X4439575D02*
D03*
X4350675Y2142032D02*
D03*
X4439575D02*
D03*
X5887901Y754001D02*
D03*
X7324001Y1665101D02*
D03*
X6724701Y1395701D02*
D03*
X4600679Y1206022D02*
D03*
X6864701Y1975401D02*
D03*
X5511701Y1595501D02*
D03*
X7001801Y2299001D02*
D03*
X6878901Y2883001D02*
D03*
X6215101Y2389401D02*
D03*
X5887524Y2173501D02*
D03*
X4223694Y1076967D02*
D03*
X4223695Y1165867D02*
D03*
X4224501Y1259401D02*
D03*
X4118330Y1261411D02*
D03*
X5029301Y1445501D02*
D03*
X5348574Y1031973D02*
D03*
X5259674D02*
D03*
X5348574Y1120873D02*
D03*
X5259674D02*
D03*
X5259874Y1968273D02*
D03*
X5348774D02*
D03*
X5259874Y1879373D02*
D03*
X5348774D02*
D03*
X6451701Y2055101D02*
D03*
X5897001Y1518701D02*
D03*
X6874800Y1875200D02*
D03*
X7337000Y2711400D02*
D03*
X6879700Y2960300D02*
D03*
X6643800Y2979800D02*
D03*
X5029301Y937501D02*
D03*
X5894701Y1651301D02*
D03*
X7340701Y835901D02*
D03*
X7010501Y861301D02*
D03*
X7099401D02*
D03*
X7019300Y1765200D02*
D03*
X7115500D02*
D03*
X7099401Y2652001D02*
D03*
X7010501D02*
D03*
X2644101Y717901D02*
D03*
X2504401D02*
D03*
Y514701D02*
D03*
Y616301D02*
D03*
X2644101Y514701D02*
D03*
Y616301D02*
D03*
X5876100Y389001D02*
D03*
X5879700Y620101D02*
D03*
X5890825Y2551401D02*
D03*
X431901Y512601D02*
D03*
X4945700Y1444101D02*
D03*
Y1544600D02*
D03*
X2971901Y1813801D02*
D03*
Y1995834D02*
D03*
Y2177867D02*
D03*
Y1631768D02*
D03*
X2756001D02*
D03*
Y2177867D02*
D03*
Y1995834D02*
D03*
Y1813801D02*
D03*
X7077400Y1184400D02*
D03*
X6703100Y1272500D02*
D03*
X1159900Y1533100D02*
D03*
X1292119D02*
D03*
X1566801Y1968601D02*
D03*
X1439801D02*
D03*
X317601Y512601D02*
D03*
X7093301Y293401D02*
D03*
X6860000Y301900D02*
D03*
X7096401Y2096801D02*
D03*
X6700300Y2171200D02*
D03*
X5244600Y722400D02*
D03*
X5418200Y720200D02*
D03*
X3510100Y1634500D02*
D03*
X3511600Y1401200D02*
D03*
X5029301Y1547101D02*
D03*
X7340677Y2617601D02*
D03*
X6693001Y505701D02*
D03*
%TF.MD5,ee16dbd67b193c124b15cfb3813e0b3b*%
M02*
